<svg id="logo" xmlns="http://www.w3.org/2000/svg" viewBox="0 0 538.395 110.49"><defs><style>.cls-1{stroke:#000;stroke-miterlimit:10;stroke-width:0.25px;}.cls-2{fill:#ff7400;}</style></defs><title>GeoMax</title><path class="cls-1" d="M7.625,15.37H78.031a0,0,0,0,1,0,0v13a0,0,0,0,1,0,0H.125a0,0,0,0,1,0,0v-5.5A7.5,7.5,0,0,1,7.625,15.37Z"/><path class="cls-1" d="M95.833,15.37h71.745a0,0,0,0,1,0,0v13a0,0,0,0,1,0,0H88.333a0,0,0,0,1,0,0v-5.5A7.5,7.5,0,0,1,95.833,15.37Z"/><rect class="cls-1" x="107.125" y="47.247" width="54.849" height="13.5"/><rect class="cls-1" x="23.974" y="47.247" width="38.887" height="13.5"/><path class="cls-1" d="M15.087,79H79.729a0,0,0,0,1,0,0v5.7a10,10,0,0,1-10,10H15.087a0,0,0,0,1,0,0V79A0,0,0,0,1,15.087,79Z"/><rect class="cls-1" x="107.125" y="79.002" width="60.453" height="15.698"/><polygon class="cls-1" points="405.059 94.7 445.814 94.7 445.814 79.002 410.663 79.002 405.059 94.7"/><path class="cls-1" d="M67.792,58.9H92.047a0,0,0,0,1,0,0V75.764a0,0,0,0,1,0,0H60.292a0,0,0,0,1,0,0V66.4A7.5,7.5,0,0,1,67.792,58.9Z" transform="translate(138.625 -13.045) rotate(90)"/><path class="cls-1" d="M-20.684,58.259h66.33a0,0,0,0,1,0,0v7.462a7.5,7.5,0,0,1-7.5,7.5h-58.83a0,0,0,0,1,0,0V58.259A0,0,0,0,1-20.684,58.259Z" transform="translate(73.347 49.054) rotate(90)"/><path class="cls-1" d="M88.333,28.37h18.792a0,0,0,0,1,0,0V94.7a0,0,0,0,1,0,0H98.333a10,10,0,0,1-10-10V28.37A0,0,0,0,1,88.333,28.37Z"/><rect class="cls-1" x="296.408" y="15.37" width="18.792" height="79.33"/><polygon class="cls-1" points="335.451 94.7 344.599 94.7 348.064 85.5 340.025 64.505 341.464 60.747 338.586 60.747 321.211 15.37 315.2 15.37 307.139 20.758 335.451 94.7"/><polygon class="cls-1" points="344.599 94.7 331.986 85.5 358.839 15.37 364.849 15.37 372.911 20.758 344.599 94.7"/><polygon class="cls-1" points="400.108 94.975 383.255 94.7 413.631 15.37 419.909 15.472 430.588 15.37 400.108 94.975"/><polygon class="cls-1" points="445.556 94.7 457.518 77.936 433.562 15.37 415.18 15.37 445.556 94.7"/><path class="cls-1" d="M388.679,75.057l-9.4,23.849h-9.4V19.575h11.292a7.5,7.5,0,0,1,7.5,7.5Z" transform="translate(-4.875 -4.205)"/><polygon class="cls-1" points="538.152 15.37 512.513 15.37 456.034 94.7 481.478 94.975 538.152 15.37"/><polygon class="cls-1" points="456.034 15.37 481.674 15.37 538.152 94.7 512.708 94.975 456.034 15.37"/><path class="cls-2" d="M286.48,79.985a55.279,55.279,0,0,1-102.62,0,64.311,64.311,0,0,0,102.62,0Z" transform="translate(-4.875 -4.205)"/><path class="cls-2" d="M290.4,60.605a55.378,55.378,0,0,1-1.3,10.93,64.318,64.318,0,0,1-107.86,0,55.378,55.378,0,0,1-1.3-10.93,65.685,65.685,0,0,0,110.46,0Z" transform="translate(-4.875 -4.205)"/><path class="cls-2" d="M284.32,34.2a65.923,65.923,0,0,1-49.15,21.9,65.923,65.923,0,0,1-49.15-21.9,55.309,55.309,0,0,1,3.78-6.28,65.93,65.93,0,0,0,45.37,18.02,65.93,65.93,0,0,0,45.37-18.02A55.309,55.309,0,0,1,284.32,34.2Z" transform="translate(-4.875 -4.205)"/><path class="cls-2" d="M287.66,42.165a62.095,62.095,0,0,1-104.98,0q.81-2.475,1.85-4.83a65.953,65.953,0,0,0,50.64,23.61,65.953,65.953,0,0,0,50.64-23.61Q286.845,39.69,287.66,42.165Z" transform="translate(-4.875 -4.205)"/><path class="cls-2" d="M290.27,55.3v.01a65.684,65.684,0,0,1-110.2,0V55.3a56.672,56.672,0,0,1,1.04-7.31,65.678,65.678,0,0,0,108.12,0A56.672,56.672,0,0,1,290.27,55.3Z" transform="translate(-4.875 -4.205)"/><path class="cls-2" d="M287.66,42.165a62.095,62.095,0,0,1-104.98,0q.81-2.475,1.85-4.83a65.953,65.953,0,0,0,50.64,23.61,65.953,65.953,0,0,0,50.64-23.61Q286.845,39.69,287.66,42.165Z" transform="translate(-4.875 -4.205)"/><path class="cls-2" d="M284.32,34.2a65.923,65.923,0,0,1-49.15,21.9,65.923,65.923,0,0,1-49.15-21.9,55.309,55.309,0,0,1,3.78-6.28,65.93,65.93,0,0,0,45.37,18.02,65.93,65.93,0,0,0,45.37-18.02A55.309,55.309,0,0,1,284.32,34.2Z" transform="translate(-4.875 -4.205)"/><path class="cls-2" d="M290.27,55.3v.01a65.684,65.684,0,0,1-110.2,0V55.3a56.672,56.672,0,0,1,1.04-7.31,65.678,65.678,0,0,0,108.12,0A56.672,56.672,0,0,1,290.27,55.3Z" transform="translate(-4.875 -4.205)"/><path class="cls-2" d="M290.4,60.605a55.378,55.378,0,0,1-1.3,10.93,64.318,64.318,0,0,1-107.86,0,55.378,55.378,0,0,1-1.3-10.93,65.685,65.685,0,0,0,110.46,0Z" transform="translate(-4.875 -4.205)"/><path class="cls-2" d="M272.94,19.135a63.108,63.108,0,0,1-37.77,12.48,63.176,63.176,0,0,1-37.793-12.48s-3.577,3.61-5.177,5.59a63.159,63.159,0,0,0,42.97,16.79,63.159,63.159,0,0,0,42.97-16.79,54.977,54.977,0,0,0-5.2-5.59" transform="translate(-4.875 -4.205)"/><path class="cls-2" d="M270.02,16.585a63.107,63.107,0,0,1-34.85,10.43,63.107,63.107,0,0,1-34.85-10.43,54.8,54.8,0,0,1,8.75-5.83h.01a63.106,63.106,0,0,0,26.09,5.6,63.106,63.106,0,0,0,26.09-5.6h0a54.892,54.892,0,0,1,8.76,5.83" transform="translate(-4.875 -4.205)"/><path class="cls-2" d="M235.17,4.205a55.089,55.089,0,0,1,21.6,4.38,63.082,63.082,0,0,1-21.6,3.78,63.082,63.082,0,0,1-21.6-3.78A55.089,55.089,0,0,1,235.17,4.205Z" transform="translate(-4.875 -4.205)"/></svg>