<svg id="logo" xmlns="http://www.w3.org/2000/svg" viewBox="0 0 534.684 102.418"><defs><style>.cls-1{fill:#d23039;}</style></defs><title>leica-ts03-r500-5</title><path class="cls-1" d="M140.482,36.62a5.533,5.533,0,0,1,.257,5.6c-1.909,3.433-6.228,4.193-9.8,3.944-2.54-.257-5.082-1.146-6.612-3.31a6.049,6.049,0,0,1,.131-6.357c2.162-2.8,5.343-3.818,9.159-3.434,2.543.635,5.211,1.27,6.863,3.56" transform="translate(-6.693 -8.093)"/><path class="cls-1" d="M203.437,57.984a11.673,11.673,0,0,0-6.1,5.725c-1.53,4.7-4.2,9.791-2.291,15.006a4.471,4.471,0,0,0,4.194,1.907,10.131,10.131,0,0,0,6.618-6.231c1.142-4.58,4.327-9.156,2.535-14.242a4.818,4.818,0,0,0-4.952-2.165M91.781,56.84c-3.691,2.8-4.964,7.381-6.365,11.571A13.613,13.613,0,0,0,94.7,66.758a9.022,9.022,0,0,0,3.69-8.774c-1.021-2.671-4.582-1.907-6.609-1.144Zm17.29.891c1.277,2.922.127,6.358-1.4,8.774-5.339,6.234-14.621,7.379-23.144,6.616a5.426,5.426,0,0,0,1.15,4.83c4.07,3.309,10.3,2.289,15.134,1.148a45.146,45.146,0,0,0,14.111-6.237l5.849-20.092c5.09-.253,10.694-.125,16.033-.125-2.045,7.5-4.2,15.136-6.236,22.634a4.675,4.675,0,0,0,.632,2.672c2.293,2.161,5.47.381,7.632-.632a17.248,17.248,0,0,0,3.946-2.8c-.512-8.4,5.082-15.259,11.7-19.206,6.36-3.685,16.406-4.958,22.89-.763a55.063,55.063,0,0,1-1.779,6.615c-2.294-2.036-5.34-4.073-8.52-2.668-4.827,2.156-6.36,7.5-7.248,12.335-.513,3.052-.64,6.991,2.292,8.647,5.98,2.417,11.439-1.786,15.634-5.466.134-9.163,6.367-16.407,14.246-20.223,5.216-2.162,12.339-3.306,17.3.253a14.141,14.141,0,0,1,2.284,2.546l1.151-3.559c4.829-.13,9.791,0,14.369.125L220.6,76.171a3.633,3.633,0,0,0,.761,2.544c2.675,2.034,5.978.127,8.4-1.143a16.009,16.009,0,0,1,1.267,4.83c-5.714,3.816-13.726,8.267-21.237,4.707a9.944,9.944,0,0,1-3.81-4.451c-4.962,4.7-11.958,6.864-18.573,4.7a16.051,16.051,0,0,1-8.264-7.632c-5.716,4.833-12.338,8.525-20.221,8.271l-.128.122c-5.723-.5-11.442-3.052-14.113-8.011-6.49,5.215-14.243,8.777-22.894,7.507-3.307-.769-6.739-3.944-7.251-7.507.132-.125-.128-.253-.248-.382-11.319,5.978-26.965,11.958-39.554,4.583-3.812-2.546-6.743-6.49-6.872-11.322,0-8.391,6.492-16.274,13.869-19.076,7.755-2.926,19.457-4.2,26.068,1.785l1.27,2.031Z" transform="translate(-6.693 -8.093)"/><path class="cls-1" d="M31.37,88.889c-4.961-1.4-10.814-4.195-15.9-1.527a3.824,3.824,0,0,0-1.78,2.925c0,1.4,1.4,2.416,2.415,3.053,5.853,2.415,12.211-.381,16.157-4.072l-.892-.379M81.984,15c-3.56.257-6.1,3.435-7.76,6.106-4.317,8.391-6.482,17.551-8.64,26.836,9.281-2.417,17.8-9.156,21.358-18.445,1.655-3.94,2.672-9.92-.758-13.221-1.147-1.276-2.67-1.15-4.2-1.276Zm11.953.385c3.183,6.485.381,13.99-2.412,19.713A38.656,38.656,0,0,1,64.054,53.915C60.5,65.109,58.074,76.681,51.468,86.343,71.552,92.58,92.162,97.157,114.035,98.68c26.327,1.911,52.9,1.147,79.486-.509a309.27,309.27,0,0,0,39.544-6.611l1.275,4.959-.5.382c-31.924,8.267-65.746,13.479-100.091,13.61v-.131c-23.654.762-45.779-4.324-67.269-10.045-7-2.036-13.741-4.451-20.613-6.866-8.9,6.487-22,10.169-32.8,4.955-3.432-1.78-5.98-4.7-6.356-8.644a8.391,8.391,0,0,1,3.687-7.248c7.632-4.709,18.061-2.038,26.073-.13,1.521-1.142,1.649-3.3,2.536-4.83A166.676,166.676,0,0,0,46.25,54.55C41.67,54.3,37.6,52.9,33.532,51.5a14.7,14.7,0,0,1,1.65-4.451c3.816.892,8.012,2.162,12.34,2.034C51.6,35.474,53.75,19.455,67.993,11.949c6.114-3.944,15.136-5.593,21.621-1.4a15.574,15.574,0,0,1,4.323,4.836Z" transform="translate(-6.693 -8.093)"/><path class="cls-1" d="M282.647,57.964c.892-3.936.985-7.387-3.685-7.387-5.5,0-7.081,7.446-8.83,15.65-2.8,13.181-2.008,15.524,3.013,15.524a15.5,15.5,0,0,0,4.558-.822l1.982-9.362h-4.777l1.361-6.446h13.595L285.326,86.47a85.852,85.852,0,0,1-12.19,1.4c-14.836,0-15.225-6.123-11.825-22.112,2.271-10.673,5.09-21.5,19.512-21.5,8.641,0,12.975,4.851,10.56,13.7h-8.736" transform="translate(-6.693 -8.093)"/><path class="cls-1" d="M318.655,73.722c2.288-9.442,2.593-16.622-8.47-16.622-10.834,0-13.465,6.892-15.175,14.928-1.954,9.216-1.94,15.71,8.669,15.71a14.689,14.689,0,0,0,9.27-2.867,13.462,13.462,0,0,0,4.779-7.653h-8.334c-.519,2.446-1.69,5.251-4.6,5.251-3.6,0-2.593-5.251-1.861-8.747h15.726M303.912,69.1c.536-2.5,1.414-6.928,5.2-6.928,3.889,0,2.915,4.074,2.31,6.928Z" transform="translate(-6.693 -8.093)"/><path class="cls-1" d="M332.885,87.738c10.6,0,13.373-6.49,15.316-15.695,1.717-8.043,2.023-14.935-8.812-14.935S325.932,64,324.226,72.043c-1.969,9.2-1.942,15.695,8.659,15.695M334,82.469c-3.027,0-3.372-1.923-1.471-10.892,1.3-6.116,2.248-9.2,5.741-9.2s3.116,3.089,1.826,9.2c-1.911,8.969-3.071,10.892-6.1,10.892Z" transform="translate(-6.693 -8.093)"/><path class="cls-1" d="M359.323,77.7a8.274,8.274,0,0,0-.34,3.555c.256.933,1.031,1.395,2.669,1.395a3.7,3.7,0,0,0,3.664-3.029c1.331-6.255-13.437-4.853-11.452-14.222,1.36-6.374,8.082-8.3,13.375-8.3,5.593,0,10.116,2.681,8.292,9.051h-8.07c.431-2.05.466-3.268-.01-3.791a2.277,2.277,0,0,0-1.94-.647c-1.8,0-3.041,1.17-3.462,3.153-.989,4.675,13.54,4.445,11.521,13.881-1.091,5.132-6.119,8.989-12.947,8.989-7.175,0-11.583-1.813-9.37-10.04h8.07" transform="translate(-6.693 -8.093)"/><polyline class="cls-1" points="375.33 79.326 373.642 49.596 381.827 49.596 381.623 70.332 381.735 70.332 390.588 49.596 398.538 49.596 378.499 90.25 369.85 90.25 375.33 79.326"/><path class="cls-1" d="M411.2,77.7a8.366,8.366,0,0,0-.352,3.555c.266.933,1.035,1.395,2.677,1.395a3.709,3.709,0,0,0,3.671-3.029c1.327-6.255-13.456-4.853-11.46-14.222,1.358-6.374,8.088-8.3,13.376-8.3,5.6,0,10.113,2.681,8.293,9.051h-8.074c.436-2.05.476-3.268-.013-3.791a2.253,2.253,0,0,0-1.929-.647c-1.811,0-3.046,1.17-3.47,3.153-.989,4.675,13.533,4.445,11.528,13.881-1.1,5.132-6.129,8.989-12.944,8.989-7.186,0-11.594-1.813-9.379-10.04H411.2" transform="translate(-6.693 -8.093)"/><path class="cls-1" d="M431.614,57.689h3.318l1-4.671,8.992-3.687-1.764,8.358h4.253l-1.082,5.086h-4.261l-3.337,15.7c-.468,2.217-.831,3.668,1.843,3.668a5.84,5.84,0,0,0,1.494-.122l-1.08,5.1a35.533,35.533,0,0,1-4.324.292c-7.108,0-7.04-4.742-6.654-6.549l3.847-18.086h-3.334l1.086-5.086" transform="translate(-6.693 -8.093)"/><path class="cls-1" d="M471.105,73.722c2.3-9.442,2.615-16.622-8.449-16.622-10.838,0-13.472,6.892-15.172,14.928-1.958,9.216-1.95,15.71,8.655,15.71a14.731,14.731,0,0,0,9.28-2.867,13.442,13.442,0,0,0,4.775-7.653h-8.331c-.518,2.446-1.7,5.251-4.6,5.251-3.615,0-2.6-5.251-1.866-8.747h15.708M456.377,69.1c.531-2.5,1.409-6.928,5.2-6.928,3.893,0,2.91,4.074,2.31,6.928Z" transform="translate(-6.693 -8.093)"/><path class="cls-1" d="M487.318,60.667h.113a9.252,9.252,0,0,1,7.722-3.567c2.928,0,4.96,1.4,5.807,3.745a11,11,0,0,1,8.457-3.745c3.908,0,6.851,2.337,5.969,6.424l-5.012,23.631h-8.2l4.3-20.309c.562-2.62.532-4.67-2.106-4.67s-3.535,2.05-4.085,4.67l-4.319,20.309H487.88L492.2,66.846c.558-2.62.527-4.658-2.108-4.658s-3.537,2.038-4.1,4.658l-4.3,20.309h-8.219l6.267-29.466h8.21l-.634,2.978" transform="translate(-6.693 -8.093)"/><path class="cls-1" d="M524.764,77.7a8.324,8.324,0,0,0-.354,3.555c.264.933,1.034,1.395,2.666,1.395a3.713,3.713,0,0,0,3.675-3.029c1.321-6.255-13.434-4.853-11.454-14.222,1.36-6.374,8.078-8.3,13.381-8.3,5.579,0,10.11,2.681,8.292,9.051H532.9c.428-2.05.467-3.268-.023-3.791a2.266,2.266,0,0,0-1.935-.647c-1.8,0-3.038,1.17-3.458,3.153-1,4.675,13.537,4.445,11.532,13.881-1.107,5.132-6.139,8.989-12.962,8.989-7.184,0-11.586-1.813-9.377-10.04h8.084" transform="translate(-6.693 -8.093)"/></svg>