<svg id="logo" xmlns="http://www.w3.org/2000/svg" viewBox="0 0 410.717 94.642"><defs><style>.cls-1{fill:#1a1a1a;}</style></defs><title>nikon-npl-322-5-1</title><path class="cls-1" d="M79.294,83.058l12.772-67.4h16.908l8.889,25.737a230.21,230.21,0,0,1,6.15,23l.259-.032a171.45,171.45,0,0,1,3.1-24.169L132,15.653h13.464L132.689,83.058H117.775l-9.39-26.869a216.316,216.316,0,0,1-6.582-23.5l-.335.032c-.73,6.579-2.328,16.1-4.331,26.721L92.7,83.058Z"/><path class="cls-1" d="M145.285,83.058l9.3-48.95h14.4l-9.3,48.95Zm11.367-62.016a8.082,8.082,0,0,1,8.26-8.151c4.236,0,7.232,2.786,7.232,7.087-.032,5.122-3.925,8.106-8.5,8.106A6.665,6.665,0,0,1,156.652,21.042Z"/><path class="cls-1" d="M171.791,83.058l13.446-71.005h14.32l-8.08,42.466h.2c1.509-1.891,3.025-3.81,4.4-5.521l12.53-14.89h17.752L205.539,54.292l13.61,28.766H203.08l-8.6-20.945-5.392,5.192L186.1,83.058Z"/><path class="cls-1" d="M274.042,53.183c0,17.843-12.277,30.974-29.213,30.974-12.452,0-20.762-8.051-20.762-20.237,0-16.919,11.848-30.912,29.216-30.912C266.437,33.008,274.042,42.009,274.042,53.183ZM238.97,63.629c0,5.726,2.855,9.541,7.88,9.541,7.815,0,12.289-11.552,12.289-19.87,0-4.551-1.975-9.3-7.7-9.3C243.135,44,238.95,56.057,238.97,63.629Z"/><path class="cls-1" d="M278.285,83.058,284.5,50.051c1.231-6.2,1.988-11.556,2.661-15.943h12.718l-.918,8.123h.2c4.595-6.366,10.626-9.223,17.111-9.223,8,0,12.557,4.908,12.557,13.392a56.651,56.651,0,0,1-.835,8.22l-5.41,28.438h-14.4l5.1-27.077a32.013,32.013,0,0,0,.548-5.482c0-3.438-1.177-5.88-4.874-5.88-4.694,0-10.163,5.893-12.188,16.7l-4.09,21.743Z"/></svg>