<svg id="logo" xmlns="http://www.w3.org/2000/svg" viewBox="0 0 432.906 113.755"><defs><style>.cls-1{fill:#0066ab;fill-rule:evenodd;}</style></defs><title>sokkia-ix-505-5-1</title><path class="cls-1" d="M78.716,85.658a12.657,12.657,0,0,1-2.322,0,19.463,19.463,0,0,1-2.04-.069q-.951-.106-1.9-.211c-.633-.142-1.266-.211-1.97-.352a10.109,10.109,0,0,1-1.547-.282,6.649,6.649,0,0,1-1.268-.281c-.422-.141-.844-.211-1.2-.352-.423-.141-.774-.282-1.126-.423-.281-.14-.633-.28-1.055-.491l-1.056-.635a11.113,11.113,0,0,1-1.266-.7,13.762,13.762,0,0,0-1.477-.844,13.22,13.22,0,0,1-.986-.915c-.211-.282-.493-.493-.7-.774a6.366,6.366,0,0,1-.633-.7,8.9,8.9,0,0,0-.845-.985,15.858,15.858,0,0,1-1.477-2.885,21.061,21.061,0,0,1-.987-3.167,18.912,18.912,0,0,1-.562-3.377c-.14-1.126-.211-2.182-.281-3.307H66.473a14.224,14.224,0,0,0,.07,1.829,4.558,4.558,0,0,0,.211,1.407c.071.352.211.7.283,1.056a6.326,6.326,0,0,0,.492.985,8.368,8.368,0,0,0,1.055,1.829,4.009,4.009,0,0,0,1.056,1.126,5.327,5.327,0,0,0,1.336.844,17.1,17.1,0,0,0,1.618.845,11.323,11.323,0,0,0,2.534.7c.844.139,1.76.211,2.6.281.844,0,1.688,0,2.533-.07.774-.072,1.548-.141,2.321-.283a17.936,17.936,0,0,0,2.252-.421,13.775,13.775,0,0,0,1.828-.634,11.348,11.348,0,0,0,1.549-.984,8.529,8.529,0,0,0,1.338-1.408,7.584,7.584,0,0,0,.914-1.477A7.994,7.994,0,0,0,91.1,68.7a23.871,23.871,0,0,0-.071-2.392,5.9,5.9,0,0,0-.421-1.69,5.3,5.3,0,0,0-.985-1.2A8.838,8.838,0,0,0,87.934,62.3c-.7-.351-1.337-.7-1.97-.985s-1.2-.563-1.83-.774c-.562-.211-1.125-.353-1.618-.492-.563-.07-1.056-.211-1.618-.281a10.992,10.992,0,0,0-1.478-.283A15.5,15.5,0,0,1,77.8,59.2c-.493-.07-1.056-.211-1.689-.281-.562-.142-1.126-.352-1.83-.493-1.547-.492-3.095-.984-4.714-1.549-1.547-.492-3.167-.984-4.714-1.547l-1.478-.845q-.633-.42-1.266-.843c-.352-.283-.775-.634-1.2-.914-.351-.353-.773-.775-1.2-1.268a11.027,11.027,0,0,1-2.18-3.166,25.009,25.009,0,0,1-1.408-3.59c-.141-.984-.211-1.968-.352-2.883a13.726,13.726,0,0,1,.071-2.956,10.46,10.46,0,0,1,.351-2.532,12.363,12.363,0,0,1,.845-2.254,10.5,10.5,0,0,1,1.266-2.11,23.143,23.143,0,0,1,1.618-2.04c.281-.352.634-.634.845-.915a10.665,10.665,0,0,1,.916-.775c.35-.21.7-.491,1.124-.7.422-.282.915-.563,1.548-.915A7.1,7.1,0,0,1,65.7,25.85a6.984,6.984,0,0,1,1.055-.492,5.255,5.255,0,0,1,1.126-.282l1.478-.492a34.356,34.356,0,0,1,3.87-.915,23.992,23.992,0,0,1,3.869-.352c1.479-.14,2.956-.14,4.363-.14,1.478.069,2.885.14,4.363.351.915.211,1.759.421,2.6.633s1.618.423,2.463.633a14.1,14.1,0,0,1,3.588,1.689,30.2,30.2,0,0,1,3.1,2.111,16.055,16.055,0,0,1,3.869,5.347c.211.563.423,1.2.635,1.83a19.38,19.38,0,0,1,.492,1.9c.07.633.14,1.267.211,1.971,0,.633.07,1.266.07,1.9l-12.1-.069q-.106-.844-.212-1.478a5.32,5.32,0,0,0-.422-1.406,9.647,9.647,0,0,0-.773-1.409,16.006,16.006,0,0,0-1.056-1.618,10.127,10.127,0,0,0-3.731-2.111A17.277,17.277,0,0,0,79.49,32.6H78.154c-.352,0-.774.07-1.2.07-.422.071-.915.141-1.406.211a9.169,9.169,0,0,0-1.691.352c-.632.211-1.194.493-1.758.7a7.965,7.965,0,0,0-1.478.845,6.051,6.051,0,0,0-1.266,1.126,8.84,8.84,0,0,0-.984,1.83c-.142.352-.213.7-.352,1.125a8.589,8.589,0,0,0-.142,1.408,4.908,4.908,0,0,0,.281,1.617,7.2,7.2,0,0,0,.845,1.9c.493.492.985.913,1.407,1.266a16.8,16.8,0,0,0,1.478.916,6.859,6.859,0,0,0,1.618.773,9.475,9.475,0,0,0,1.83.563c.351.07.7.141,1.055.21a3.508,3.508,0,0,1,.845.142,3.512,3.512,0,0,1,.845.14,3.7,3.7,0,0,1,.773.14,3.01,3.01,0,0,1,.774.142c.352.07.634.14.985.211.282.07.633.211,1.055.282a12.51,12.51,0,0,1,1.338.351c.563.071,1.125.211,1.546.282q.741.105,1.268.211c.422.07.774.14,1.126.212l1.055.21c.353.071.7.212,1.055.282.283.07.7.21,1.126.351s.844.281,1.338.423c.492.211.984.422,1.549.633.7.282,1.336.632,1.9.914s1.125.563,1.547.774c.493.282.916.563,1.267.773a10.772,10.772,0,0,1,.915.775,4.469,4.469,0,0,1,.844.774,7.762,7.762,0,0,1,.7.775,10.043,10.043,0,0,1,.633.914,10.418,10.418,0,0,1,.634.915,12.725,12.725,0,0,1,.914,1.547,5.789,5.789,0,0,1,.633,1.338,9.862,9.862,0,0,1,.492,1.547q.213.741.422,1.689a20.493,20.493,0,0,1,.353,3.519,12.469,12.469,0,0,1-.493,3.518,11.96,11.96,0,0,1-.915,2.673,13.717,13.717,0,0,1-2.393,4.152,10.335,10.335,0,0,1-1.123,1.337A11.7,11.7,0,0,1,98,80.663,17.27,17.27,0,0,1,96.1,82c-.774.422-1.477.844-2.111,1.2-.7.28-1.337.561-2.04.773a15.336,15.336,0,0,1-2.111.563c-.844.211-1.759.352-2.814.563-1.408.211-2.815.351-4.152.422s-2.744.14-4.152.14Z"/><path class="cls-1" d="M153.372,27.68a27.187,27.187,0,0,1,5.137,1.617,24.676,24.676,0,0,1,4.644,2.463,36.382,36.382,0,0,1,4.011,3.379,23.125,23.125,0,0,1,3.376,4.01A24.443,24.443,0,0,1,173,43.793a24.892,24.892,0,0,1,1.618,5.066,27.323,27.323,0,0,1,0,11.046A24.881,24.881,0,0,1,173,64.972a20.827,20.827,0,0,1-2.463,4.644,26.647,26.647,0,0,1-3.376,4.081A35.7,35.7,0,0,1,163.153,77a29.847,29.847,0,0,1-4.644,2.535,33.65,33.65,0,0,1-5.137,1.618,28.007,28.007,0,0,1-5.489.492,29.02,29.02,0,0,1-5.488-.492,30.475,30.475,0,0,1-5.066-1.618A24.507,24.507,0,0,1,132.685,77,31.032,31.032,0,0,1,128.6,73.7a31.126,31.126,0,0,1-3.307-4.081,26.166,26.166,0,0,1-4.08-9.711,24.293,24.293,0,0,1-.563-5.487,24.507,24.507,0,0,1,.563-5.559,24.782,24.782,0,0,1,1.548-5.066,29.906,29.906,0,0,1,2.532-4.644,26.436,26.436,0,0,1,3.307-4.01,31.548,31.548,0,0,1,4.082-3.379,20.951,20.951,0,0,1,4.644-2.463A24.974,24.974,0,0,1,142.4,27.68a24.193,24.193,0,0,1,5.488-.563,23.393,23.393,0,0,1,5.489.563Zm-13.65-12.666a44.78,44.78,0,0,0-7.529,2.392,42.918,42.918,0,0,0-6.827,3.73,40.508,40.508,0,0,0-5.98,4.925,44.779,44.779,0,0,0-4.925,5.91,40.711,40.711,0,0,0-3.729,6.9,42.556,42.556,0,0,0-2.322,7.53,38,38,0,0,0-.845,8.09,38.492,38.492,0,0,0,.845,8.092,44.463,44.463,0,0,0,2.322,7.53,42.8,42.8,0,0,0,3.729,6.824A41.328,41.328,0,0,0,125.366,87.77a42.535,42.535,0,0,0,6.827,3.659,39.121,39.121,0,0,0,7.529,2.392,39.164,39.164,0,0,0,16.183,0,39.826,39.826,0,0,0,7.6-2.392,39.1,39.1,0,0,0,6.755-3.659,40.473,40.473,0,0,0,5.98-4.926,36.557,36.557,0,0,0,4.925-5.911,37.417,37.417,0,0,0,3.659-6.824,38.945,38.945,0,0,0,2.392-7.53,38.426,38.426,0,0,0,.845-8.092,37.939,37.939,0,0,0-.845-8.09,37.446,37.446,0,0,0-2.392-7.53,35.9,35.9,0,0,0-3.659-6.9,39.937,39.937,0,0,0-4.925-5.91,40.4,40.4,0,0,0-5.98-4.925,39.414,39.414,0,0,0-6.755-3.73,45.6,45.6,0,0,0-7.6-2.392,42.682,42.682,0,0,0-16.183,0Z"/><polygon class="cls-1" points="206.285 83.758 192.917 83.758 192.917 25.287 206.215 25.287 206.215 50.688 225.635 25.147 240.693 25.147 219.724 51.462 241.818 83.758 226.48 83.758 206.215 52.659 206.285 83.758 206.285 83.758"/><polygon class="cls-1" points="259.34 83.758 245.901 83.758 245.901 25.287 259.198 25.287 259.198 50.688 278.689 25.147 293.747 25.147 272.709 51.462 294.802 83.758 279.464 83.758 259.269 52.659 259.34 83.758 259.34 83.758"/><polygon class="cls-1" points="298.954 25.216 312.323 25.216 312.323 83.758 298.954 83.758 298.954 25.216 298.954 25.216"/><path class="cls-1" d="M329.632,83.688H315.56l23.22-58.541h16.464l23.643,58.541-13.933.07-18.012-47.7H346.8L329.632,83.688Z"/></svg>