<svg id="logo" xmlns="http://www.w3.org/2000/svg" viewBox="0 0 504.371 88.075"><defs><style>.cls-1{fill:#127bca;}.cls-2{fill:#231f20;}</style></defs><title>topcon</title><path class="cls-1" d="M42.109,43.4C62.418,20.673,86.625,9.6,95.358,18.14c5.409,5.252,4.114,17.325-2.474,31.207,1.559-2.006,3.226-3.977,4.969-5.949C118.161,20.673,142.368,9.6,151.1,18.14c5.848,5.691,3.782,19.567-4.249,34.77L30.883,58.251A130.409,130.409,0,0,1,42.109,43.4" transform="translate(-18.61 -15.264)"/><path class="cls-1" d="M77.777,100.389C72.38,95.15,73.558,83.371,80,69.8c-1.573,1.983-3.207,3.916-4.912,5.873C54.778,98.4,30.726,108.928,22.034,100.389c-6.628-6.43-3.353-22.725,7.405-40.111l.039.077,109.851,4.718a129.693,129.693,0,0,1-8.5,10.6c-15.561,17.412-33.32,27.663-44.685,27.663-3.465,0-6.337-.953-8.368-2.95" transform="translate(-18.61 -15.264)"/><polyline class="cls-2" points="171.303 73.958 171.303 22.544 151.428 22.544 151.428 12.784 205.574 12.784 205.574 22.371 186.86 22.371 186.86 73.958 171.303 73.958"/><path class="cls-2" d="M223.105,59.968c0-16.868,12.751-30.5,29.539-30.586h.161c16.315.093,29.484,13.718,29.484,30.586S269.03,90.555,252.644,90.555c-16.333,0-29.539-13.716-29.539-30.587Zm15.275,0c0,12,6.363,21.737,14.264,21.737,7.953,0,14.317-9.734,14.317-21.737,0-11.963-6.32-21.62-14.243-21.682-8.593.062-14.338,9.719-14.338,21.682" transform="translate(-18.61 -15.264)"/><path class="cls-2" d="M396.612,59.891a30.51,30.51,0,0,1,30.814-30.615h.168a30.589,30.589,0,1,1-30.982,30.615Zm30.982-21.663c-9,0-15.076,9.671-15.076,21.663s6.681,21.717,14.908,21.717,14.912-9.726,14.912-21.717c0-11.911-6.591-21.585-14.744-21.718v.055" transform="translate(-18.61 -15.264)"/><path class="cls-2" d="M291.284,89.337V28.163h26.24c29.179,0,30.729,46.806-.11,46.924H308v14.25ZM308,48.439v17.9h4.321c16.72,0,17-29.716,0-29.716H308V48.439" transform="translate(-18.61 -15.264)"/><path class="cls-2" d="M379.535,90.394c-17.294,0-31.27-13.7-31.27-30.637,0-16.879,13.976-30.527,31.27-30.527,7.1,0,13.916,1.115,19.159,4.959L394.861,42.1a17.994,17.994,0,0,0-11.549-4.738c-10.311,0-18.764,10.087-18.764,22.507,0,12.368,8.453,22.4,18.764,22.4,4.338,0,10.028-2.06,11.549-5.124V88.113c-3.924,2.128-8.17,2.291-12.815,2.291-.818,0-1.659-.01-2.511-.01" transform="translate(-18.61 -15.264)"/><path class="cls-2" d="M505.044,89.28,492.365,44.907c-1.44-5.037-2.215-7.761-5.868-7.761h-7.974V89.28l-15.556-.119V28.111h25.245c9.911-.118,15.666,1.794,19.6,11.992l15.172,49.176H505.044" transform="translate(-18.61 -15.264)"/></svg>