<svg xmlns="http://www.w3.org/2000/svg" xmlns:xlink="http://www.w3.org/1999/xlink" viewBox="0 0 439.995 367.003"><defs><style>.cls-1{fill:url(#Безымянный_градиент_10);}.cls-2{fill:#1a1a1a;}.cls-10,.cls-11,.cls-12,.cls-13,.cls-14,.cls-15,.cls-16,.cls-17,.cls-18,.cls-19,.cls-20,.cls-21,.cls-22,.cls-23,.cls-24,.cls-25,.cls-26,.cls-27,.cls-28,.cls-3,.cls-30,.cls-31,.cls-4,.cls-9{stroke:#1a1a1a;}.cls-10,.cls-11,.cls-12,.cls-13,.cls-14,.cls-15,.cls-16,.cls-17,.cls-18,.cls-19,.cls-20,.cls-21,.cls-22,.cls-23,.cls-24,.cls-25,.cls-26,.cls-27,.cls-28,.cls-29,.cls-3,.cls-30,.cls-31,.cls-4,.cls-9{stroke-miterlimit:10;}.cls-20,.cls-23,.cls-24,.cls-25,.cls-26,.cls-28,.cls-29,.cls-3,.cls-30,.cls-31{stroke-width:0.75px;}.cls-3{fill:url(#Безымянный_градиент_278);}.cls-4{fill:url(#Безымянный_градиент_175);}.cls-5{fill:url(#Безымянный_градиент_67);}.cls-6{fill:url(#Безымянный_градиент_43);}.cls-7{fill:url(#Безымянный_градиент_67-2);}.cls-8{fill:url(#Безымянный_градиент_43-2);}.cls-9{fill:url(#Безымянный_градиент_24);}.cls-10{fill:url(#Безымянный_градиент_7);}.cls-11{fill:url(#Безымянный_градиент_118);}.cls-12{fill:url(#Безымянный_градиент_124);}.cls-13{fill:url(#Безымянный_градиент_134);}.cls-14{fill:url(#Безымянный_градиент_118-2);}.cls-15{fill:url(#Безымянный_градиент_124-2);}.cls-16{fill:url(#Безымянный_градиент_134-2);}.cls-17{fill:url(#Безымянный_градиент_148);}.cls-18{fill:url(#Безымянный_градиент_148-2);}.cls-19{fill:url(#Безымянный_градиент_168);}.cls-20{fill:url(#Безымянный_градиент_175-2);}.cls-21{fill:url(#Безымянный_градиент_175-3);}.cls-22{fill:url(#Безымянный_градиент_175-4);}.cls-23{fill:#4d4d4d;}.cls-24{fill:url(#Безымянный_градиент_211);}.cls-25{fill:url(#Безымянный_градиент_250);}.cls-26{fill:url(#Безымянный_градиент_183);}.cls-27{fill:url(#Безымянный_градиент_192);}.cls-28{fill:#ccc;}.cls-29{fill:none;stroke:#f2f2f2;}.cls-30{fill:url(#Безымянный_градиент_278-2);}.cls-31{fill:url(#Безымянный_градиент_278-3);}</style><linearGradient id="Безымянный_градиент_10" x1="170.233" y1="210.729" x2="257.083" y2="210.729" gradientUnits="userSpaceOnUse"><stop offset="0" stop-color="#4d4d4d"/><stop offset="0.611" stop-color="#f9f9f8"/><stop offset="1" stop-color="#4d4d4d"/></linearGradient><linearGradient id="Безымянный_градиент_278" x1="77.356" y1="171.427" x2="343.62" y2="171.427" gradientUnits="userSpaceOnUse"><stop offset="0" stop-color="#333"/><stop offset="0.401" stop-color="#ccc"/><stop offset="0.617" stop-color="#e6e6e6"/><stop offset="0.858" stop-color="#999"/><stop offset="1" stop-color="#4d4d4d"/></linearGradient><linearGradient id="Безымянный_градиент_175" x1="301.054" y1="140.588" x2="350.978" y2="140.588" gradientUnits="userSpaceOnUse"><stop offset="0" stop-color="#999"/><stop offset="0.175" stop-color="#333"/><stop offset="0.848" stop-color="#b3b3b3"/><stop offset="0.986" stop-color="#666"/></linearGradient><radialGradient id="Безымянный_градиент_67" cx="329.055" cy="174.407" r="33.651" gradientUnits="userSpaceOnUse"><stop offset="0.004" stop-color="#666"/><stop offset="1" stop-color="#1a1a1a"/></radialGradient><radialGradient id="Безымянный_градиент_43" cx="356.585" cy="271.433" r="33.651" gradientUnits="userSpaceOnUse"><stop offset="0.652" stop-color="gray"/><stop offset="0.833" stop-color="#f9f9f8"/><stop offset="0.971" stop-color="#333"/></radialGradient><radialGradient id="Безымянный_градиент_67-2" cx="84.356" cy="174.407" r="33.651" xlink:href="#Безымянный_градиент_67"/><radialGradient id="Безымянный_градиент_43-2" cx="111.887" cy="271.433" r="33.651" xlink:href="#Безымянный_градиент_43"/><linearGradient id="Безымянный_градиент_24" x1="88.747" y1="267.531" x2="338.569" y2="267.531" gradientUnits="userSpaceOnUse"><stop offset="0.004" stop-color="#b3b3b3"/><stop offset="0.281" stop-color="#4d4d4d"/><stop offset="0.553" stop-color="#ccc"/><stop offset="0.85" stop-color="#4d4d4d"/><stop offset="1" stop-color="#e6e6e6"/></linearGradient><radialGradient id="Безымянный_градиент_7" cx="240.7" cy="331.189" r="88.68" gradientUnits="userSpaceOnUse"><stop offset="0.004" stop-color="#b3b3b3"/><stop offset="1" stop-color="#4d4d4d"/></radialGradient><linearGradient id="Безымянный_градиент_118" x1="278.866" y1="303.107" x2="317.356" y2="303.107" gradientUnits="userSpaceOnUse"><stop offset="0.107" stop-color="#999"/><stop offset="0.553" stop-color="#333"/><stop offset="0.914" stop-color="#ccc"/></linearGradient><linearGradient id="Безымянный_градиент_124" x1="296.409" y1="413.792" x2="355.602" y2="413.792" gradientUnits="userSpaceOnUse"><stop offset="0.107" stop-color="#999"/><stop offset="0.372" stop-color="#333"/><stop offset="0.741" stop-color="#ccc"/><stop offset="0.94" stop-color="#666"/></linearGradient><linearGradient id="Безымянный_градиент_134" x1="251.017" y1="336.257" x2="349.167" y2="336.257" gradientUnits="userSpaceOnUse"><stop offset="0.041" stop-color="#999"/><stop offset="0.372" stop-color="#1a1a1a"/><stop offset="0.741" stop-color="gray"/><stop offset="0.94" stop-color="#333"/></linearGradient><linearGradient id="Безымянный_градиент_118-2" x1="105.205" y1="303.107" x2="143.696" y2="303.107" xlink:href="#Безымянный_градиент_118"/><linearGradient id="Безымянный_градиент_124-2" x1="122.749" y1="413.792" x2="181.942" y2="413.792" xlink:href="#Безымянный_градиент_124"/><linearGradient id="Безымянный_градиент_134-2" x1="77.356" y1="336.257" x2="175.507" y2="336.257" xlink:href="#Безымянный_градиент_134"/><linearGradient id="Безымянный_градиент_148" x1="120.601" y1="353.031" x2="128.3" y2="353.031" gradientUnits="userSpaceOnUse"><stop offset="0" stop-color="#999"/><stop offset="0.385" stop-color="#999"/><stop offset="0.874" stop-color="#1a1a1a"/></linearGradient><linearGradient id="Безымянный_градиент_148-2" x1="296.243" y1="353.031" x2="303.941" y2="353.031" xlink:href="#Безымянный_градиент_148"/><linearGradient id="Безымянный_градиент_168" x1="66.417" y1="362.088" x2="356.295" y2="362.088" gradientUnits="userSpaceOnUse"><stop offset="0" stop-color="#999"/><stop offset="0.175" stop-color="#333"/><stop offset="0.385" stop-color="#999"/><stop offset="0.632" stop-color="#333"/><stop offset="0.848" stop-color="#b3b3b3"/><stop offset="0.977" stop-color="#1a1a1a"/></linearGradient><linearGradient id="Безымянный_градиент_175-2" x1="65.583" y1="129.328" x2="298.111" y2="129.328" xlink:href="#Безымянный_градиент_175"/><linearGradient id="Безымянный_градиент_175-3" x1="121.318" y1="144.545" x2="138.526" y2="144.545" xlink:href="#Безымянный_градиент_175"/><linearGradient id="Безымянный_градиент_175-4" x1="257.583" y1="144.545" x2="274.79" y2="144.545" xlink:href="#Безымянный_градиент_175"/><linearGradient id="Безымянный_градиент_211" x1="237.186" y1="233" x2="237.186" y2="110" gradientUnits="userSpaceOnUse"><stop offset="0.101" stop-color="#999"/><stop offset="0.582" stop-color="#e6e6e6"/><stop offset="1" stop-color="#1a1a1a"/></linearGradient><linearGradient id="Безымянный_градиент_250" x1="440.575" y1="110" x2="440.575" y2="233" gradientUnits="userSpaceOnUse"><stop offset="0.01" stop-color="#b3b3b3"/><stop offset="0.179" stop-color="#333"/><stop offset="0.356" stop-color="#b3b3b3"/><stop offset="0.382" stop-color="#a5a5a5"/><stop offset="0.481" stop-color="#747474"/><stop offset="0.568" stop-color="#515151"/><stop offset="0.639" stop-color="#3b3b3b"/><stop offset="0.685" stop-color="#333"/><stop offset="0.729" stop-color="#3b3b3b"/><stop offset="0.795" stop-color="#4f4f4f"/><stop offset="0.876" stop-color="#717171"/><stop offset="0.967" stop-color="#a0a0a0"/><stop offset="1" stop-color="#b3b3b3"/></linearGradient><linearGradient id="Безымянный_градиент_183" x1="250.095" y1="163.653" x2="322.942" y2="163.653" gradientUnits="userSpaceOnUse"><stop offset="0.008" stop-color="#ccc"/><stop offset="1" stop-color="#333"/></linearGradient><radialGradient id="Безымянный_градиент_192" cx="235.214" cy="66.628" r="29.048" gradientUnits="userSpaceOnUse"><stop offset="0.008" stop-color="#4d4d4d"/><stop offset="1" stop-color="#333"/></radialGradient><linearGradient id="Безымянный_градиент_278-2" x1="165.658" y1="145.007" x2="227.696" y2="145.007" xlink:href="#Безымянный_градиент_278"/><linearGradient id="Безымянный_градиент_278-3" x1="156.601" y1="171.899" x2="238.111" y2="171.899" xlink:href="#Безымянный_градиент_278"/></defs><title>0003</title><g id="karkas"><rect class="cls-1" x="170.233" y="191.758" width="86.849" height="37.943"/><path class="cls-2" d="M284.113,289.283v36.943H198.264V289.283h85.849m1-1H197.264v38.943h87.849V288.283Z" transform="translate(-27.531 -97.026)"/><rect class="cls-3" x="77.356" y="148.333" width="266.264" height="46.189"/><rect class="cls-4" x="301.054" y="132.842" width="49.923" height="15.491"/><circle class="cls-5" cx="329.055" cy="174.407" r="33.651"/><path class="cls-6" d="M356.585,241.782a29.651,29.651,0,1,1-29.651,29.651,29.684,29.684,0,0,1,29.651-29.651m0-4a33.651,33.651,0,1,0,33.651,33.651,33.651,33.651,0,0,0-33.651-33.651Z" transform="translate(-27.531 -97.026)"/><circle class="cls-7" cx="84.356" cy="174.407" r="33.651"/><path class="cls-8" d="M111.887,241.782a29.651,29.651,0,1,1-29.651,29.651,29.685,29.685,0,0,1,29.651-29.651m0-4a33.651,33.651,0,1,0,33.651,33.651,33.651,33.651,0,0,0-33.651-33.651Z" transform="translate(-27.531 -97.026)"/><rect class="cls-9" x="88.747" y="242.371" width="249.822" height="50.321" rx="2.088"/><path class="cls-10" d="M241.189,342.4H117.271a1.481,1.481,0,0,1-.349-2.92l80.17-19.453a1.468,1.468,0,0,1,.349-.042h86.518a1.462,1.462,0,0,1,.349.042l80.171,19.453a1.481,1.481,0,0,1-.349,2.92H240.212" transform="translate(-27.531 -97.026)"/><rect class="cls-11" x="278.866" y="292.918" width="38.491" height="20.377"/><path class="cls-12" d="M352.33,421.264H299.681c-2.219,0-3.793-1.464-3.111-2.894l5.019-10.516a3.4,3.4,0,0,1,3.112-1.533h41.972a3.467,3.467,0,0,1,3.072,1.456l5.657,10.516C356.179,419.737,354.6,421.264,352.33,421.264Z" transform="translate(-27.531 -97.026)"/><rect class="cls-13" x="251.017" y="324.371" width="98.151" height="23.774" rx="7.642"/><rect class="cls-14" x="105.205" y="292.918" width="38.491" height="20.377"/><path class="cls-15" d="M178.669,421.264H126.021c-2.219,0-3.794-1.464-3.112-2.894l5.02-10.516a3.4,3.4,0,0,1,3.111-1.533h41.973a3.467,3.467,0,0,1,3.072,1.456l5.657,10.516C182.518,419.737,180.939,421.264,178.669,421.264Z" transform="translate(-27.531 -97.026)"/><rect class="cls-16" x="77.356" y="324.371" width="98.151" height="23.774" rx="7.642"/><path class="cls-17" d="M120.6,348.39h7.7a0,0,0,0,1,0,0v6.877a2.406,2.406,0,0,1-2.406,2.406h-2.887a2.406,2.406,0,0,1-2.406-2.406V348.39A0,0,0,0,1,120.6,348.39Z"/><path class="cls-18" d="M296.243,348.39h7.7a0,0,0,0,1,0,0v6.877a2.406,2.406,0,0,1-2.406,2.406h-2.887a2.406,2.406,0,0,1-2.406-2.406V348.39A0,0,0,0,1,296.243,348.39Z"/><rect class="cls-19" x="66.417" y="357.673" width="289.878" height="8.83" rx="2.696"/><rect class="cls-20" x="65.583" y="117.899" width="232.528" height="22.857"/><rect class="cls-21" x="121.318" y="140.756" width="17.208" height="7.577"/><rect class="cls-22" x="257.583" y="140.756" width="17.208" height="7.577"/></g><g id="truba"><rect class="cls-23" x="22.111" y="50.151" width="5.034" height="50.031"/><path class="cls-24" d="M64,124l350-14s16.585,60.434,0,123H374L64,219l-4-6-2-5-2-7-2-7-1-6V158l.66-6.358,1.7-7.472L57,136.981l1.245-5.49.906-2.321,1.585-2.208,1.755-1.754Z" transform="translate(-27.531 -97.026)"/><rect class="cls-23" x="0.375" y="52.908" width="8.321" height="43.132" rx="3.311"/><path class="cls-25" d="M414,110h42.283s24.453,50.132,0,121.679L414,233S430.585,195.83,414,110Z" transform="translate(-27.531 -97.026)"/><path class="cls-26" d="M298.523,155.14a1.859,1.859,0,0,0-1.6-1.42l-.221-.027a1.882,1.882,0,0,1-1.551-1.29,34,34,0,0,0-3.836-7.9,1.886,1.886,0,0,1-.008-2.095l.031-.045a1.887,1.887,0,0,0-.12-2.249,36.71,36.71,0,0,0-2.694-2.965,1.852,1.852,0,0,0-2.1-.331l-.2.1a1.881,1.881,0,0,1-2-.25,34.129,34.129,0,0,0-7.076-4.428,1.882,1.882,0,0,1-1.106-1.74l0-.105a1.852,1.852,0,0,0-1.223-1.794,36.367,36.367,0,0,0-4.082-1.161,1.853,1.853,0,0,0-1.969.856l-.086.14a1.889,1.889,0,0,1-1.846.874,34.4,34.4,0,0,0-8.18,0,1.888,1.888,0,0,1-1.846-.874l-.086-.14a1.855,1.855,0,0,0-1.97-.856,36.488,36.488,0,0,0-4.082,1.161,1.851,1.851,0,0,0-1.222,1.794l0,.105a1.881,1.881,0,0,1-1.106,1.74,34.149,34.149,0,0,0-7.075,4.428,1.881,1.881,0,0,1-2,.25l-.2-.1a1.854,1.854,0,0,0-2.105.331,37.086,37.086,0,0,0-2.694,2.965,1.889,1.889,0,0,0-.119,2.249l.03.045a1.886,1.886,0,0,1-.007,2.095,34,34,0,0,0-3.836,7.9,1.883,1.883,0,0,1-1.551,1.29l-.222.027a1.858,1.858,0,0,0-1.6,1.42,36.575,36.575,0,0,0-.634,3.726,1.862,1.862,0,0,0,1.125,1.91,1.859,1.859,0,0,1,1.126,1.746q-.009.354-.009.71a34.178,34.178,0,0,0,1.107,8.634,1.884,1.884,0,0,1-.6,1.936l-.15.124a1.86,1.86,0,0,0-.572,2.065q.606,1.633,1.357,3.19a1.855,1.855,0,0,0,1.978,1h0a1.887,1.887,0,0,1,1.914.9,34.333,34.333,0,0,0,6.343,7.608,1.887,1.887,0,0,1,.559,1.975l-.042.133a1.857,1.857,0,0,0,.652,2.058q1.3.951,2.682,1.789a1.854,1.854,0,0,0,2.2-.231l.02-.018a1.887,1.887,0,0,1,2.084-.286,33.909,33.909,0,0,0,9.791,2.952,1.887,1.887,0,0,1,1.571,1.363l.019.073a1.857,1.857,0,0,0,1.688,1.379c.521.025,1.045.04,1.573.04s1.052-.015,1.573-.04a1.856,1.856,0,0,0,1.687-1.379l.02-.073a1.887,1.887,0,0,1,1.571-1.363,33.909,33.909,0,0,0,9.791-2.952,1.887,1.887,0,0,1,2.084.286l.02.018a1.854,1.854,0,0,0,2.2.231q1.381-.835,2.681-1.789a1.856,1.856,0,0,0,.653-2.058l-.042-.133a1.888,1.888,0,0,1,.558-1.975,34.31,34.31,0,0,0,6.344-7.608,1.886,1.886,0,0,1,1.914-.9h0a1.855,1.855,0,0,0,1.978-1q.75-1.556,1.356-3.19a1.858,1.858,0,0,0-.572-2.065l-.149-.124a1.886,1.886,0,0,1-.6-1.936,34.133,34.133,0,0,0,1.108-8.634q0-.355-.009-.71a1.858,1.858,0,0,1,1.126-1.746,1.86,1.86,0,0,0,1.124-1.91A36.3,36.3,0,0,0,298.523,155.14ZM262.745,192.7a29.048,29.048,0,1,1,29.047-29.048A29.048,29.048,0,0,1,262.745,192.7Z" transform="translate(-27.531 -97.026)"/><circle class="cls-27" cx="235.214" cy="66.628" r="29.048"/><path class="cls-28" d="M345.111,112.756S357.34,99,370.472,98.774s40.3-1.359,40.3-1.359L411.906,110Z" transform="translate(-27.531 -97.026)"/><circle class="cls-28" cx="235.214" cy="66.628" r="5.575"/><line class="cls-29" x1="230.817" y1="69.297" x2="239.624" y2="63.966"/><rect class="cls-23" x="6.488" y="46.54" width="15.623" height="55.868" rx="3.726"/><rect class="cls-30" x="165.658" y="137.399" width="62.038" height="15.217" rx="7.608"/><rect class="cls-31" x="156.601" y="144.616" width="81.509" height="54.566"/></g></svg>