<svg id="ehkker" xmlns="http://www.w3.org/2000/svg" viewBox="0 0 550 350"><defs><style>.cls-1,.cls-2,.cls-4,.cls-5{fill:none;}.cls-1,.cls-2,.cls-3,.cls-4,.cls-5{stroke:#000;stroke-miterlimit:10;}.cls-2{stroke-dasharray:11.182 11.182;}.cls-4{stroke-dasharray:10.552 10.552;}.cls-5{stroke-dasharray:12;}.cls-6,.cls-7{font-size:31px;font-family:TimesNewRomanPS-ItalicMT, Times New Roman;font-style:italic;}.cls-7{letter-spacing:-0.018em;}</style></defs><title>ehkker</title><line class="cls-1" x1="285.5" y1="145.5" x2="284.609" y2="278.196"/><path d="M284.634,274.606l7.235-4.334.161.247-4.745,11.718q-1.392,6.132-2.785,12.263-1.309-6.15-2.62-12.3l-4.588-11.781.125-.245Z"/><line class="cls-1" x1="285.5" y1="10.5" x2="285.5" y2="16.5"/><line class="cls-2" x1="285.5" y1="27.682" x2="285.5" y2="133.909"/><line class="cls-1" x1="285.5" y1="139.5" x2="285.5" y2="145.5"/><line class="cls-1" x1="284.5" y1="293.5" x2="284.5" y2="335.5"/><circle class="cls-3" cx="64.5" cy="215.5" r="8"/><circle class="cls-3" cx="486.5" cy="215.5" r="8"/><path class="cls-1" d="M72.5,215.5H127.2"/><path d="M123.605,215.5l-4.382-7.206.246-.163,11.75,4.667,12.281,2.7-12.281,2.7-11.75,4.667-.246-.123Z"/><line class="cls-1" x1="143.5" y1="215.5" x2="478.5" y2="215.5"/><line class="cls-1" x1="236.5" y1="162.5" x2="354.5" y2="117.5"/><line class="cls-1" x1="393.5" y1="163.5" x2="337.5" y2="272.5"/><line class="cls-1" x1="393.5" y1="163.5" x2="396.155" y2="158.12"/><line class="cls-4" x1="400.825" y1="148.657" x2="426.51" y2="96.612"/><line class="cls-1" x1="428.845" y1="91.88" x2="431.5" y2="86.5"/><line class="cls-5" x1="354.5" y1="117.5" x2="431.5" y2="86.5"/><line class="cls-1" x1="348.5" y1="119.79" x2="348.5" y2="98.79"/><line class="cls-1" x1="341.5" y1="122.46" x2="341.5" y2="101.46"/><line class="cls-1" x1="334.5" y1="125.13" x2="334.5" y2="104.13"/><line class="cls-1" x1="327.5" y1="127.8" x2="327.5" y2="106.8"/><line class="cls-1" x1="320.5" y1="130.47" x2="320.5" y2="109.47"/><line class="cls-1" x1="313.5" y1="133.14" x2="313.5" y2="112.14"/><line class="cls-1" x1="306.5" y1="135.81" x2="306.5" y2="114.81"/><line class="cls-1" x1="299.5" y1="138.47" x2="299.5" y2="117.47"/><line class="cls-1" x1="292.5" y1="141.14" x2="292.5" y2="120.14"/><line class="cls-1" x1="285.5" y1="163" x2="285.5" y2="83.5"/><line class="cls-1" x1="278.5" y1="146.48" x2="278.5" y2="125.48"/><line class="cls-1" x1="271.5" y1="149.15" x2="271.5" y2="128.15"/><line class="cls-1" x1="264.5" y1="151.82" x2="264.5" y2="130.82"/><line class="cls-1" x1="257.5" y1="154.49" x2="257.5" y2="133.49"/><line class="cls-1" x1="250.5" y1="157.16" x2="250.5" y2="136.16"/><line class="cls-1" x1="243.5" y1="159.83" x2="243.5" y2="138.83"/><polyline class="cls-1" points="236.5 141.25 236.5 151.017 236.5 151.25"/><polyline class="cls-1" points="354.5 107 354.5 116.767 354.5 117"/><line class="cls-1" x1="402.99" y1="164.5" x2="392.99" y2="164.5"/><line class="cls-1" x1="409.9" y1="170.5" x2="389.9" y2="170.5"/><line class="cls-1" x1="406.82" y1="176.5" x2="386.82" y2="176.5"/><line class="cls-1" x1="403.74" y1="182.5" x2="383.74" y2="182.5"/><line class="cls-1" x1="400.66" y1="188.5" x2="380.66" y2="188.5"/><line class="cls-1" x1="397.57" y1="194.5" x2="377.57" y2="194.5"/><line class="cls-1" x1="394.49" y1="200.5" x2="374.49" y2="200.5"/><line class="cls-1" x1="391.41" y1="206.5" x2="371.41" y2="206.5"/><line class="cls-1" x1="388.33" y1="212.5" x2="368.33" y2="212.5"/><line class="cls-1" x1="385.24" y1="218.5" x2="365.24" y2="218.5"/><line class="cls-1" x1="382.16" y1="224.5" x2="362.16" y2="224.5"/><line class="cls-1" x1="379.08" y1="230.5" x2="359.08" y2="230.5"/><line class="cls-1" x1="376" y1="236.5" x2="356" y2="236.5"/><line class="cls-1" x1="372.91" y1="242.5" x2="352.91" y2="242.5"/><line class="cls-1" x1="369.83" y1="248.5" x2="349.83" y2="248.5"/><line class="cls-1" x1="366.75" y1="254.5" x2="346.75" y2="254.5"/><line class="cls-1" x1="363.67" y1="260.5" x2="343.67" y2="260.5"/><line class="cls-1" x1="360.58" y1="266.5" x2="340.58" y2="266.5"/><line class="cls-1" x1="357.5" y1="272.5" x2="347.5" y2="272.5"/><path class="cls-1" d="M173.659,199.234a112.979,112.979,0,0,1,95.574-95.574"/><path d="M174.2,195.678l-6.806-4.981-.183.231,3.648,12.1q.823,6.234,1.646,12.467,1.869-6,3.739-12.006l5.651-11.31-.1-.256Z"/><path d="M265.678,104.2,260.7,97.389l.231-.183,12.105,3.648L285.5,102.5l-12.006,3.739-11.31,5.651-.256-.1Z"/><text class="cls-6" transform="translate(168.415 129.66)">90°</text><text class="cls-7" transform="translate(57.415 200.66)">A</text><text class="cls-6" transform="translate(479.415 200.66)">B</text><text class="cls-6" transform="translate(253.415 246.66)">C</text><text class="cls-6" transform="translate(333.415 148.66)">45°</text><line class="cls-1" x1="366" y1="215" x2="329.763" y2="183.246"/><path d="M332.463,185.612l-1.453,8.308-.293-.04-5.761-11.254q-3.729-5.062-7.456-10.126l11.018,6.062L340.43,182.8l.1.254Z"/><line class="cls-1" x1="318.5" y1="173.5" x2="285.5" y2="144.5"/><path class="cls-1" d="M378,108c-1.894,16.136,10.2,30.793,27.036,32.769"/></svg>