<svg id="pi" xmlns="http://www.w3.org/2000/svg" xmlns:xlink="http://www.w3.org/1999/xlink" viewBox="0 0 500 500"><defs><style>.cls-1{fill:#fff;}.cls-2{clip-path:url(#clip-path);}.cls-3{opacity:0.5;}.cls-4{fill:#6e6e6e;}</style><clipPath id="clip-path"><rect id="SVGID" class="cls-1" x="-372" y="0.857" width="872" height="498.286"/></clipPath></defs><title>header-vychislenie-storon-treugolnikov</title><rect id="SVGID-2" data-name="SVGID" class="cls-1" x="-372" y="0.857" width="872" height="498.286"/><g class="cls-2"><g class="cls-3"><path d="M8.083,204.589a.612.612,0,1,1,.2-.843A.613.613,0,0,1,8.083,204.589Z"/><path d="M9.476,174.768a.514.514,0,1,1,.165-.708A.513.513,0,0,1,9.476,174.768Z"/><path d="M10.405,145.759a.465.465,0,1,1,.149-.64A.465.465,0,0,1,10.405,145.759Z"/><path d="M10.875,117.952a.406.406,0,1,1,.131-.559A.406.406,0,0,1,10.875,117.952Z"/><path d="M11.012,90.869a.337.337,0,1,1,.108-.464A.338.338,0,0,1,11.012,90.869Z"/><path d="M10.889,63.975a.26.26,0,1,1,.084-.359A.261.261,0,0,1,10.889,63.975Z"/><path d="M10.553,36.751a.221.221,0,1,1,.071-.3A.222.222,0,0,1,10.553,36.751Z"/><path d="M9.943,8.626A.178.178,0,1,1,10,8.381.179.179,0,0,1,9.943,8.626Z"/><path d="M6.356,233.931a.686.686,0,1,1,.221-.945A.685.685,0,0,1,6.356,233.931Z"/><path d="M19.778,229.2a.686.686,0,1,1,.221-.944A.686.686,0,0,1,19.778,229.2Z"/><path d="M21.752,199.193a.613.613,0,1,1,.2-.844A.612.612,0,0,1,21.752,199.193Z"/><path d="M23.281,169.194a.514.514,0,1,1,.166-.708A.513.513,0,0,1,23.281,169.194Z"/><path d="M24.289,140.336a.465.465,0,1,1,.15-.64A.464.464,0,0,1,24.289,140.336Z"/><path d="M24.839,112.657a.406.406,0,1,1,.13-.558A.405.405,0,0,1,24.839,112.657Z"/><path d="M25.07,85.6a.353.353,0,1,1,.113-.485A.353.353,0,0,1,25.07,85.6Z"/><path d="M25.039,58.533a.273.273,0,1,1,.087-.376A.273.273,0,0,1,25.039,58.533Z"/><path d="M24.785,30.9a.222.222,0,0,1-.234-.377.222.222,0,1,1,.234.377Z"/><path d="M24.254,2.138a.188.188,0,1,1,.06-.259A.188.188,0,0,1,24.254,2.138Z"/><path d="M4.467,262.278a.757.757,0,1,1,.243-1.042A.757.757,0,0,1,4.467,262.278Z"/><path d="M17.531,258.516a.751.751,0,1,1,.242-1.034A.751.751,0,0,1,17.531,258.516Z"/><path d="M30.177,256.259a.795.795,0,1,1,.255-1.094A.8.8,0,0,1,30.177,256.259Z"/><path d="M32.869,225.85a.713.713,0,1,1,.23-.982A.713.713,0,0,1,32.869,225.85Z"/><path d="M35.173,195.1a.65.65,0,1,1,.209-.895A.649.649,0,0,1,35.173,195.1Z"/><path d="M36.892,164.845a.547.547,0,1,1,.176-.753A.547.547,0,0,1,36.892,164.845Z"/><path d="M38.006,136a.461.461,0,1,1,.148-.635A.461.461,0,0,1,38.006,136Z"/><path d="M38.676,108.317a.406.406,0,1,1,.131-.558A.406.406,0,0,1,38.676,108.317Z"/><path d="M39.033,81.115a.361.361,0,1,1,.117-.5A.36.36,0,0,1,39.033,81.115Z"/><path d="M39.122,53.69a.273.273,0,1,1,.088-.376A.273.273,0,0,1,39.122,53.69Z"/><path d="M38.992,25.491a.234.234,0,1,1,.076-.321A.234.234,0,0,1,38.992,25.491Z"/><path d="M2.559,289.383a.826.826,0,1,1,.266-1.139A.826.826,0,0,1,2.559,289.383Z"/><path d="M15.2,286.733a.842.842,0,1,1,.271-1.16A.842.842,0,0,1,15.2,286.733Z"/><path d="M27.269,285.684a.842.842,0,1,1,.271-1.159A.841.841,0,0,1,27.269,285.684Z"/><path d="M38.793,285.9a.867.867,0,1,1,.279-1.195A.869.869,0,0,1,38.793,285.9Z"/><path d="M42.367,255.117a.794.794,0,1,1,.256-1.095A.795.795,0,0,1,42.367,255.117Z"/><path d="M45.608,223.567a.713.713,0,1,1,.229-.982A.713.713,0,0,1,45.608,223.567Z"/><path d="M48.3,192.023a.645.645,0,1,1,.208-.889A.645.645,0,0,1,48.3,192.023Z"/><path d="M50.268,161.466a.547.547,0,1,1,.176-.753A.547.547,0,0,1,50.268,161.466Z"/><path d="M51.558,132.6a.481.481,0,1,1,.155-.662A.48.48,0,0,1,51.558,132.6Z"/><path d="M52.391,104.78a.434.434,0,1,1,.14-.6A.433.433,0,0,1,52.391,104.78Z"/><path d="M52.892,77.252a.361.361,0,1,1,.116-.5A.36.36,0,0,1,52.892,77.252Z"/><path d="M53.142,49.33a.281.281,0,1,1,.09-.387A.282.282,0,0,1,53.142,49.33Z"/><path d="M53.157,20.416a.24.24,0,1,1,.077-.331A.24.24,0,0,1,53.157,20.416Z"/><path d="M.761,315.291a.958.958,0,1,1,.309-1.319A.957.957,0,0,1,.761,315.291Z"/><path d="M12.938,313.678a.958.958,0,1,1,.308-1.319A.957.957,0,0,1,12.938,313.678Z"/><path d="M24.4,313.892a.975.975,0,1,1,.313-1.342A.975.975,0,0,1,24.4,313.892Z"/><path d="M35.148,315.469a.975.975,0,1,1,.314-1.342A.974.974,0,0,1,35.148,315.469Z"/><path d="M45.223,317.983a.968.968,0,1,1,.312-1.333A.967.967,0,0,1,45.223,317.983Z"/><path d="M49.781,286.967a.867.867,0,1,1,.279-1.194A.868.868,0,0,1,49.781,286.967Z"/><path d="M54.148,254.812a.795.795,0,1,1,.255-1.094A.8.8,0,0,1,54.148,254.812Z"/><path d="M58.019,222.113a.713.713,0,1,1,.23-.981A.712.712,0,0,1,58.019,222.113Z"/><path d="M61.168,189.775a.645.645,0,1,1,.208-.888A.645.645,0,0,1,61.168,189.775Z"/><path d="M63.422,158.883a.547.547,0,1,1,.176-.754A.548.548,0,0,1,63.422,158.883Z"/><path d="M64.917,129.891a.481.481,0,1,1,.155-.662A.481.481,0,0,1,64.917,129.891Z"/><path d="M65.945,101.819a.43.43,0,1,1,.138-.592A.432.432,0,0,1,65.945,101.819Z"/><path d="M66.652,73.881a.378.378,0,1,1,.121-.52A.378.378,0,0,1,66.652,73.881Z"/><path d="M67.089,45.328a.292.292,0,1,1,.094-.4A.292.292,0,0,1,67.089,45.328Z"/><path d="M67.272,15.592a.237.237,0,1,1,.077-.327A.238.238,0,0,1,67.272,15.592Z"/><path d="M10.782,339.327a1.023,1.023,0,1,1,.329-1.408A1.023,1.023,0,0,1,10.782,339.327Z"/><path d="M21.65,340.665a1.059,1.059,0,1,1,.34-1.458A1.059,1.059,0,0,1,21.65,340.665Z"/><path d="M31.614,343.528a1.059,1.059,0,1,1,.341-1.458A1.059,1.059,0,0,1,31.614,343.528Z"/><path d="M40.735,347.447a1.058,1.058,0,1,1,.341-1.457A1.058,1.058,0,0,1,40.735,347.447Z"/><circle cx="48.542" cy="351.035" r="1.07"/><path d="M54.728,321.047a1,1,0,1,1,.323-1.381A1,1,0,0,1,54.728,321.047Z"/><path d="M60.314,288.551a.884.884,0,1,1,.284-1.217A.884.884,0,0,1,60.314,288.551Z"/><path d="M65.559,255.032a.794.794,0,1,1,.256-1.094A.795.795,0,0,1,65.559,255.032Z"/><path d="M70.151,221.262a.755.755,0,1,1,.243-1.04A.755.755,0,0,1,70.151,221.262Z"/><path d="M73.793,188.151a.671.671,0,1,1,.216-.924A.671.671,0,0,1,73.793,188.151Z"/><path d="M76.359,156.891a.547.547,0,1,1,.176-.753A.547.547,0,0,1,76.359,156.891Z"/><path d="M78.1,127.718a.491.491,0,1,1,.158-.677A.492.492,0,0,1,78.1,127.718Z"/><path d="M79.354,99.293a.43.43,0,1,1,.138-.592A.43.43,0,0,1,79.354,99.293Z"/><circle cx="80.093" cy="70.506" r="0.378" transform="translate(-6.791 132.452) rotate(-76.846)"/><path d="M80.954,41.564a.292.292,0,1,1,.094-.4A.292.292,0,0,1,80.954,41.564Z"/><path d="M81.364,10.652a.25.25,0,1,1,.08-.345A.25.25,0,0,1,81.364,10.652Z"/><path d="M8.789,363.939a1.11,1.11,0,1,1,.357-1.529A1.11,1.11,0,0,1,8.789,363.939Z"/><path d="M19.1,366.1a1.11,1.11,0,1,1,.357-1.528A1.109,1.109,0,0,1,19.1,366.1Z"/><path d="M28.34,370.037a1.121,1.121,0,1,1,.361-1.544A1.121,1.121,0,0,1,28.34,370.037Z"/><path d="M36.534,375.183a1.121,1.121,0,1,1,.361-1.544A1.121,1.121,0,0,1,36.534,375.183Z"/><path d="M43.8,381.026a1.16,1.16,0,1,1,.373-1.6A1.16,1.16,0,0,1,43.8,381.026Z"/><path d="M50.258,386.97a1.16,1.16,0,1,1,.373-1.6A1.16,1.16,0,0,1,50.258,386.97Z"/><path d="M56.861,356.524a1.07,1.07,0,1,1,.344-1.473A1.069,1.069,0,0,1,56.861,356.524Z"/><circle cx="63.215" cy="323.328" r="1.002" transform="translate(-109.334 42.679) rotate(-20.521)"/><path d="M70.468,290.263a.884.884,0,1,1,.284-1.217A.884.884,0,0,1,70.468,290.263Z"/><path d="M76.683,255.5a.824.824,0,1,1,.266-1.135A.824.824,0,0,1,76.683,255.5Z"/><path d="M82,220.679a.755.755,0,1,1,.243-1.039A.754.754,0,0,1,82,220.679Z"/><path d="M86.174,186.88a.671.671,0,1,1,.216-.924A.67.67,0,0,1,86.174,186.88Z"/><path d="M89.108,155.313a.577.577,0,1,1,.186-.795A.577.577,0,0,1,89.108,155.313Z"/><path d="M91.113,125.889a.512.512,0,1,1,.165-.7A.512.512,0,0,1,91.113,125.889Z"/><path d="M92.623,97.03a.43.43,0,1,1,.138-.592A.429.429,0,0,1,92.623,97.03Z"/><path d="M93.865,67.651a.374.374,0,1,1,.121-.516A.375.375,0,0,1,93.865,67.651Z"/><path d="M94.879,36.625a.307.307,0,1,1,.1-.422A.306.306,0,0,1,94.879,36.625Z"/><path d="M95.543,3.488a.25.25,0,1,1,.08-.345A.25.25,0,0,1,95.543,3.488Z"/><path d="M6.883,387.76a1.155,1.155,0,1,1,.371-1.591A1.156,1.156,0,0,1,6.883,387.76Z"/><path d="M16.8,390.45a1.194,1.194,0,1,1,.385-1.644A1.194,1.194,0,0,1,16.8,390.45Z"/><path d="M25.426,395.155a1.214,1.214,0,1,1,.391-1.672A1.214,1.214,0,0,1,25.426,395.155Z"/><path d="M32.8,401.255a1.214,1.214,0,1,1,.39-1.672A1.214,1.214,0,0,1,32.8,401.255Z"/><path d="M39.018,408.16a1.214,1.214,0,1,1,.39-1.672A1.214,1.214,0,0,1,39.018,408.16Z"/><path d="M44.243,415.287a1.214,1.214,0,1,1,.391-1.672A1.214,1.214,0,0,1,44.243,415.287Z"/><path d="M48.742,422.106a1.235,1.235,0,1,1,.4-1.7A1.235,1.235,0,0,1,48.742,422.106Z"/><path d="M56.164,392.551a1.16,1.16,0,1,1,.373-1.6A1.16,1.16,0,0,1,56.164,392.551Z"/><path d="M64.229,360.782a1.107,1.107,0,1,1,.356-1.525A1.107,1.107,0,0,1,64.229,360.782Z"/><path d="M72.466,327.026a1.02,1.02,0,1,1,.328-1.405A1.021,1.021,0,0,1,72.466,327.026Z"/><path d="M80.4,291.8a.915.915,0,1,1,.295-1.261A.914.914,0,0,1,80.4,291.8Z"/><path d="M87.588,255.861a.84.84,0,1,1,.271-1.157A.838.838,0,0,1,87.588,255.861Z"/><path d="M93.649,220.142a.755.755,0,1,1,.243-1.04A.754.754,0,0,1,93.649,220.142Z"/><path d="M98.37,185.772a.684.684,0,1,1,.22-.942A.684.684,0,0,1,98.37,185.772Z"/><path d="M101.663,153.893a.577.577,0,1,1,.186-.795A.577.577,0,0,1,101.663,153.893Z"/><path d="M104.025,123.889a.513.513,0,1,1,.165-.706A.513.513,0,0,1,104.025,123.889Z"/><path d="M106,93.61a.449.449,0,1,1,.144-.618A.449.449,0,0,1,106,93.61Z"/><path d="M107.675,62.322a.392.392,0,1,1,.126-.54A.391.391,0,0,1,107.675,62.322Z"/><path d="M108.992,29.392a.306.306,0,1,1,.1-.422A.307.307,0,0,1,108.992,29.392Z"/><path d="M5.034,411.241a1.278,1.278,0,1,1,.411-1.761A1.278,1.278,0,0,1,5.034,411.241Z"/><path d="M14.688,414.028a1.321,1.321,0,1,1,.425-1.819A1.322,1.322,0,0,1,14.688,414.028Z"/><path d="M22.862,419.089a1.321,1.321,0,1,1,.425-1.819A1.322,1.322,0,0,1,22.862,419.089Z"/><path d="M29.6,425.813a1.343,1.343,0,1,1,.432-1.849A1.342,1.342,0,0,1,29.6,425.813Z"/><path d="M34.964,433.506a1.342,1.342,0,1,1,.432-1.848A1.342,1.342,0,0,1,34.964,433.506Z"/><path d="M39.117,441.554a1.342,1.342,0,1,1,.432-1.848A1.342,1.342,0,0,1,39.117,441.554Z"/><path d="M42.32,449.364a1.342,1.342,0,1,1,.432-1.848A1.342,1.342,0,0,1,42.32,449.364Z"/><circle cx="44.219" cy="455.26" r="1.386" transform="translate(-409.162 394.735) rotate(-76.848)"/><path d="M52.851,428.119a1.276,1.276,0,1,1,.411-1.757A1.275,1.275,0,0,1,52.851,428.119Z"/><path d="M61.835,397.326a1.179,1.179,0,1,1,.38-1.625A1.18,1.18,0,0,1,61.835,397.326Z"/><path d="M71.438,364.233a1.107,1.107,0,1,1,.356-1.524A1.107,1.107,0,0,1,71.438,364.233Z"/><path d="M81.092,329.178a1.021,1.021,0,1,1,.328-1.4A1.02,1.02,0,0,1,81.092,329.178Z"/><path d="M90.235,292.755a.915.915,0,1,1,.3-1.26A.916.916,0,0,1,90.235,292.755Z"/><path d="M98.393,255.834a.84.84,0,1,1,.271-1.157A.839.839,0,0,1,98.393,255.834Z"/><path d="M105.181,219.4a.755.755,0,1,1,.242-1.04A.755.755,0,0,1,105.181,219.4Z"/><path d="M110.507,184.3a.684.684,0,1,1,.22-.942A.685.685,0,0,1,110.507,184.3Z"/><path d="M114.4,151.234a.577.577,0,1,1,.186-.8A.577.577,0,0,1,114.4,151.234Z"/><path d="M117.3,119.727a.513.513,0,1,1,.165-.706A.513.513,0,0,1,117.3,119.727Z"/><path d="M119.712,87.911a.45.45,0,1,1,.144-.619A.449.449,0,0,1,119.712,87.911Z"/><path d="M121.727,55.073a.4.4,0,1,1,.129-.552A.4.4,0,0,1,121.727,55.073Z"/><path d="M123.256,20.6a.306.306,0,1,1,.1-.422A.306.306,0,0,1,123.256,20.6Z"/><path d="M3.07,434.631a1.372,1.372,0,1,1,.441-1.889A1.372,1.372,0,0,1,3.07,434.631Z"/><path d="M12.625,437.042a1.372,1.372,0,1,1,.441-1.89A1.372,1.372,0,0,1,12.625,437.042Z"/><path d="M20.555,442.053A1.371,1.371,0,1,1,21,440.164,1.372,1.372,0,0,1,20.555,442.053Z"/><path d="M26.874,448.985a1.394,1.394,0,1,1,.449-1.92A1.393,1.393,0,0,1,26.874,448.985Z"/><path d="M31.616,457.1a1.395,1.395,0,1,1,.449-1.92A1.395,1.395,0,0,1,31.616,457.1Z"/><path d="M34.938,465.754a1.394,1.394,0,1,1,.449-1.92A1.395,1.395,0,0,1,34.938,465.754Z"/><path d="M37.112,474.34a1.439,1.439,0,1,1,.463-1.982A1.44,1.44,0,0,1,37.112,474.34Z"/><path d="M38.456,482.232a1.462,1.462,0,1,1,.47-2.013A1.463,1.463,0,0,1,38.456,482.232Z"/><path d="M39.429,488.938a1.47,1.47,0,1,1,.473-2.025A1.471,1.471,0,0,1,39.429,488.938Z"/><path d="M47.42,462.248a1.408,1.408,0,1,1,.453-1.939A1.408,1.408,0,0,1,47.42,462.248Z"/><path d="M56.959,432.832a1.276,1.276,0,1,1,.41-1.757A1.276,1.276,0,0,1,56.959,432.832Z"/><path d="M67.648,400.88a1.219,1.219,0,1,1,.392-1.679A1.22,1.22,0,0,1,67.648,400.88Z"/><path d="M78.836,366.539a1.126,1.126,0,1,1,.362-1.55A1.127,1.127,0,0,1,78.836,366.539Z"/><path d="M89.909,330.324a1.056,1.056,0,1,1,.34-1.454A1.057,1.057,0,0,1,89.909,330.324Z"/><path d="M100.2,292.85a.915.915,0,1,1,.3-1.26A.915.915,0,0,1,100.2,292.85Z"/><path d="M109.366,254.881a.84.84,0,1,1,.27-1.157A.841.841,0,0,1,109.366,254.881Z"/><path d="M117.139,217.094a.8.8,0,1,1,.257-1.1A.8.8,0,0,1,117.139,217.094Z"/><path d="M123.237,180.542a.711.711,0,1,1,.229-.979A.71.71,0,0,1,123.237,180.542Z"/><path d="M127.659,146.295a.6.6,0,1,1,.194-.828A.6.6,0,0,1,127.659,146.295Z"/><circle cx="130.685" cy="113.188" r="0.534"/><path d="M133.716,80.621a.479.479,0,1,1,.154-.66A.48.48,0,0,1,133.716,80.621Z"/><path d="M135.954,46.517a.4.4,0,1,1,.129-.552A.4.4,0,0,1,135.954,46.517Z"/><path d="M137.624,10.847a.321.321,0,1,1,.1-.443A.322.322,0,0,1,137.624,10.847Z"/><path d="M.874,458.208a1.433,1.433,0,1,1,.461-1.974A1.433,1.433,0,0,1,.874,458.208Z"/><path d="M10.546,459.852a1.433,1.433,0,1,1,.462-1.974A1.433,1.433,0,0,1,10.546,459.852Z"/><path d="M18.466,464.4a1.456,1.456,0,1,1,.469-2A1.457,1.457,0,0,1,18.466,464.4Z"/><path d="M24.6,471.1a1.456,1.456,0,1,1,.469-2A1.457,1.457,0,0,1,24.6,471.1Z"/><path d="M29,479.249a1.456,1.456,0,1,1,.469-2.006A1.455,1.455,0,0,1,29,479.249Z"/><path d="M31.818,488.181a1.5,1.5,0,1,1,.483-2.069A1.5,1.5,0,0,1,31.818,488.181Z"/><path d="M33.238,497.175a1.526,1.526,0,1,1,.491-2.1A1.526,1.526,0,0,1,33.238,497.175Z"/><path d="M40.573,494.038a1.462,1.462,0,1,1,.47-2.013A1.461,1.461,0,0,1,40.573,494.038Z"/><path d="M50.252,466.4a1.408,1.408,0,1,1,.453-1.939A1.41,1.41,0,0,1,50.252,466.4Z"/><path d="M61.569,435.9a1.276,1.276,0,1,1,.411-1.757A1.276,1.276,0,0,1,61.569,435.9Z"/><path d="M74,402.792a1.219,1.219,0,1,1,.392-1.679A1.22,1.22,0,0,1,74,402.792Z"/><path d="M86.765,367.313a1.126,1.126,0,1,1,.362-1.551A1.127,1.127,0,0,1,86.765,367.313Z"/><path d="M99.312,329.835a1.055,1.055,0,1,1,.34-1.454A1.055,1.055,0,0,1,99.312,329.835Z"/><path d="M111.04,290.781a.932.932,0,1,1,.3-1.283A.932.932,0,0,1,111.04,290.781Z"/><path d="M121.384,251.237a.871.871,0,1,1,.28-1.2A.871.871,0,0,1,121.384,251.237Z"/><path d="M129.93,212.2a.8.8,0,1,1,.257-1.1A.8.8,0,0,1,129.93,212.2Z"/><path d="M136.552,174.7a.711.711,0,1,1,.229-.979A.711.711,0,0,1,136.552,174.7Z"/><path d="M141.333,139.652a.6.6,0,1,1,.193-.828A.6.6,0,0,1,141.333,139.652Z"/><path d="M144.925,106.158a.534.534,0,1,1,.172-.736A.536.536,0,0,1,144.925,106.158Z"/><path d="M147.9,72.207a.479.479,0,1,1,.154-.66A.48.48,0,0,1,147.9,72.207Z"/><path d="M150.308,37.155a.419.419,0,1,1,.135-.578A.419.419,0,0,1,150.308,37.155Z"/><path d="M152.033.543a.321.321,0,1,1,.1-.443A.322.322,0,0,1,152.033.543Z"/><path d="M8.366,482.677a1.512,1.512,0,1,1,.486-2.082A1.512,1.512,0,0,1,8.366,482.677Z"/><path d="M16.473,486.316a1.512,1.512,0,1,1,.487-2.082A1.512,1.512,0,0,1,16.473,486.316Z"/><path d="M22.693,492.385a1.512,1.512,0,1,1,.487-2.082A1.512,1.512,0,0,1,22.693,492.385Z"/><path d="M27.077,500.2a1.559,1.559,0,1,1,.5-2.147A1.558,1.558,0,0,1,27.077,500.2Z"/><path d="M42.515,497.22a1.462,1.462,0,1,1,.47-2.013A1.463,1.463,0,0,1,42.515,497.22Z"/><path d="M54.04,468.574a1.408,1.408,0,1,1,.453-1.939A1.408,1.408,0,0,1,54.04,468.574Z"/><path d="M67.225,437a1.3,1.3,0,1,1,.417-1.785A1.3,1.3,0,0,1,67.225,437Z"/><path d="M81.538,402.553a1.219,1.219,0,1,1,.392-1.679A1.219,1.219,0,0,1,81.538,402.553Z"/><path d="M96.271,365.392a1.164,1.164,0,1,1,.375-1.6A1.163,1.163,0,0,1,96.271,365.392Z"/><path d="M110.447,326.144a1.055,1.055,0,1,1,.34-1.454A1.056,1.056,0,0,1,110.447,326.144Z"/><path d="M123.338,285.74a.965.965,0,1,1,.311-1.33A.965.965,0,0,1,123.338,285.74Z"/><path d="M134.412,245.142a.871.871,0,1,1,.28-1.2A.871.871,0,0,1,134.412,245.142Z"/><path d="M143.422,205.378a.8.8,0,1,1,.256-1.1A.8.8,0,0,1,143.422,205.378Z"/><path d="M150.334,167.349a.711.711,0,1,1,.229-.978A.71.71,0,0,1,150.334,167.349Z"/><path d="M155.323,131.815a.6.6,0,1,1,.194-.827A.6.6,0,0,1,155.323,131.815Z"/><path d="M159.1,97.735a.546.546,0,1,1,.175-.751A.546.546,0,0,1,159.1,97.735Z"/><path d="M162.224,63.079a.48.48,0,1,1,.154-.661A.48.48,0,0,1,162.224,63.079Z"/><path d="M164.719,27.3a.419.419,0,1,1,.135-.577A.419.419,0,0,1,164.719,27.3Z"/><path d="M45.91,498.22a1.471,1.471,0,1,1,.474-2.025A1.47,1.47,0,0,1,45.91,498.22Z"/><circle cx="58.857" cy="467.112" r="1.408"/><path d="M75.2,435.017a1.3,1.3,0,1,1,.417-1.786A1.3,1.3,0,0,1,75.2,435.017Z"/><path d="M91.682,398.758a1.219,1.219,0,1,1,.392-1.678A1.22,1.22,0,0,1,91.682,398.758Z"/><path d="M108.018,360.072a1.172,1.172,0,1,1,.377-1.614A1.172,1.172,0,0,1,108.018,360.072Z"/><path d="M123.281,319.628a1.074,1.074,0,1,1,.345-1.48A1.075,1.075,0,0,1,123.281,319.628Z"/><path d="M136.825,278.346a.966.966,0,1,1,.311-1.33A.965.965,0,0,1,136.825,278.346Z"/><path d="M148.27,237.217a.887.887,0,1,1,.286-1.222A.886.886,0,0,1,148.27,237.217Z"/><path d="M157.469,197.162a.828.828,0,1,1,.266-1.141A.829.829,0,0,1,157.469,197.162Z"/><path d="M164.479,158.943a.738.738,0,1,1,.237-1.016A.739.739,0,0,1,164.479,158.943Z"/><path d="M169.554,123.167a.625.625,0,1,1,.2-.861A.626.626,0,0,1,169.554,123.167Z"/><path d="M173.434,88.68a.568.568,0,1,1,.183-.783A.567.567,0,0,1,173.434,88.68Z"/><path d="M176.64,53.509a.5.5,0,1,1,.161-.689A.5.5,0,0,1,176.64,53.509Z"/><path d="M179.176,17.186a.442.442,0,1,1,.142-.608A.441.441,0,0,1,179.176,17.186Z"/><path d="M52.352,496.131a1.542,1.542,0,1,1,.5-2.123A1.542,1.542,0,0,1,52.352,496.131Z"/><path d="M68.676,464.4a1.453,1.453,0,1,1,.468-2A1.454,1.454,0,0,1,68.676,464.4Z"/><path d="M86.367,429.5a1.339,1.339,0,1,1,.431-1.844A1.339,1.339,0,0,1,86.367,429.5Z"/><path d="M104.358,391.842a1.24,1.24,0,1,1,.4-1.707A1.239,1.239,0,0,1,104.358,391.842Z"/><path d="M121.675,352.055a1.172,1.172,0,1,1,.377-1.613A1.171,1.171,0,0,1,121.675,352.055Z"/><path d="M137.511,310.891a1.111,1.111,0,1,1,.358-1.53A1.112,1.112,0,0,1,137.511,310.891Z"/><path d="M151.27,269.158a.966.966,0,1,1,.311-1.33A.966.966,0,0,1,151.27,269.158Z"/><path d="M162.769,227.918a.919.919,0,1,1,.3-1.266A.92.92,0,0,1,162.769,227.918Z"/><path d="M171.9,187.879a.828.828,0,1,1,.267-1.141A.828.828,0,0,1,171.9,187.879Z"/><path d="M178.868,149.753a.753.753,0,1,1,.242-1.037A.754.754,0,0,1,178.868,149.753Z"/><path d="M183.944,113.92a.643.643,0,1,1,.207-.886A.644.644,0,0,1,183.944,113.92Z"/><path d="M187.86,79.144a.569.569,0,1,1,.183-.783A.57.57,0,0,1,187.86,79.144Z"/><path d="M191.1,43.589a.5.5,0,1,1,.16-.688A.5.5,0,0,1,191.1,43.589Z"/><path d="M193.644,6.856a.442.442,0,1,1,.142-.609A.441.441,0,0,1,193.644,6.856Z"/><path d="M62.78,490.429a1.542,1.542,0,1,1,.495-2.123A1.542,1.542,0,0,1,62.78,490.429Z"/><path d="M81.123,457.25a1.477,1.477,0,1,1,.475-2.033A1.477,1.477,0,0,1,81.123,457.25Z"/><path d="M100.239,421.048a1.339,1.339,0,1,1,.431-1.844A1.339,1.339,0,0,1,100.239,421.048Z"/><path d="M119.155,382.42a1.289,1.289,0,1,1,.415-1.775A1.287,1.287,0,0,1,119.155,382.42Z"/><path d="M136.9,341.909a1.192,1.192,0,1,1,.384-1.641A1.192,1.192,0,0,1,136.9,341.909Z"/><path d="M152.815,300.366a1.111,1.111,0,1,1,.358-1.53A1.111,1.111,0,0,1,152.815,300.366Z"/><path d="M166.449,258.587a.966.966,0,1,1,.311-1.33A.966.966,0,0,1,166.449,258.587Z"/><path d="M177.725,217.541a.919.919,0,1,1,.3-1.266A.919.919,0,0,1,177.725,217.541Z"/><path d="M186.633,177.814a.828.828,0,1,1,.266-1.14A.829.829,0,0,1,186.633,177.814Z"/><path d="M193.44,139.96a.753.753,0,1,1,.242-1.036A.753.753,0,0,1,193.44,139.96Z"/><path d="M198.454,104.179a.643.643,0,1,1,.207-.885A.642.642,0,0,1,198.454,104.179Z"/><path d="M202.388,69.22a.592.592,0,1,1,.19-.815A.593.593,0,0,1,202.388,69.22Z"/><path d="M205.624,33.335a.5.5,0,1,1,.161-.689A.5.5,0,0,1,205.624,33.335Z"/><path d="M76.709,481.841a1.541,1.541,0,1,1,.5-2.122A1.54,1.54,0,0,1,76.709,481.841Z"/><path d="M96.424,447.438a1.476,1.476,0,1,1,.475-2.033A1.476,1.476,0,0,1,96.424,447.438Z"/><path d="M116.364,410.237a1.339,1.339,0,1,1,.431-1.844A1.339,1.339,0,0,1,116.364,410.237Z"/><path d="M135.619,370.9a1.289,1.289,0,1,1,.415-1.774A1.288,1.288,0,0,1,135.619,370.9Z"/><path d="M153.323,330.025a1.192,1.192,0,1,1,.384-1.642A1.192,1.192,0,0,1,153.323,330.025Z"/><path d="M168.96,288.46a1.119,1.119,0,1,1,.36-1.541A1.119,1.119,0,0,1,168.96,288.46Z"/><path d="M182.213,246.984a1.024,1.024,0,1,1,.33-1.41A1.025,1.025,0,0,1,182.213,246.984Z"/><path d="M193.04,206.339a.919.919,0,1,1,.3-1.266A.919.919,0,0,1,193.04,206.339Z"/><path d="M201.609,167.126a.844.844,0,1,1,.271-1.162A.844.844,0,0,1,201.609,167.126Z"/><path d="M208.2,129.672a.787.787,0,1,1,.253-1.084A.787.787,0,0,1,208.2,129.672Z"/><path d="M213.107,93.975a.669.669,0,1,1,.215-.921A.668.668,0,0,1,213.107,93.975Z"/><path d="M217.006,58.8a.591.591,0,1,1,.191-.815A.591.591,0,0,1,217.006,58.8Z"/><path d="M220.234,22.637a.526.526,0,1,1,.169-.724A.526.526,0,0,1,220.234,22.637Z"/><path d="M93.572,470.857a1.541,1.541,0,1,1,.495-2.122A1.54,1.54,0,0,1,93.572,470.857Z"/><path d="M114.067,435.43a1.476,1.476,0,1,1,.475-2.033A1.475,1.475,0,0,1,114.067,435.43Z"/><path d="M134.295,397.5a1.37,1.37,0,1,1,.441-1.886A1.369,1.369,0,0,1,134.295,397.5Z"/><path d="M153.4,357.707a1.289,1.289,0,1,1,.415-1.775A1.288,1.288,0,0,1,153.4,357.707Z"/><path d="M170.7,316.781a1.231,1.231,0,1,1,.4-1.7A1.231,1.231,0,0,1,170.7,316.781Z"/><path d="M185.73,275.427a1.118,1.118,0,1,1,.36-1.54A1.118,1.118,0,0,1,185.73,275.427Z"/><path d="M198.371,234.447a1.025,1.025,0,1,1,.329-1.411A1.026,1.026,0,0,1,198.371,234.447Z"/><path d="M208.648,194.425a.919.919,0,1,1,.3-1.266A.92.92,0,0,1,208.648,194.425Z"/><path d="M216.809,155.839a.875.875,0,1,1,.282-1.2A.874.874,0,0,1,216.809,155.839Z"/><path d="M223.109,118.772a.787.787,0,1,1,.253-1.084A.786.786,0,0,1,223.109,118.772Z"/><path d="M227.9,83.134a.669.669,0,1,1,.215-.921A.668.668,0,0,1,227.9,83.134Z"/><path d="M231.764,47.709a.591.591,0,1,1,.19-.815A.591.591,0,0,1,231.764,47.709Z"/><path d="M234.944,11.189a.526.526,0,1,1,.169-.724A.525.525,0,0,1,234.944,11.189Z"/><path d="M92.352,491.482a1.633,1.633,0,1,1,.526-2.249A1.633,1.633,0,0,1,92.352,491.482Z"/><path d="M112.8,457.838a1.541,1.541,0,1,1,.5-2.122A1.54,1.54,0,0,1,112.8,457.838Z"/><path d="M133.551,421.568a1.476,1.476,0,1,1,.475-2.033A1.476,1.476,0,0,1,133.551,421.568Z"/><circle cx="152.861" cy="381.933" r="1.414"/><path d="M172.159,343.116a1.289,1.289,0,1,1,.414-1.774A1.289,1.289,0,0,1,172.159,343.116Z"/><path d="M188.735,302.349a1.232,1.232,0,1,1,.4-1.7A1.231,1.231,0,0,1,188.735,302.349Z"/><path d="M203.011,261.5a1.176,1.176,0,1,1,.379-1.62A1.176,1.176,0,0,1,203.011,261.5Z"/><path d="M214.875,221.115a1.025,1.025,0,1,1,.33-1.411A1.025,1.025,0,0,1,214.875,221.115Z"/><path d="M224.546,181.828a.952.952,0,1,1,.306-1.311A.952.952,0,0,1,224.546,181.828Z"/><path d="M232.23,143.825a.875.875,0,1,1,.281-1.2A.875.875,0,0,1,232.23,143.825Z"/><path d="M238.245,107.112a.787.787,0,1,1,.253-1.084A.786.786,0,0,1,238.245,107.112Z"/><path d="M242.927,71.447a.695.695,0,1,1,.224-.957A.694.694,0,0,1,242.927,71.447Z"/><path d="M246.731,35.651a.62.62,0,1,1,.2-.855A.619.619,0,0,1,246.731,35.651Z"/><path d="M113.169,477.694a1.684,1.684,0,1,1,.541-2.318A1.683,1.683,0,0,1,113.169,477.694Z"/><path d="M133.916,443.124a1.614,1.614,0,1,1,.52-2.223A1.614,1.614,0,0,1,133.916,443.124Z"/><path d="M154.457,406.166a1.532,1.532,0,1,1,.492-2.11A1.531,1.531,0,0,1,154.457,406.166Z"/><path d="M173.91,367.345a1.414,1.414,0,1,1,.454-1.947A1.414,1.414,0,0,1,173.91,367.345Z"/><path d="M191.677,327.4a1.353,1.353,0,1,1,.435-1.863A1.353,1.353,0,0,1,191.677,327.4Z"/><path d="M207.291,286.913a1.232,1.232,0,1,1,.4-1.7A1.231,1.231,0,0,1,207.291,286.913Z"/><path d="M220.649,246.646a1.176,1.176,0,1,1,.379-1.62A1.177,1.177,0,0,1,220.649,246.646Z"/><path d="M231.719,207.005a1.06,1.06,0,1,1,.341-1.46A1.059,1.059,0,0,1,231.719,207.005Z"/><path d="M240.723,168.388a.959.959,0,1,1,.309-1.321A.959.959,0,0,1,240.723,168.388Z"/><path d="M247.941,130.9a.875.875,0,1,1,.282-1.2A.874.874,0,0,1,247.941,130.9Z"/><path d="M253.691,94.416a.817.817,0,1,1,.262-1.124A.817.817,0,0,1,253.691,94.416Z"/><path d="M258.224,58.49a.695.695,0,1,1,.224-.957A.695.695,0,0,1,258.224,58.49Z"/><path d="M261.942,22.127a.621.621,0,1,1,.2-.855A.62.62,0,0,1,261.942,22.127Z"/><path d="M115.469,495.067a1.755,1.755,0,1,1,.564-2.416A1.755,1.755,0,0,1,115.469,495.067Z"/><path d="M135.754,462.2a1.684,1.684,0,1,1,.541-2.318A1.685,1.685,0,0,1,135.754,462.2Z"/><path d="M156.36,426.811a1.614,1.614,0,1,1,.519-2.223A1.614,1.614,0,0,1,156.36,426.811Z"/><path d="M176.352,389.361a1.556,1.556,0,1,1,.5-2.143A1.557,1.557,0,0,1,176.352,389.361Z"/><path d="M194.935,350.352a1.414,1.414,0,1,1,.455-1.947A1.414,1.414,0,0,1,194.935,350.352Z"/><path d="M211.685,310.574a1.353,1.353,0,1,1,.435-1.863A1.353,1.353,0,0,1,211.685,310.574Z"/><path d="M226.271,270.575a1.272,1.272,0,1,1,.41-1.752A1.272,1.272,0,0,1,226.271,270.575Z"/><path d="M238.635,230.9a1.177,1.177,0,1,1,.378-1.62A1.177,1.177,0,0,1,238.635,230.9Z"/><path d="M248.879,191.936a1.06,1.06,0,1,1,.341-1.46A1.061,1.061,0,0,1,248.879,191.936Z"/><path d="M257.257,153.907a.976.976,0,1,1,.314-1.344A.977.977,0,0,1,257.257,153.907Z"/><path d="M264.044,116.766a.913.913,0,1,1,.293-1.257A.914.914,0,0,1,264.044,116.766Z"/><path d="M269.5,80.207a.816.816,0,1,1,.263-1.124A.816.816,0,0,1,269.5,80.207Z"/><path d="M273.888,43.782a.7.7,0,1,1,.226-.965A.7.7,0,0,1,273.888,43.782Z"/><path d="M277.48,6.6a.646.646,0,1,1,.207-.889A.647.647,0,0,1,277.48,6.6Z"/><path d="M139.4,479.074a1.781,1.781,0,1,1,.574-2.453A1.781,1.781,0,0,1,139.4,479.074Z"/><path d="M159.647,445.222a1.683,1.683,0,1,1,.542-2.318A1.683,1.683,0,0,1,159.647,445.222Z"/><path d="M179.771,409.148a1.624,1.624,0,1,1,.523-2.236A1.624,1.624,0,0,1,179.771,409.148Z"/><path d="M198.924,371.32a1.556,1.556,0,1,1,.5-2.144A1.557,1.557,0,0,1,198.924,371.32Z"/><path d="M216.459,332.276a1.414,1.414,0,1,1,.455-1.947A1.413,1.413,0,0,1,216.459,332.276Z"/><path d="M232.08,292.761a1.353,1.353,0,1,1,.436-1.863A1.352,1.352,0,0,1,232.08,292.761Z"/><path d="M245.575,253.24a1.273,1.273,0,1,1,.409-1.753A1.273,1.273,0,0,1,245.575,253.24Z"/><path d="M256.97,214.14a1.176,1.176,0,1,1,.379-1.621A1.177,1.177,0,0,1,256.97,214.14Z"/><path d="M266.425,175.7a1.06,1.06,0,1,1,.341-1.46A1.061,1.061,0,0,1,266.425,175.7Z"/><path d="M274.228,138.045a1.011,1.011,0,1,1,.325-1.392A1.011,1.011,0,0,1,274.228,138.045Z"/><path d="M280.587,100.9a.913.913,0,1,1,.294-1.258A.913.913,0,0,1,280.587,100.9Z"/><path d="M285.793,63.978a.846.846,0,1,1,.273-1.166A.847.847,0,0,1,285.793,63.978Z"/><path d="M289.986,26.7a.727.727,0,1,1,.235-1A.727.727,0,0,1,289.986,26.7Z"/><path d="M145,493.93a1.855,1.855,0,1,1,.6-2.555A1.856,1.856,0,0,1,145,493.93Z"/><path d="M164.542,461.63a1.781,1.781,0,1,1,.573-2.453A1.781,1.781,0,0,1,164.542,461.63Z"/><path d="M184.431,426.911a1.684,1.684,0,1,1,.542-2.318A1.683,1.683,0,0,1,184.431,426.911Z"/><path d="M203.805,390.26a1.624,1.624,0,1,1,.522-2.236A1.624,1.624,0,0,1,203.805,390.26Z"/><path d="M221.94,352.174a1.556,1.556,0,1,1,.5-2.143A1.558,1.558,0,0,1,221.94,352.174Z"/><path d="M238.324,313.173a1.414,1.414,0,1,1,.454-1.947A1.414,1.414,0,0,1,238.324,313.173Z"/><path d="M252.789,273.943a1.362,1.362,0,1,1,.438-1.875A1.363,1.363,0,0,1,252.789,273.943Z"/><path d="M265.224,234.847a1.3,1.3,0,1,1,.419-1.793A1.3,1.3,0,0,1,265.224,234.847Z"/><path d="M275.717,196.167a1.224,1.224,0,1,1,.394-1.685A1.223,1.223,0,0,1,275.717,196.167Z"/><path d="M284.444,157.985a1.1,1.1,0,1,1,.353-1.511A1.1,1.1,0,0,1,284.444,157.985Z"/><path d="M291.692,120.284a1.011,1.011,0,1,1,.325-1.392A1.011,1.011,0,0,1,291.692,120.284Z"/><path d="M297.668,82.746a.913.913,0,1,1,.294-1.258A.913.913,0,0,1,297.668,82.746Z"/><path d="M302.585,44.988a.853.853,0,1,1,.274-1.174A.853.853,0,0,1,302.585,44.988Z"/><path d="M306.486,6.408a.728.728,0,1,1,.234-1A.728.728,0,0,1,306.486,6.408Z"/><path d="M171.107,476.215a1.856,1.856,0,1,1,.6-2.556A1.856,1.856,0,0,1,171.107,476.215Z"/><path d="M190.476,442.889a1.781,1.781,0,1,1,.574-2.453A1.782,1.782,0,0,1,190.476,442.889Z"/><path d="M209.77,407.417a1.709,1.709,0,1,1,.55-2.354A1.71,1.71,0,0,1,209.77,407.417Z"/><path d="M228.2,370.26a1.623,1.623,0,1,1,.523-2.236A1.624,1.624,0,0,1,228.2,370.26Z"/><path d="M245.219,331.981a1.556,1.556,0,1,1,.5-2.143A1.555,1.555,0,0,1,245.219,331.981Z"/><path d="M260.467,293.094a1.491,1.491,0,1,1,.48-2.053A1.49,1.49,0,0,1,260.467,293.094Z"/><path d="M273.788,254.034a1.4,1.4,0,1,1,.452-1.935A1.406,1.406,0,0,1,273.788,254.034Z"/><path d="M285.205,215.125a1.3,1.3,0,1,1,.418-1.793A1.3,1.3,0,0,1,285.205,215.125Z"/><path d="M294.875,176.559a1.224,1.224,0,1,1,.394-1.685A1.223,1.223,0,0,1,294.875,176.559Z"/><path d="M302.965,138.25a1.1,1.1,0,1,1,.356-1.521A1.1,1.1,0,0,1,302.965,138.25Z"/><path d="M309.723,100.047a1.011,1.011,0,1,1,.325-1.392A1.012,1.012,0,0,1,309.723,100.047Z"/><path d="M315.326,61.6a.946.946,0,1,1,.3-1.3A.947.947,0,0,1,315.326,61.6Z"/><path d="M319.853,22.426a.868.868,0,1,1,.28-1.2A.869.869,0,0,1,319.853,22.426Z"/><path d="M179.366,489.24a1.95,1.95,0,1,1,.627-2.685A1.95,1.95,0,0,1,179.366,489.24Z"/><path d="M197.933,457.3a1.911,1.911,0,1,1,.615-2.631A1.91,1.91,0,0,1,197.933,457.3Z"/><path d="M216.855,422.968a1.781,1.781,0,1,1,.573-2.453A1.781,1.781,0,0,1,216.855,422.968Z"/><path d="M235.394,386.85a1.771,1.771,0,1,1,.569-2.439A1.772,1.772,0,0,1,235.394,386.85Z"/><path d="M252.789,349.255a1.674,1.674,0,1,1,.538-2.305A1.673,1.673,0,0,1,252.789,349.255Z"/><path d="M268.664,310.781a1.6,1.6,0,1,1,.517-2.209A1.6,1.6,0,0,1,268.664,310.781Z"/><path d="M282.752,271.817a1.492,1.492,0,1,1,.479-2.054A1.493,1.493,0,0,1,282.752,271.817Z"/><path d="M295.033,232.762a1.405,1.405,0,1,1,.452-1.934A1.4,1.4,0,0,1,295.033,232.762Z"/><path d="M305.582,193.805a1.344,1.344,0,1,1,.433-1.851A1.344,1.344,0,0,1,305.582,193.805Z"/><circle cx="313.864" cy="153.849" r="1.224" transform="translate(-33.258 112.785) rotate(-19.366)"/><path d="M322.037,115.924a1.123,1.123,0,1,1,.362-1.547A1.123,1.123,0,0,1,322.037,115.924Z"/><path d="M328.327,76.622a1.053,1.053,0,1,1,.339-1.45A1.053,1.053,0,0,1,328.327,76.622Z"/><path d="M333.434,36.53a.946.946,0,1,1,.3-1.3A.947.947,0,0,1,333.434,36.53Z"/><path d="M189.232,500.877a2.016,2.016,0,1,1,.649-2.776A2.016,2.016,0,0,1,189.232,500.877Z"/><path d="M206.729,470.3a2.006,2.006,0,1,1,.646-2.764A2.007,2.007,0,0,1,206.729,470.3Z"/><circle cx="224.07" cy="435.569" r="1.939" transform="translate(-216.715 649.194) rotate(-88.634)"/><path d="M243.425,402.016a1.835,1.835,0,1,1,.591-2.527A1.835,1.835,0,0,1,243.425,402.016Z"/><path d="M261.04,365.2a1.771,1.771,0,1,1,.57-2.439A1.771,1.771,0,0,1,261.04,365.2Z"/><path d="M277.39,327.2a1.7,1.7,0,1,1,.547-2.341A1.7,1.7,0,0,1,277.39,327.2Z"/><circle cx="291.304" cy="287.058" r="1.614" transform="translate(-116.817 313.466) rotate(-48.282)"/><path d="M305.193,249.227a1.491,1.491,0,1,1,.48-2.053A1.491,1.491,0,0,1,305.193,249.227Z"/><path d="M316.551,209.861a1.4,1.4,0,1,1,.452-1.935A1.406,1.406,0,0,1,316.551,209.861Z"/><path d="M326.326,170.368a1.344,1.344,0,1,1,.433-1.851A1.344,1.344,0,0,1,326.326,170.368Z"/><path d="M334.647,130.609a1.286,1.286,0,1,1,.413-1.77A1.286,1.286,0,0,1,334.647,130.609Z"/><path d="M341.584,90.233a1.123,1.123,0,1,1,.361-1.547A1.124,1.124,0,0,1,341.584,90.233Z"/><path d="M347.32,48.982a1.053,1.053,0,1,1,.339-1.45A1.053,1.053,0,0,1,347.32,48.982Z"/><path d="M351.76,6.406a.986.986,0,1,1,.317-1.359A.986.986,0,0,1,351.76,6.406Z"/><path d="M216.757,482.04a2.016,2.016,0,1,1,.649-2.776A2.015,2.015,0,0,1,216.757,482.04Z"/><path d="M234.33,450.225a2.016,2.016,0,1,1,.649-2.777A2.016,2.016,0,0,1,234.33,450.225Z"/><path d="M252.313,416.083a1.95,1.95,0,1,1,.627-2.685A1.949,1.949,0,0,1,252.313,416.083Z"/><path d="M269.922,380.03a1.845,1.845,0,1,1,.594-2.541A1.845,1.845,0,0,1,269.922,380.03Z"/><path d="M286.594,342.55a1.771,1.771,0,1,1,.57-2.439A1.771,1.771,0,0,1,286.594,342.55Z"/><path d="M301.916,304.033a1.7,1.7,0,1,1,.546-2.34A1.7,1.7,0,0,1,301.916,304.033Z"/><circle cx="314.816" cy="263.431" r="1.614"/><path d="M327.779,225.053a1.491,1.491,0,1,1,.48-2.053A1.49,1.49,0,0,1,327.779,225.053Z"/><path d="M338.347,184.934a1.428,1.428,0,1,1,.46-1.967A1.428,1.428,0,0,1,338.347,184.934Z"/><path d="M347.424,144.279a1.344,1.344,0,1,1,.432-1.851A1.343,1.343,0,0,1,347.424,144.279Z"/><path d="M355.134,102.841a1.286,1.286,0,1,1,.414-1.771A1.286,1.286,0,0,1,355.134,102.841Z"/><path d="M361.436,60.262a1.161,1.161,0,1,1,.373-1.6A1.162,1.162,0,0,1,361.436,60.262Z"/><path d="M366.265,16.465a1.053,1.053,0,1,1,.339-1.45A1.054,1.054,0,0,1,366.265,16.465Z"/><path d="M227.97,492.756a2.016,2.016,0,1,1,.649-2.776A2.015,2.015,0,0,1,227.97,492.756Z"/><path d="M244.488,462.177a2.017,2.017,0,1,1,.649-2.777A2.016,2.016,0,0,1,244.488,462.177Z"/><path d="M261.924,429.159a2.016,2.016,0,1,1,.649-2.777A2.016,2.016,0,0,1,261.924,429.159Z"/><path d="M279.385,393.991a1.949,1.949,0,1,1,.628-2.685A1.949,1.949,0,0,1,279.385,393.991Z"/><path d="M296.21,357.085a1.845,1.845,0,1,1,.594-2.541A1.845,1.845,0,0,1,296.21,357.085Z"/><path d="M311.958,318.882a1.771,1.771,0,1,1,.57-2.439A1.771,1.771,0,0,1,311.958,318.882Z"/><path d="M326.331,279.688a1.709,1.709,0,1,1,.55-2.354A1.71,1.71,0,0,1,326.331,279.688Z"/><path d="M339.19,239.7a1.639,1.639,0,1,1,.528-2.258A1.64,1.64,0,0,1,339.19,239.7Z"/><path d="M350.508,198.961a1.538,1.538,0,1,1,.5-2.118A1.538,1.538,0,0,1,350.508,198.961Z"/><path d="M360.386,157.4a1.482,1.482,0,1,1,.477-2.04A1.481,1.481,0,0,1,360.386,157.4Z"/><path d="M368.769,114.76a1.353,1.353,0,1,1,.435-1.862A1.352,1.352,0,0,1,368.769,114.76Z"/><path d="M375.651,71.09a1.293,1.293,0,1,1,.417-1.781A1.293,1.293,0,0,1,375.651,71.09Z"/><path d="M380.85,26.189a1.169,1.169,0,1,1,.376-1.61A1.169,1.169,0,0,1,380.85,26.189Z"/><path d="M240.311,502.564a2.016,2.016,0,1,1,.649-2.777A2.016,2.016,0,0,1,240.311,502.564Z"/><path d="M255.543,473.268a2.016,2.016,0,1,1,.649-2.776A2.015,2.015,0,0,1,255.543,473.268Z"/><path d="M272.183,441.375a2.016,2.016,0,1,1,.649-2.776A2.015,2.015,0,0,1,272.183,441.375Z"/><path d="M289.317,407.191a2.016,2.016,0,1,1,.649-2.776A2.015,2.015,0,0,1,289.317,407.191Z"/><path d="M306.166,371.008a1.949,1.949,0,1,1,.628-2.685A1.95,1.95,0,0,1,306.166,371.008Z"/><path d="M322.208,333.221a1.873,1.873,0,1,1,.6-2.579A1.873,1.873,0,0,1,322.208,333.221Z"/><path d="M337.071,294.118a1.771,1.771,0,1,1,.57-2.439A1.771,1.771,0,0,1,337.071,294.118Z"/><path d="M350.591,253.953a1.709,1.709,0,1,1,.55-2.354A1.71,1.71,0,0,1,350.591,253.953Z"/><path d="M362.727,212.711a1.689,1.689,0,1,1,.544-2.327A1.689,1.689,0,0,1,362.727,212.711Z"/><path d="M373.343,170.2a1.547,1.547,0,1,1,.5-2.131A1.546,1.546,0,0,1,373.343,170.2Z"/><path d="M382.423,126.648a1.482,1.482,0,1,1,.477-2.041A1.483,1.483,0,0,1,382.423,126.648Z"/><path d="M389.812,81.974a1.4,1.4,0,1,1,.449-1.923A1.4,1.4,0,0,1,389.812,81.974Z"/><path d="M395.416,36.177a1.336,1.336,0,1,1,.43-1.84A1.336,1.336,0,0,1,395.416,36.177Z"/><path d="M267.478,483.569a2.017,2.017,0,1,1,.649-2.777A2.016,2.016,0,0,1,267.478,483.569Z"/><path d="M283.094,452.878a2.016,2.016,0,1,1,.649-2.777A2.016,2.016,0,0,1,283.094,452.878Z"/><path d="M299.659,419.713a2.016,2.016,0,1,1,.649-2.776A2.016,2.016,0,0,1,299.659,419.713Z"/><path d="M316.365,384.387a2.016,2.016,0,1,1,.649-2.776A2.016,2.016,0,0,1,316.365,384.387Z"/><path d="M332.556,347.158a1.949,1.949,0,1,1,.628-2.685A1.951,1.951,0,0,1,332.556,347.158Z"/><path d="M347.826,308.344a1.872,1.872,0,1,1,.6-2.578A1.872,1.872,0,0,1,347.826,308.344Z"/><path d="M362.016,268.072a1.862,1.862,0,1,1,.6-2.564A1.862,1.862,0,0,1,362.016,268.072Z"/><path d="M374.884,226.223a1.761,1.761,0,1,1,.567-2.425A1.761,1.761,0,0,1,374.884,226.223Z"/><path d="M386.257,183.1a1.689,1.689,0,1,1,.543-2.326A1.69,1.69,0,0,1,386.257,183.1Z"/><path d="M395.92,138.726a1.547,1.547,0,1,1,.5-2.131A1.547,1.547,0,0,1,395.92,138.726Z"/><path d="M403.827,93.287a1.482,1.482,0,1,1,.477-2.041A1.482,1.482,0,0,1,403.827,93.287Z"/><path d="M409.8,46.7a1.4,1.4,0,1,1,.449-1.923A1.4,1.4,0,0,1,409.8,46.7Z"/><path d="M279.873,493.457a2.016,2.016,0,1,1,.649-2.776A2.015,2.015,0,0,1,279.873,493.457Z"/><path d="M294.7,463.675a2.016,2.016,0,1,1,.649-2.776A2.016,2.016,0,0,1,294.7,463.675Z"/><path d="M310.467,431.64a2.016,2.016,0,1,1,.649-2.777A2.016,2.016,0,0,1,310.467,431.64Z"/><path d="M326.788,397.246a2.016,2.016,0,1,1,.648-2.776A2.017,2.017,0,0,1,326.788,397.246Z"/><path d="M342.978,360.778a2.016,2.016,0,1,1,.648-2.776A2.017,2.017,0,0,1,342.978,360.778Z"/><path d="M358.64,322.311a2.006,2.006,0,1,1,.646-2.763A2.007,2.007,0,0,1,358.64,322.311Z"/><path d="M373.409,281.778a1.873,1.873,0,1,1,.6-2.579A1.873,1.873,0,0,1,373.409,281.778Z"/><path d="M387,239.682a1.862,1.862,0,1,1,.6-2.565A1.864,1.864,0,0,1,387,239.682Z"/><path d="M399,196.081a1.761,1.761,0,1,1,.567-2.425A1.76,1.76,0,0,1,399,196.081Z"/><path d="M409.286,151.253a1.7,1.7,0,1,1,.546-2.34A1.7,1.7,0,0,1,409.286,151.253Z"/><path d="M417.641,105.184a1.547,1.547,0,1,1,.5-2.131A1.546,1.546,0,0,1,417.641,105.184Z"/><path d="M424.029,58.066a1.482,1.482,0,1,1,.477-2.04A1.482,1.482,0,0,1,424.029,58.066Z"/><path d="M428.263,9.863a1.428,1.428,0,1,1,.46-1.966A1.428,1.428,0,0,1,428.263,9.863Z"/><path d="M306.7,474.075a2.016,2.016,0,1,1,.649-2.776A2.016,2.016,0,0,1,306.7,474.075Z"/><path d="M321.86,442.9a2.016,2.016,0,1,1,.648-2.776A2.017,2.017,0,0,1,321.86,442.9Z"/><path d="M337.553,409.587a2.016,2.016,0,1,1,.649-2.777A2.017,2.017,0,0,1,337.553,409.587Z"/><path d="M353.643,373.814a2.016,2.016,0,1,1,.649-2.777A2.016,2.016,0,0,1,353.643,373.814Z"/><path d="M369.665,335.581a2.016,2.016,0,1,1,.649-2.777A2.016,2.016,0,0,1,369.665,335.581Z"/><path d="M384.982,295.2a2.006,2.006,0,1,1,.646-2.763A2.007,2.007,0,0,1,384.982,295.2Z"/><path d="M399.083,252.957a1.939,1.939,0,1,1,.624-2.67A1.937,1.937,0,0,1,399.083,252.957Z"/><path d="M411.65,209.163a1.863,1.863,0,1,1,.6-2.565A1.863,1.863,0,0,1,411.65,209.163Z"/><path d="M422.44,164.026a1.771,1.771,0,1,1,.57-2.439A1.771,1.771,0,0,1,422.44,164.026Z"/><path d="M431.305,117.714a1.7,1.7,0,1,1,.547-2.34A1.7,1.7,0,0,1,431.305,117.714Z"/><path d="M438.1,70.292a1.63,1.63,0,1,1,.524-2.244A1.629,1.629,0,0,1,438.1,70.292Z"/><path d="M442.667,21.785a1.538,1.538,0,1,1,.5-2.118A1.538,1.538,0,0,1,442.667,21.785Z"/><path d="M317.967,485.058a2.016,2.016,0,1,1,.649-2.776A2.016,2.016,0,0,1,317.967,485.058Z"/><path d="M333.659,453.7a2.016,2.016,0,1,1,.649-2.776A2.016,2.016,0,0,1,333.659,453.7Z"/><path d="M349.049,421.038a2.016,2.016,0,1,1,.649-2.776A2.015,2.015,0,0,1,349.049,421.038Z"/><path d="M365.021,385.851a2.016,2.016,0,1,1,.649-2.776A2.015,2.015,0,0,1,365.021,385.851Z"/><path d="M381.162,348.033a2.016,2.016,0,1,1,.649-2.777A2.016,2.016,0,0,1,381.162,348.033Z"/><path d="M396.768,307.917a2.016,2.016,0,1,1,.649-2.776A2.017,2.017,0,0,1,396.768,307.917Z"/><path d="M411.287,265.848a2.017,2.017,0,1,1,.649-2.777A2.016,2.016,0,0,1,411.287,265.848Z"/><path d="M424.278,222.07a1.939,1.939,0,1,1,.624-2.67A1.939,1.939,0,0,1,424.278,222.07Z"/><path d="M435.506,176.9a1.862,1.862,0,1,1,.6-2.564A1.863,1.863,0,0,1,435.506,176.9Z"/><path d="M444.787,130.541a1.8,1.8,0,1,1,.579-2.476A1.8,1.8,0,0,1,444.787,130.541Z"/><path d="M451.954,83.054a1.7,1.7,0,1,1,.547-2.34A1.7,1.7,0,0,1,451.954,83.054Z"/><path d="M456.907,34.562a1.629,1.629,0,1,1,.525-2.244A1.629,1.629,0,0,1,456.907,34.562Z"/><path d="M328.9,496.25a2.016,2.016,0,1,1,.649-2.777A2.016,2.016,0,0,1,328.9,496.25Z"/><path d="M345.121,464.761a2.016,2.016,0,1,1,.648-2.776A2.016,2.016,0,0,1,345.121,464.761Z"/><path d="M361.486,431.441a2.016,2.016,0,1,1,.649-2.776A2.016,2.016,0,0,1,361.486,431.441Z"/><path d="M377.416,396.61a2.016,2.016,0,1,1,.649-2.776A2.015,2.015,0,0,1,377.416,396.61Z"/><path d="M393.4,359.39a2.016,2.016,0,1,1,.649-2.776A2.016,2.016,0,0,1,393.4,359.39Z"/><path d="M409.054,319.722a2.016,2.016,0,1,1,.649-2.777A2.016,2.016,0,0,1,409.054,319.722Z"/><path d="M423.761,277.974a2.016,2.016,0,1,1,.648-2.776A2.016,2.016,0,0,1,423.761,277.974Z"/><path d="M437.06,234.5a2.016,2.016,0,1,1,.649-2.777A2.016,2.016,0,0,1,437.06,234.5Z"/><path d="M448.594,189.518a1.939,1.939,0,1,1,.624-2.67A1.938,1.938,0,0,1,448.594,189.518Z"/><path d="M458.2,143.339a1.873,1.873,0,1,1,.6-2.579A1.872,1.872,0,0,1,458.2,143.339Z"/><path d="M465.711,96.089a1.8,1.8,0,1,1,.578-2.476A1.8,1.8,0,0,1,465.711,96.089Z"/><path d="M471.036,47.893a1.761,1.761,0,1,1,.567-2.425A1.761,1.761,0,0,1,471.036,47.893Z"/><path d="M356.837,475.523a2.016,2.016,0,1,1,.649-2.777A2.016,2.016,0,0,1,356.837,475.523Z"/><path d="M373.932,441.8a2.016,2.016,0,1,1,.649-2.777A2.016,2.016,0,0,1,373.932,441.8Z"/><path d="M390.755,406.24a2.016,2.016,0,1,1,.648-2.777A2.017,2.017,0,0,1,390.755,406.24Z"/><path d="M406.657,369.355a2.016,2.016,0,1,1,.649-2.777A2.017,2.017,0,0,1,406.657,369.355Z"/><path d="M422.1,330.3a2.016,2.016,0,1,1,.649-2.776A2.016,2.016,0,0,1,422.1,330.3Z"/><path d="M436.775,289.055a2.016,2.016,0,1,1,.649-2.776A2.015,2.015,0,0,1,436.775,289.055Z"/><path d="M450.157,246a2.016,2.016,0,1,1,.648-2.776A2.016,2.016,0,0,1,450.157,246Z"/><path d="M461.884,201.475a2.016,2.016,0,1,1,.649-2.777A2.016,2.016,0,0,1,461.884,201.475Z"/><path d="M471.681,155.688a1.939,1.939,0,1,1,.624-2.67A1.94,1.94,0,0,1,471.681,155.688Z"/><path d="M479.441,108.9a1.873,1.873,0,1,1,.6-2.579A1.873,1.873,0,0,1,479.441,108.9Z"/><path d="M485.067,61.238a1.852,1.852,0,1,1,.6-2.55A1.851,1.851,0,0,1,485.067,61.238Z"/><path d="M488.391,12.674a1.761,1.761,0,1,1,.567-2.426A1.761,1.761,0,0,1,488.391,12.674Z"/><path d="M369.033,485.8a2.016,2.016,0,1,1,.649-2.777A2.017,2.017,0,0,1,369.033,485.8Z"/><path d="M386.537,451.952a2.016,2.016,0,1,1,.649-2.776A2.016,2.016,0,0,1,386.537,451.952Z"/><path d="M404.057,415.892a2.016,2.016,0,1,1,.649-2.777A2.016,2.016,0,0,1,404.057,415.892Z"/><path d="M420.807,378.142a2.016,2.016,0,1,1,.649-2.777A2.016,2.016,0,0,1,420.807,378.142Z"/><path d="M436.142,339.38a2.016,2.016,0,1,1,.649-2.777A2.016,2.016,0,0,1,436.142,339.38Z"/><path d="M450.554,298.768a2.016,2.016,0,1,1,.649-2.776A2.016,2.016,0,0,1,450.554,298.768Z"/><path d="M463.818,256.276a2.016,2.016,0,1,1,.649-2.776A2.015,2.015,0,0,1,463.818,256.276Z"/><path d="M475.526,212.3a2.016,2.016,0,1,1,.649-2.776A2.017,2.017,0,0,1,475.526,212.3Z"/><path d="M485.414,167.15a2.016,2.016,0,1,1,.649-2.776A2.015,2.015,0,0,1,485.414,167.15Z"/><path d="M493.282,121a1.939,1.939,0,1,1,.624-2.67A1.939,1.939,0,0,1,493.282,121Z"/><path d="M499.1,74.089a1.928,1.928,0,1,1,.621-2.655A1.928,1.928,0,0,1,499.1,74.089Z"/><path d="M502.732,26.393a1.862,1.862,0,1,1,.6-2.564A1.862,1.862,0,0,1,502.732,26.393Z"/><path d="M381.776,495.561a2.016,2.016,0,1,1,.649-2.776A2.015,2.015,0,0,1,381.776,495.561Z"/><path d="M399.408,461.813a2.016,2.016,0,1,1,.649-2.776A2.015,2.015,0,0,1,399.408,461.813Z"/><path d="M417.367,425.517a2.016,2.016,0,1,1,.649-2.776A2.015,2.015,0,0,1,417.367,425.517Z"/><path d="M434.824,387.1a2.017,2.017,0,1,1,.649-2.777A2.017,2.017,0,0,1,434.824,387.1Z"/><path d="M450.982,347.268a2.017,2.017,0,1,1,.649-2.777A2.016,2.016,0,0,1,450.982,347.268Z"/><path d="M465.263,306.874a2.016,2.016,0,1,1,.649-2.777A2.016,2.016,0,0,1,465.263,306.874Z"/><path d="M478.219,265.036a2.016,2.016,0,1,1,.649-2.776A2.015,2.015,0,0,1,478.219,265.036Z"/><path d="M489.733,221.7a2.016,2.016,0,1,1,.649-2.777A2.016,2.016,0,0,1,489.733,221.7Z"/><path d="M499.512,177.238a2.016,2.016,0,1,1,.649-2.776A2.015,2.015,0,0,1,499.512,177.238Z"/><path d="M412.53,471.405a2.016,2.016,0,1,1,.649-2.777A2.017,2.017,0,0,1,412.53,471.405Z"/><path d="M430.706,435.092a2.016,2.016,0,1,1,.648-2.776A2.016,2.016,0,0,1,430.706,435.092Z"/><path d="M448.669,396.264a2.016,2.016,0,1,1,.649-2.777A2.016,2.016,0,0,1,448.669,396.264Z"/><path d="M465.561,355.541a2.016,2.016,0,1,1,.649-2.776A2.017,2.017,0,0,1,465.561,355.541Z"/><path d="M480.64,313.831a2.016,2.016,0,1,1,.649-2.776A2.017,2.017,0,0,1,480.64,313.831Z"/><path d="M493.451,272.117a2.016,2.016,0,1,1,.649-2.776A2.016,2.016,0,0,1,493.451,272.117Z"/><path d="M425.79,480.843a2.016,2.016,0,1,1,.649-2.776A2.015,2.015,0,0,1,425.79,480.843Z"/><path d="M444,444.7a2.016,2.016,0,1,1,.649-2.776A2.016,2.016,0,0,1,444,444.7Z"/><path d="M462.308,405.683a2.016,2.016,0,1,1,.649-2.777A2.016,2.016,0,0,1,462.308,405.683Z"/><path d="M479.79,364.329a2.016,2.016,0,1,1,.649-2.776A2.016,2.016,0,0,1,479.79,364.329Z"/><path d="M495.626,321.458a2.016,2.016,0,1,1,.649-2.776A2.015,2.015,0,0,1,495.626,321.458Z"/><path d="M439.012,490.3a2.016,2.016,0,1,1,.649-2.777A2.016,2.016,0,0,1,439.012,490.3Z"/><path d="M457.12,454.478a2.017,2.017,0,1,1,.648-2.777A2.017,2.017,0,0,1,457.12,454.478Z"/><path d="M475.639,415.474a2.016,2.016,0,1,1,.648-2.776A2.017,2.017,0,0,1,475.639,415.474Z"/><path d="M493.6,373.722a2.016,2.016,0,1,1,.649-2.776A2.015,2.015,0,0,1,493.6,373.722Z"/><path d="M451.986,499.982a2.016,2.016,0,1,1,.649-2.776A2.016,2.016,0,0,1,451.986,499.982Z"/><path d="M469.881,464.619a2.016,2.016,0,1,1,.649-2.776A2.016,2.016,0,0,1,469.881,464.619Z"/><path d="M488.516,425.8a2.016,2.016,0,1,1,.649-2.776A2.015,2.015,0,0,1,488.516,425.8Z"/><path d="M482.1,475.3a2.016,2.016,0,1,1,.649-2.776A2.016,2.016,0,0,1,482.1,475.3Z"/><path d="M500.776,436.844a2.016,2.016,0,1,1,.649-2.776A2.015,2.015,0,0,1,500.776,436.844Z"/><path d="M493.6,486.675a2.016,2.016,0,1,1,.649-2.776A2.015,2.015,0,0,1,493.6,486.675Z"/></g><path class="cls-4" d="M-105.689,575.405a.216.216,0,0,1-.149-.059.216.216,0,0,1-.049-.245l59.2-133.211a.216.216,0,0,1,.137-.12.214.214,0,0,1,.18.027L43,500.921a.215.215,0,0,1,.1.194.218.218,0,0,1-.12.18l-148.566,74.088A.217.217,0,0,1-105.689,575.405ZM-46.394,442.3l-58.852,132.428,147.69-73.652Z"/><path class="cls-4" d="M212.008,589.338a.217.217,0,0,1-.205-.288l33.906-96.41a.222.222,0,0,1,.262-.137l81.072,22.462a.215.215,0,0,1,.059.39L212.124,589.3A.2.2,0,0,1,212.008,589.338Zm34.042-96.363L212.42,588.6l114.042-73.346Z"/><path class="cls-4" d="M113.429,537.868a.206.206,0,0,1-.1-.023h0a.215.215,0,0,1-.118-.216L123.5,438.037a.216.216,0,0,1,.107-.166.222.222,0,0,1,.2-.01L246,492.514a.217.217,0,0,1,.128.208.215.215,0,0,1-.146.194L113.5,537.857A.205.205,0,0,1,113.429,537.868Zm10.474-99.49L113.678,537.34l131.644-44.656Z"/><path class="cls-4" d="M212.008,589.337a.22.22,0,0,1-.1-.024l-98.58-51.47a.216.216,0,0,1-.093-.29.219.219,0,0,1,.147-.113l132.462-44.933a.214.214,0,0,1,.223.053.22.22,0,0,1,.051.224l-33.906,96.409a.218.218,0,0,1-.125.129A.213.213,0,0,1,212.008,589.337Zm-98.029-51.643,97.907,51.119,33.676-95.754Z"/><path class="cls-4" d="M42.876,501.319a.2.2,0,0,1-.109-.031.211.211,0,0,1-.1-.221l13.489-80.6a.215.215,0,0,1,.267-.174l67.353,17.553a.215.215,0,0,1,.157.166.217.217,0,0,1-.077.215L43.01,501.273A.22.22,0,0,1,42.876,501.319ZM56.54,420.774,43.181,500.59l80.06-62.432Z"/><path class="cls-4" d="M113.428,537.867a.223.223,0,0,1-.1-.024l-70.551-36.55a.212.212,0,0,1-.115-.171.214.214,0,0,1,.081-.19l80.843-63.044a.221.221,0,0,1,.238-.018.213.213,0,0,1,.11.211l-10.292,99.592a.213.213,0,0,1-.111.168A.21.21,0,0,1,113.428,537.867Zm-70.153-36.8,69.97,36.248,10.207-98.772Z"/><path class="cls-4" d="M-46.487,442.194h0a.215.215,0,0,1-.177-.092.209.209,0,0,1-.025-.2l16-43.735a.21.21,0,0,1,.257-.135L56.42,420.3a.217.217,0,0,1-.01.422L-46.443,442.19A.206.206,0,0,1-46.487,442.194ZM-30.353,398.5l-15.8,43.186,101.564-21.2Z"/><path class="cls-4" d="M42.876,501.318a.221.221,0,0,1-.12-.036l-89.365-59.123a.219.219,0,0,1-.087-.244.217.217,0,0,1,.175-.151l102.843-21.47a.228.228,0,0,1,.2.055.221.221,0,0,1,.062.192l-13.49,80.6a.212.212,0,0,1-.126.163A.219.219,0,0,1,42.876,501.318Zm-88.812-59.234,88.654,58.654L56.1,420.782Z"/><path class="cls-4" d="M465.49,526.171a.215.215,0,0,1-.218-.225L461.2,456.98a.217.217,0,0,1,.076-.177.221.221,0,0,1,.186-.047l78.672,16.931a.217.217,0,0,1,.078.388l-74.585,52.051a.277.277,0,0,1-.037.022A.206.206,0,0,1,465.49,526.171Zm-3.844-68.932,4.036,68.317,73.872-51.551Z"/><path class="cls-4" d="M326.986,515.39a.226.226,0,0,1-.151-.06.218.218,0,0,1-.047-.245l64.881-143.9a.218.218,0,0,1,.171-.126.215.215,0,0,1,.194.079l69.546,85.7a.217.217,0,0,1-.081.335l-134.42,58.2A.221.221,0,0,1,326.986,515.39Zm64.933-143.712L327.413,514.753l133.652-57.871Z"/><path class="cls-4" d="M465.49,526.171h-.017l-138.5-10.781a.218.218,0,0,1-.2-.174.215.215,0,0,1,.116-.235l.012-.006,134.425-58.205a.224.224,0,0,1,.2.014.217.217,0,0,1,.1.172l4.077,68.987a.216.216,0,0,1-.216.229ZM327.871,515.026,465.26,525.72l-4.045-68.432Z"/><path class="cls-4" d="M245.913,492.929a.207.207,0,0,1-.1-.027.216.216,0,0,1-.11-.218l20.5-154.406a.221.221,0,0,1,.1-.151.228.228,0,0,1,.176-.029L391.923,371.06a.217.217,0,0,1,.082.376L246.052,492.879A.222.222,0,0,1,245.913,492.929Zm20.679-154.351L246.2,492.192l145.2-120.82Z"/><path class="cls-4" d="M326.986,515.39a.232.232,0,0,1-.058-.008l-81.072-22.461a.217.217,0,0,1-.081-.375L391.728,371.1a.217.217,0,0,1,.336.255l-64.881,143.9A.215.215,0,0,1,326.986,515.39Zm-80.617-22.775,80.495,22.3,64.42-142.88Z"/><path class="cls-4" d="M123.719,438.274a.211.211,0,0,1-.142-.054.216.216,0,0,1-.051-.262l46.5-89.347a.225.225,0,0,1,.17-.116l96.192-10.4a.227.227,0,0,1,.227.139.218.218,0,0,1-.08.253l-142.69,99.752A.216.216,0,0,1,123.719,438.274Zm46.637-89.36-46.037,88.461L265.6,338.613Z"/><path class="cls-4" d="M245.913,492.928a.22.22,0,0,1-.088-.018L123.631,438.257a.218.218,0,0,1-.127-.178.215.215,0,0,1,.092-.2L266.287,338.13a.215.215,0,0,1,.337.206l-20.5,154.4a.216.216,0,0,1-.11.16A.213.213,0,0,1,245.913,492.928ZM124.157,438.017,245.738,492.4l20.393-153.63Z"/><path class="cls-4" d="M56.366,420.723a.217.217,0,0,1-.2-.3l39.376-88.142a.219.219,0,0,1,.243-.124L170.263,348.5a.214.214,0,0,1,.167.174.217.217,0,0,1-.1.22L56.481,420.69A.214.214,0,0,1,56.366,420.723Zm39.5-88.109L56.855,419.943l112.8-71.134Z"/><path class="cls-4" d="M123.719,438.275a.2.2,0,0,1-.054-.007L56.312,420.715a.213.213,0,0,1-.159-.176.219.219,0,0,1,.1-.216L170.1,348.528a.217.217,0,0,1,.308.282l-46.5,89.349A.22.22,0,0,1,123.719,438.275ZM56.9,420.423l66.7,17.383,46.048-88.486Z"/><path class="cls-4" d="M-30.488,398.459a.216.216,0,0,1-.115-.033.214.214,0,0,1-.1-.191l4.315-123.257a.219.219,0,0,1,.1-.177.219.219,0,0,1,.206-.011L95.836,332.169a.216.216,0,0,1,.006.387l-126.23,65.878A.221.221,0,0,1-30.488,398.459Zm4.52-123.138-4.29,122.558,125.514-65.5Z"/><path class="cls-4" d="M56.366,420.722a.258.258,0,0,1-.054-.007l-86.854-22.262a.218.218,0,0,1-.161-.185.218.218,0,0,1,.115-.217L95.643,332.173a.216.216,0,0,1,.3.28l-39.376,88.14A.216.216,0,0,1,56.366,420.722Zm-86.254-22.549,86.131,22.078,39.048-87.407Z"/><path class="cls-4" d="M461.414,457.184h0a.217.217,0,0,1-.2-.3L524.57,312.321a.215.215,0,0,1,.167-.127.209.209,0,0,1,.2.075l53.558,64.1a.22.22,0,0,1,.049.168.224.224,0,0,1-.091.148L461.538,457.146A.229.229,0,0,1,461.414,457.184Zm63.411-144.37-62.91,143.547,116.092-79.9Z"/><path class="cls-4" d="M391.867,371.486a.215.215,0,0,1-.083-.016.219.219,0,0,1-.118-.121l-31.687-80.5a.215.215,0,0,1,.03-.213.219.219,0,0,1,.2-.081L524.8,312.193a.217.217,0,0,1,.059.413l-132.9,58.861A.212.212,0,0,1,391.867,371.486Zm-31.351-80.453,31.469,79.948,131.991-58.459Z"/><path class="cls-4" d="M461.413,457.184a.213.213,0,0,1-.168-.081l-69.545-85.7a.208.208,0,0,1-.043-.187.215.215,0,0,1,.122-.147l132.9-58.862a.216.216,0,0,1,.285.285L461.61,457.054a.214.214,0,0,1-.169.128Zm-69.2-85.831,69.144,85.2,62.988-143.725Z"/><path class="cls-4" d="M266.41,338.523a.211.211,0,0,1-.1-.022.218.218,0,0,1-.12-.194.21.21,0,0,1,.116-.193l93.772-47.535a.215.215,0,0,1,.284.081.218.218,0,0,1-.061.288L341.827,304.1,266.5,338.5A.238.238,0,0,1,266.41,338.523ZM357.7,292.269l-81.778,41.455,65.687-30Z"/><path class="cls-4" d="M391.867,371.486a.268.268,0,0,1-.056-.007L266.354,338.516a.252.252,0,0,1-.14-.2.212.212,0,0,1,.1-.2l93.772-47.535a.218.218,0,0,1,.3.113l31.687,80.5a.216.216,0,0,1-.2.3ZM267.006,338.245l124.5,32.707-31.443-79.88Z"/><path class="cls-4" d="M170.217,348.926a.216.216,0,0,1-.206-.279L207.87,224.491a.215.215,0,0,1,.129-.139.222.222,0,0,1,.187.016L341.812,303.74a.216.216,0,0,1-.056.4L170.271,348.919A.19.19,0,0,1,170.217,348.926ZM208.2,224.881,170.536,348.4l170.61-44.554Z"/><path class="cls-4" d="M170.217,348.927a.217.217,0,0,1-.054-.427l171.485-44.783a.226.226,0,0,1,.259.136.217.217,0,0,1-.115.27L266.5,338.5a.261.261,0,0,1-.066.019l-96.193,10.4Zm169.125-44.161L173.1,348.181,266.352,338.1Z"/><path class="cls-4" d="M95.743,332.581a.219.219,0,0,1-.11-.03.217.217,0,0,1-.1-.24l31.454-121.024a.218.218,0,0,1,.245-.159l80.88,13.212a.216.216,0,0,1,.17.15.211.211,0,0,1-.055.22L95.893,332.521A.217.217,0,0,1,95.743,332.581Zm31.614-120.995L96.145,331.68,207.615,224.7Z"/><path class="cls-4" d="M170.217,348.927a.23.23,0,0,1-.045,0L95.7,332.576a.218.218,0,0,1-.105-.368L207.926,224.4a.216.216,0,0,1,.356.22L170.423,348.774A.215.215,0,0,1,170.217,348.927ZM96.185,332.24l73.883,16.217,37.559-123.172Z"/><path class="cls-4" d="M95.743,332.581a.232.232,0,0,1-.093-.02L-26.244,275.192a.219.219,0,0,1-.127-.116.216.216,0,0,1,.1-.283h0l.02-.009,153.363-63.641a.222.222,0,0,1,.224.036.216.216,0,0,1,.068.217L95.952,332.419a.215.215,0,0,1-.209.162ZM-25.639,275,95.6,332.058l31.278-120.35Z"/><path class="cls-4" d="M360.18,290.988a.216.216,0,0,1-.211-.266.215.215,0,0,1,.121-.15l58.7-36.941a.21.21,0,0,1,.07-.028l129.256-27.484a.216.216,0,0,1,.117.415l-187.957,64.43A.212.212,0,0,1,360.18,290.988Zm58.81-36.97-57.112,35.941,182.831-62.674Z"/><path class="cls-4" d="M524.768,312.624l-.029,0L360.151,290.986a.218.218,0,0,1-.044-.421l187.986-64.439a.216.216,0,0,1,.28.261l-23.4,86.077A.218.218,0,0,1,524.768,312.624Zm-163.65-21.947,163.491,21.492,23.239-85.5Z"/><path class="cls-4" d="M341.7,304.142a.218.218,0,0,1-.214-.19l-10.211-79.933a.217.217,0,0,1,.078-.195.214.214,0,0,1,.206-.037l87.415,29.822a.217.217,0,0,1,.049.387l-77.2,50.111A.223.223,0,0,1,341.7,304.142Zm-9.952-79.834,10.123,79.249,76.543-49.682Z"/><path class="cls-4" d="M341.7,304.142a.216.216,0,0,1-.125-.393L360.055,290.6l58.737-36.964a.22.22,0,0,1,.3.066.217.217,0,0,1-.065.3l-77.2,50.107h0l-.006.005A.228.228,0,0,1,341.7,304.142Zm51.224-33.722L360.3,290.955l-10.256,7.3Z"/><path class="cls-4" d="M208.076,224.771a.218.218,0,0,1-.2-.131.215.215,0,0,1,.045-.236l58.42-59.6a.215.215,0,0,1,.3-.008l65,59.035a.215.215,0,0,1-.143.376l-123.416.563Zm58.429-59.515-57.912,59.08,122.341-.558Z"/><path class="cls-4" d="M341.7,304.142a.214.214,0,0,1-.11-.03L207.966,224.74a.215.215,0,0,1-.1-.242.218.218,0,0,1,.207-.159l123.416-.564h0a.218.218,0,0,1,.215.19l10.21,79.934a.218.218,0,0,1-.1.208A.223.223,0,0,1,341.7,304.142ZM208.858,224.768l132.574,78.746L331.3,224.209Z"/><path class="cls-4" d="M418.907,254.029a.208.208,0,0,1-.128-.043.216.216,0,0,1-.068-.266l62.563-131.63a.219.219,0,0,1,.2-.124h0l82.547.374a.216.216,0,0,1,.144.376L419.052,253.974A.212.212,0,0,1,418.907,254.029Zm62.7-131.629L419.571,252.921,563.458,122.77Z"/><path class="cls-4" d="M418.907,254.03a.217.217,0,0,1-.145-.377L563.872,122.4a.217.217,0,0,1,.36.194L548.379,226.363a.219.219,0,0,1-.17.178L418.953,254.025A.18.18,0,0,1,418.907,254.03ZM563.712,123.124,419.649,253.435l128.324-27.286Z"/><path class="cls-4" d="M331.492,224.208a.222.222,0,0,1-.139-.05.219.219,0,0,1-.06-.252l44.62-103.772a.22.22,0,0,1,.2-.131h0l105.357,1.963a.217.217,0,0,1,.119.4L331.614,224.171A.229.229,0,0,1,331.492,224.208Zm44.763-103.77L331.984,223.4l148.8-101.011Z"/><path class="cls-4" d="M418.907,254.03a.183.183,0,0,1-.069-.012L331.423,224.2a.219.219,0,0,1-.146-.176.221.221,0,0,1,.093-.208L481.348,122a.217.217,0,0,1,.318.272L419.1,253.907A.218.218,0,0,1,418.907,254.03Zm-86.935-30.1,86.822,29.62,62.139-130.739Z"/><path class="cls-4" d="M331.492,224.208a.22.22,0,0,1-.145-.056l-64.988-59.028a.209.209,0,0,1-.076-.126.216.216,0,0,1,.13-.242l109.619-44.737a.211.211,0,0,1,.234.049.215.215,0,0,1,.046.237L331.691,224.077a.217.217,0,0,1-.153.126A.249.249,0,0,1,331.492,224.208Zm-64.6-59.181,64.517,58.6,44.294-103.008Z"/><path class="cls-4" d="M481.47,122.4a.223.223,0,0,1-.123-.038.216.216,0,0,1-.076-.262L528.205,9.911a.212.212,0,0,1,.153-.127.216.216,0,0,1,.193.053l36.181,33.657a.214.214,0,0,1,0,.315L481.619,122.34A.225.225,0,0,1,481.47,122.4ZM528.483,10.365l-46.42,110.959,82.206-77.671Z"/><path class="cls-4" d="M564.017,122.772h0l-82.548-.373a.215.215,0,0,1-.2-.137.218.218,0,0,1,.052-.237L564.436,43.5a.217.217,0,0,1,.366.159l-.568,78.9A.217.217,0,0,1,564.017,122.772Zm-82.006-.8,81.792.37.563-78.182Z"/><path class="cls-4" d="M481.47,122.4h0l-105.358-1.963a.232.232,0,0,1-.093-.023.219.219,0,0,1-.119-.177.216.216,0,0,1,.087-.193L528.277,9.82a.216.216,0,0,1,.326.259L481.669,122.266A.215.215,0,0,1,481.47,122.4Zm-104.708-2.384,104.564,1.949L527.907,10.621Z"/></g><path d="M161.789,222.486l-4.351,8.121H145.482l-9.829,27.651q-3.415,9.572-13.213,9.571H99.882a26.489,26.489,0,0,1,2.481-5.124,4.94,4.94,0,0,1,5.189-2.61l15.05,2.384,11.279-31.872H115.254a12.2,12.2,0,0,0-7.412,2.417,7.95,7.95,0,0,0-3.61,6.639q0,2.772,1.87,3.158a8.977,8.977,0,0,1,3.512-5.059,9.19,9.19,0,0,1,5.318-1.612,8.057,8.057,0,0,1,6.09,2.417,7.517,7.517,0,0,1,2.16,5.382,6.97,6.97,0,0,1-2.546,5.511q-2.869,2.514-8.025,2.514a15.3,15.3,0,0,1-9.668-3.126,11.574,11.574,0,0,1-4.576-9.668,14.688,14.688,0,0,1,5.318-11.344q5.994-5.349,16.338-5.35Z"/><path d="M185.089,262.673a4.464,4.464,0,0,1-2.482,3.8,8.584,8.584,0,0,1-4.576,1.353H165.688q-4.9,0-4.9-4.06a6.742,6.742,0,0,1,.419-2.224l3.642-10.474h-6.865l-3.577,9.249q-.9,2.353-3.9,2.353h-3.416l4.221-11.6a5.567,5.567,0,0,1-3.239-2.014,5.624,5.624,0,0,1-1.24-3.593,6.336,6.336,0,0,1,3.448-5.736,13.3,13.3,0,0,1,6.832-1.676h5.221l-2.707,7.863h17.821l-5.865,16.758Z"/><path d="M209.646,262.673a6.65,6.65,0,0,1-3.481,4.189,8.97,8.97,0,0,1-4.125.967H189.311q-4.611,0-4.609-3.867a7,7,0,0,1,.451-2.353l5.608-15.694h11.7L196.5,262.673ZM207.325,232.7a7.114,7.114,0,0,1-2.5,5.479,9.22,9.22,0,0,1-12.085,0,7.223,7.223,0,0,1,0-10.925,9.22,9.22,0,0,1,12.085,0A7.08,7.08,0,0,1,207.325,232.7Z"/><path d="M251.282,262.673q-1.547,5.156-7.9,5.156H231.173q-5.221,0-5.221-3.351a11.06,11.06,0,0,1-8.637,4,8.346,8.346,0,0,1-6.123-2.321,8.133,8.133,0,0,1-2.352-6.058A12.618,12.618,0,0,1,214,249.46a18.587,18.587,0,0,1,11.569-3.545h18.4l-6.059,16.758Zm-20.786-11.6h-7.122l-2.256,7.509a4.935,4.935,0,0,0-.193,1.289q0,2.8,5.478,2.8Z"/><path d="M295.368,262.673a6.562,6.562,0,0,1-3.706,4.189,9.982,9.982,0,0,1-4.35.967H274.453q-4.416,0-4.415-2.9a6.962,6.962,0,0,1,.451-2.256l2.449-6.929-11.085,9.378q-3.9,2.708-6.414,2.707H249.51l7.7-21.914h11.634L265.2,256.228l9.829-8.057a12.858,12.858,0,0,1,8.669-3.126q3.159.129,3.158,3.351a8.253,8.253,0,0,1-.515,2.675l-4.157,11.6Z"/><path d="M336.812,262.673q-1.484,5.156-9.572,5.156H321.5q-2.87,7.8-5.7,11.279a13.028,13.028,0,0,1-10.538,5.092,8.063,8.063,0,0,1-5.753-2.014,7.3,7.3,0,0,1-2.143-5.591q0-6.993,4.093-9.024a9.69,9.69,0,0,1-5-2.8A8.027,8.027,0,0,1,294.176,259a9.95,9.95,0,0,1,.419-2.771,12.409,12.409,0,0,1,6.091-7.928,19.508,19.508,0,0,1,9.925-2.385h18.434l-5.9,16.758ZM309.9,268.7q-2.1,0-3.916,2.4a7.905,7.905,0,0,0-1.82,4.786A3.984,3.984,0,0,0,306,279.3Zm5.672-17.628H308.71l-2.578,8.186a4.663,4.663,0,0,0-.226,1.353q0,2.74,4,2.74.258,0,.757-.033c.333-.021.585-.032.758-.032Z"/><path d="M361.368,262.673a6.446,6.446,0,0,1-3.706,4.189,9.982,9.982,0,0,1-4.35.967H340.9q-4.768,0-4.769-3.255a6.1,6.1,0,0,1,.354-1.9l11.956-33.709h11.409l-12.021,33.709Z"/><path d="M401.619,262.673a6.366,6.366,0,0,1-3.094,3.9,9.616,9.616,0,0,1-4.93,1.257h-17.95q-15.663,0-15.663-9.442a10.755,10.755,0,0,1,5.35-9.507,19.8,19.8,0,0,1,10.957-2.965h4.673a19,19,0,0,1,7.186,1.257q4.125,1.675,4.319,5.092.161,3.448-3.32,5.736H378.48l3.481-6.929h-6.8l-2.642,7.767a3.9,3.9,0,0,0-.226,1.225q0,2.61,4.189,2.61Z"/></svg>