<svg id="tr" xmlns="http://www.w3.org/2000/svg" viewBox="0 0 410.941 265.304"><defs><style>.cls-1,.cls-2{fill:none;}.cls-1,.cls-2,.cls-3{stroke:#000;stroke-miterlimit:10;}.cls-1{stroke-width:3px;}.cls-3{fill:#fff;}.cls-4{font-size:28px;}.cls-4,.cls-5{font-family:TimesNewRomanPSMT, Times New Roman;}.cls-5{font-size:24px;}.cls-6{letter-spacing:-0.013em;}.cls-7{letter-spacing:-0.051em;}.cls-8{letter-spacing:-0.007em;}.cls-9{letter-spacing:-0.006em;}.cls-10{letter-spacing:0.012em;}.cls-11{letter-spacing:-0.038em;}.cls-12{letter-spacing:-0.063em;}.cls-13{letter-spacing:-0.025em;}.cls-14{letter-spacing:0.009em;}.cls-15{letter-spacing:-0.015em;}</style></defs><title>skhema-seti-treugolnikov</title><polyline class="cls-1" points="65.463 207.841 205.463 226.841 303.463 140.841 279.463 16.841 112.963 16.841"/><line class="cls-2" x1="279.463" y1="16.841" x2="206.463" y2="100.841"/><line class="cls-2" x1="112.463" y1="16.841" x2="206.463" y2="100.841"/><line class="cls-2" x1="303.463" y1="140.841" x2="206.463" y2="100.841"/><line class="cls-2" x1="150.463" y1="155.841" x2="206.463" y2="100.841"/><line class="cls-2" x1="303.463" y1="140.841" x2="150.463" y2="155.841"/><line class="cls-2" x1="205.463" y1="226.841" x2="150.463" y2="155.841"/><line class="cls-2" x1="65.463" y1="207.841" x2="150.463" y2="155.841"/><rect class="cls-3" x="270.463" y="5.841" width="22" height="22"/><rect class="cls-3" x="55.463" y="196.841" width="22" height="22"/><polygon class="cls-3" points="114.504 2.508 100.648 26.508 128.361 26.508 114.504 2.508"/><polygon class="cls-3" points="206.504 85.508 192.648 109.508 220.361 109.508 206.504 85.508"/><polygon class="cls-3" points="301.504 124.508 287.648 148.508 315.361 148.508 301.504 124.508"/><polygon class="cls-3" points="204.504 208.508 190.648 232.508 218.361 232.508 204.504 208.508"/><polygon class="cls-3" points="150.504 141.508 136.648 165.508 164.361 165.508 150.504 141.508"/><text class="cls-4" transform="translate(197.453 59.039)">1</text><text class="cls-4" transform="translate(256.453 97.039)">2</text><text class="cls-4" transform="translate(209.453 141.039)">3</text><text class="cls-4" transform="translate(207.453 189.039)">4</text><text class="cls-4" transform="translate(137.453 206.039)">5</text><text class="cls-5" transform="translate(0 19.945)"><tspan class="cls-6">К</tspan><tspan x="15.691" y="0">аза</tspan><tspan class="cls-7" x="46.477" y="0">к</tspan><tspan x="56.918" y="0">о</tspan><tspan class="cls-8" x="68.918" y="0">в</tspan><tspan x="80.086" y="0">о</tspan></text><text class="cls-5" transform="translate(302 24.945)">Заозерный</text><text class="cls-5" transform="translate(58 104.945)">Покро<tspan class="cls-9" x="64.992" y="0">в</tspan><tspan x="76.184" y="0">с</tspan><tspan class="cls-7" x="86.836" y="0">к</tspan><tspan class="cls-10" x="97.277" y="0">о</tspan><tspan x="109.57" y="0">е</tspan></text><text class="cls-5" transform="translate(321 145.945)"><tspan class="cls-11">Т</tspan><tspan class="cls-6" x="13.746" y="0">р</tspan><tspan class="cls-12" x="25.43" y="0">у</tspan><tspan x="35.918" y="0">дный</tspan></text><text class="cls-5" transform="translate(170 257.945)"><tspan class="cls-13">Т</tspan><tspan class="cls-14" x="14.063" y="0">а</tspan><tspan x="24.926" y="0">лый</tspan></text><text class="cls-5" transform="translate(13 243.945)">Б<tspan class="cls-6" x="13.781" y="0">о</tspan><tspan x="25.465" y="0">л</tspan><tspan class="cls-6" x="37.441" y="0">о</tspan><tspan x="49.125" y="0">тный</tspan></text><text class="cls-5" transform="translate(33 158.945)">Знамен<tspan class="cls-15" x="74.203" y="0">к</tspan><tspan x="85.5" y="0">а</tspan></text></svg>