<svg id="pi" xmlns="http://www.w3.org/2000/svg" viewBox="0 0 427.591 393.704"><defs><style>.cls-1{stroke:#000;stroke-miterlimit:10;stroke-width:0.5px;}.cls-2{font-size:56px;font-family:TimesNewRomanPS-BoldMT, Times New Roman;font-weight:700;}</style></defs><title>chislo-pi</title><path class="cls-1" d="M328.5,51.5s-29,93-38,139-10,67-10,67-5,39,12,61,58,14,58,14,38.541-.947,42-39c1-11-1,14-1,14s-6,36-29,46-38,10-38,10-29,4-54-10a56,56,0,0,1-28-39s-5-40,0-66,25-119,34-147c6-29,6-50,6-50l-102,3-3,21s-7,57-18,93-7,39-29,81-29,55-54,88-74,59-74,59,2-13,14-30,36-62,36-62,38-60,55-100,26-60,32-86,6-54,3-64h-22s-31,0-58,19-53,72-53,72l-3,2s34-95,71-114c40.188-20.637,95-23,95-23s113-7,257-7l-3,43Z" transform="translate(-2.177 -3.25)"/><text class="cls-2" transform="translate(287.073 301.486)">3.14</text></svg>