<svg id="Слой_1" data-name="Слой 1" xmlns="http://www.w3.org/2000/svg" viewBox="0 0 417.553 456.847"><defs><style>.cls-1,.cls-2{font-size:16px;}.cls-1,.cls-10,.cls-19,.cls-7{font-family:TimesNewRomanPSMT, Times New Roman;}.cls-2{font-family:TimesNewRomanPS-ItalicMT, Times New Roman;font-style:italic;}.cls-3{letter-spacing:-0.018em;}.cls-11,.cls-12,.cls-18,.cls-21,.cls-4,.cls-6,.cls-8,.cls-9{fill:none;}.cls-11,.cls-12,.cls-18,.cls-21,.cls-4,.cls-5,.cls-6,.cls-8,.cls-9{stroke:#000;stroke-miterlimit:10;}.cls-5{fill:#f2f2f2;}.cls-6{stroke-dasharray:4;}.cls-10,.cls-19,.cls-7{font-size:10px;}.cls-8{stroke-dasharray:3.857 3.857;}.cls-9{stroke-dasharray:4 4;}.cls-10{letter-spacing:-0.037em;}.cls-11{stroke-dasharray:3.882 3.882;}.cls-12{stroke-dasharray:3.895 3.895;}.cls-13{letter-spacing:-0.05em;}.cls-14{letter-spacing:-0.038em;}.cls-15{letter-spacing:-0.025em;}.cls-16{letter-spacing:-0.013em;}.cls-17{letter-spacing:0.009em;}.cls-18{stroke-dasharray:4.166 4.166;}.cls-19{letter-spacing:-0.055em;}.cls-20{font-size:12px;}.cls-21{stroke-dasharray:3.934 3.934;}.cls-22{letter-spacing:-0.014em;}.cls-23{letter-spacing:-0.007em;}</style></defs><title>obshchij-figury</title><text class="cls-1" transform="translate(319.94 14.424)">Шар</text><text class="cls-2" transform="translate(303.982 161.177)"><tspan class="cls-3">V</tspan><tspan x="9.484" y="0" xml:space="preserve"> = 3/4πR3</tspan></text><circle class="cls-4" cx="335.561" cy="92.375" r="45"/><ellipse class="cls-5" cx="335.561" cy="92.375" rx="45" ry="10.678"/><line class="cls-6" x1="290.561" y1="92.375" x2="335.561" y2="92.375"/><line class="cls-6" x1="335.561" y1="47.375" x2="335.561" y2="92.375"/><text class="cls-7" transform="translate(318.769 100.643)">R</text><text class="cls-7" transform="translate(338.769 94.643)">O</text><text class="cls-1" transform="translate(38.655 13.299)">Цилиндр</text><text class="cls-2" transform="translate(37.711 158.302)"><tspan class="cls-3">V</tspan><tspan x="9.484" y="0" xml:space="preserve"> = πR2H</tspan></text><ellipse class="cls-5" cx="69.311" cy="55" rx="31" ry="12"/><ellipse class="cls-5" cx="69.811" cy="119.5" rx="31" ry="12"/><line class="cls-4" x1="100.311" y1="55.5" x2="100.311" y2="119.5"/><line class="cls-4" x1="38.311" y1="55.5" x2="38.311" y2="119.5"/><line class="cls-4" x1="69.811" y1="55.5" x2="38.811" y2="55.5"/><line class="cls-4" x1="38.811" y1="119.5" x2="40.811" y2="119.5"/><line class="cls-8" x1="44.668" y1="119.5" x2="65.882" y2="119.5"/><line class="cls-4" x1="67.811" y1="119.5" x2="69.811" y2="119.5"/><line class="cls-4" x1="69.811" y1="55.5" x2="69.811" y2="57.5"/><line class="cls-9" x1="69.811" y1="61.5" x2="69.811" y2="115.5"/><line class="cls-4" x1="69.811" y1="117.5" x2="69.811" y2="119.5"/><text class="cls-7" transform="translate(71.405 57.302)">O1</text><text class="cls-7" transform="translate(71.405 124.302)">O</text><text class="cls-7" transform="translate(71.405 93.302)">H</text><text class="cls-7" transform="translate(58.405 129.302)">R</text><ellipse class="cls-5" cx="195.811" cy="117.002" rx="39" ry="18"/><text class="cls-7" transform="translate(191.905 43.304)">S</text><text class="cls-7" transform="translate(192.905 127.304)">O</text><text class="cls-7" transform="translate(196.905 90.304)">H</text><text class="cls-10" transform="translate(217.905 81.304)">L</text><text class="cls-7" transform="translate(172.905 127.304)">R</text><line class="cls-4" x1="156.311" y1="116.502" x2="195.311" y2="46.502"/><line class="cls-4" x1="234.811" y1="116.502" x2="194.811" y2="46.502"/><line class="cls-4" x1="195.311" y1="116.502" x2="195.311" y2="114.502"/><line class="cls-11" x1="195.311" y1="110.62" x2="195.311" y2="50.443"/><line class="cls-4" x1="195.311" y1="48.502" x2="195.311" y2="46.502"/><line class="cls-4" x1="234.311" y1="116.502" x2="232.311" y2="116.502"/><line class="cls-12" x1="228.416" y1="116.502" x2="160.258" y2="116.502"/><line class="cls-4" x1="158.311" y1="116.502" x2="156.311" y2="116.502"/><text class="cls-2" transform="translate(157.703 158.304)"><tspan class="cls-3">V</tspan><tspan x="9.484" y="0" xml:space="preserve"> = 1/3πR2H</tspan></text><text class="cls-1" transform="translate(173.221 13.297)"><tspan class="cls-13">К</tspan><tspan x="9.875" y="0">онус</tspan></text><text class="cls-2" transform="translate(169.027 418.302)"><tspan class="cls-3">V</tspan><tspan x="9.484" y="0" xml:space="preserve"> = abc</tspan></text><text class="cls-7" transform="translate(172.171 390.302)">a</text><text class="cls-7" transform="translate(224.171 374.302)">b</text><text class="cls-7" transform="translate(241.171 322.302)">с</text><polygon class="cls-5" points="200.827 318.105 143.827 318.105 178.827 288.605 235.827 288.605 200.827 318.105"/><polygon class="cls-5" points="200.827 378.105 143.827 378.105 178.827 348.605 235.827 348.605 200.827 378.105"/><line class="cls-6" x1="178.827" y1="348.105" x2="178.827" y2="318.105"/><line class="cls-4" x1="143.827" y1="318.105" x2="143.827" y2="378.105"/><line class="cls-4" x1="200.827" y1="318.105" x2="200.827" y2="378.105"/><line class="cls-4" x1="235.827" y1="288.105" x2="235.827" y2="348.105"/><text class="cls-1" transform="translate(139.828 253.299)">Прям<tspan class="cls-14" x="37.039" y="0">о</tspan><tspan x="44.43" y="0">у</tspan><tspan class="cls-15" x="52.43" y="0">г</tspan><tspan class="cls-16" x="58.594" y="0">о</tspan><tspan x="66.383" y="0">льный</tspan><tspan x="0" y="19.2">пар</tspan><tspan class="cls-17" x="23.664" y="19.2">а</tspan><tspan x="30.906" y="19.2">ллелепип</tspan><tspan class="cls-16" x="94.75" y="19.2">е</tspan><tspan x="101.641" y="19.2">д</tspan></text><polygon class="cls-5" points="298.038 341.78 407.038 341.78 329.648 377.75 298.038 341.78"/><line class="cls-4" x1="407.038" y1="341.78" x2="347.088" y2="289.46"/><line class="cls-4" x1="298.038" y1="341.78" x2="347.088" y2="289.46"/><line class="cls-4" x1="347.088" y1="289.46" x2="347.088" y2="291.46"/><line class="cls-18" x1="347.088" y1="295.626" x2="347.088" y2="351.867"/><line class="cls-4" x1="347.088" y1="353.95" x2="347.088" y2="355.95"/><line class="cls-4" x1="347.088" y1="289.46" x2="329.648" y2="377.75"/><text class="cls-7" transform="translate(410.883 345.302)">C</text><text class="cls-7" transform="translate(342.883 285.302)">D</text><text class="cls-7" transform="translate(285.883 345.302)">B</text><text class="cls-19" transform="translate(324.883 389.302)">A</text><text class="cls-7" transform="translate(349.883 331.302)">H</text><text class="cls-2" transform="translate(300.237 418.302)"><tspan class="cls-3">V</tspan><tspan x="9.484" y="0" xml:space="preserve"> = 1/3*S</tspan><tspan class="cls-20" x="64.727" y="0">осн</tspan><tspan x="82.006" y="0">*H</tspan></text><text class="cls-1" transform="translate(317.144 253.299)">Пирамида</text><text class="cls-7" transform="translate(31.563 314.302)">H</text><text class="cls-2" transform="translate(3.459 419.302)"><tspan class="cls-3">V</tspan><tspan x="9.484" y="0" xml:space="preserve"> = S</tspan><tspan class="cls-20" x="36.281" y="0">осн</tspan><tspan x="53.561" y="0">*H</tspan></text><polygon class="cls-4" points="27.385 278.605 0.718 298.194 20.347 322.464 69.29 322.137 80.718 296.018 27.385 278.605"/><polygon class="cls-5" points="27.385 333.746 0.718 353.335 20.347 377.605 69.29 377.278 80.718 351.159 27.385 333.746"/><line class="cls-4" x1="0.718" y1="298.522" x2="0.718" y2="353.662"/><line class="cls-4" x1="20.718" y1="322.464" x2="20.718" y2="377.605"/><line class="cls-4" x1="69.29" y1="322.464" x2="69.29" y2="377.605"/><line class="cls-4" x1="80.718" y1="296.345" x2="80.718" y2="351.486"/><line class="cls-4" x1="27.385" y1="278.932" x2="27.385" y2="280.932"/><line class="cls-21" x1="27.385" y1="284.866" x2="27.385" y2="330.106"/><line class="cls-4" x1="27.385" y1="332.073" x2="27.385" y2="334.073"/><text class="cls-7" transform="translate(39.563 359.302)">S</text><text class="cls-1" transform="translate(15.054 254.299)">При<tspan class="cls-22" x="28.117" y="0">з</tspan><tspan class="cls-23" x="34.211" y="0">м</tspan><tspan x="44.227" y="0">а</tspan></text><text class="cls-2" transform="translate(184.892 188.94)">Рис. 1а</text><text class="cls-2" transform="translate(184.892 451.94)">Рис. 1б</text></svg>