<svg id="Слой_2" data-name="Слой 2" xmlns="http://www.w3.org/2000/svg" viewBox="0 0 365.581 296.904"><defs><style>.cls-1,.cls-2,.cls-24,.cls-25,.cls-3,.cls-32{fill:none;}.cls-1,.cls-2,.cls-24,.cls-25,.cls-26,.cls-3,.cls-30,.cls-31,.cls-32{stroke:#000;stroke-miterlimit:10;}.cls-1,.cls-2{stroke-width:2px;}.cls-2{stroke-dasharray:7.425 7.425;}.cls-26,.cls-3{stroke-width:0.5px;}.cls-17,.cls-4{font-size:9px;}.cls-10,.cls-11,.cls-14,.cls-17,.cls-27,.cls-29,.cls-4,.cls-7{font-family:TimesNewRomanPSMT, Times New Roman;}.cls-5{font-size:6px;}.cls-6{font-size:7px;}.cls-11,.cls-14,.cls-22,.cls-27,.cls-29,.cls-7{font-size:10px;}.cls-7{letter-spacing:-0.06em;}.cls-29,.cls-8{letter-spacing:0.028em;}.cls-9{letter-spacing:0.053em;}.cls-10,.cls-23{font-size:12px;}.cls-10,.cls-17,.cls-23{letter-spacing:0.028em;}.cls-11{letter-spacing:0.021em;}.cls-12{letter-spacing:0.053em;}.cls-13,.cls-14,.cls-22{letter-spacing:0.028em;}.cls-15{letter-spacing:0.015em;}.cls-16{letter-spacing:0.013em;}.cls-18{letter-spacing:0.04em;}.cls-19{letter-spacing:0.022em;}.cls-20{letter-spacing:0.028em;}.cls-21{letter-spacing:0.053em;}.cls-22,.cls-23{font-family:TimesNewRomanPS-BoldMT, Times New Roman;font-weight:700;}.cls-24{stroke-dasharray:2 4;}.cls-25{stroke-dasharray:7;}.cls-26,.cls-30{fill:#fff;}.cls-27{letter-spacing:-0.009em;}.cls-28{letter-spacing:0.028em;}</style></defs><title>Абрис</title><polygon class="cls-1" points="134.83 24.086 321.83 17.086 339.83 278.086 163.83 254.086 134.83 24.086"/><line class="cls-1" x1="134.83" y1="24.086" x2="117.83" y2="132.086"/><line class="cls-1" x1="52.83" y1="167.086" x2="55.912" y2="165.427"/><line class="cls-2" x1="62.449" y1="161.906" x2="111.48" y2="135.505"/><line class="cls-1" x1="114.748" y1="133.745" x2="117.83" y2="132.086"/><path class="cls-3" d="M156.234,30.453a15.434,15.434,0,0,1-11.015,10.662" transform="translate(-3.17 -1.914)"/><path d="M155.982,31.315l1.587,1.389.051-.054-.646-3.094q-.069-1.57-.139-3.141-.6,1.455-1.192,2.909l-1.653,2.694.02.066Z" transform="translate(-3.17 -1.914)"/><path d="M146.09,40.892l1.336,1.631-.055.049-3.071-.746-3.135-.241,2.946-1.1,2.747-1.565.065.022Z" transform="translate(-3.17 -1.914)"/><path class="cls-3" d="M195.015,243.786a12.927,12.927,0,0,1,2.637,11.355" transform="translate(-3.17 -1.914)"/><path d="M195.588,244.482l2.026-.582-.017-.071-2.951-1.133q-1.357-.792-2.715-1.584l1.8,2.577,1.369,2.849.066.019Z" transform="translate(-3.17 -1.914)"/><path d="M197.861,254.249l2.076-.373.016.072-2.147,2.32-1.737,2.62q.239-1.552.476-3.107l-.03-3.161.051-.046Z" transform="translate(-3.17 -1.914)"/><path class="cls-3" d="M169.257,30.12a32.163,32.163,0,0,1-31.223,24" transform="translate(-3.17 -1.914)"/><path d="M168.991,30.978l1.531,1.451.053-.052-.523-3.117q-.006-1.572-.014-3.144l-1.306,2.859L166.973,31.6l.017.066Z" transform="translate(-3.17 -1.914)"/><path d="M138.93,54.08l1.007,1.852-.063.038L137,54.663l-3.034-.823,3.1-.527,2.991-1.023.06.033Z" transform="translate(-3.17 -1.914)"/><path class="cls-3" d="M323.017,69.744a32.163,32.163,0,0,1-34.609-18.786" transform="translate(-3.17 -1.914)"/><path d="M322.125,69.85l-.7,1.987.069.028,2.636-1.744,2.867-1.29L323.85,68.8l-3.115-.541-.054.043Z" transform="translate(-3.17 -1.914)"/><path d="M288.805,51.762l-1.284,1.673-.06-.043.026-3.161-.48-3.107,1.74,2.619L290.9,52.06l-.006.068Z" transform="translate(-3.17 -1.914)"/><text class="cls-4" transform="translate(152.094 54.728)">β1<tspan class="cls-5" x="7.207" y="0">,</tspan><tspan class="cls-6" x="8.707" y="0">д</tspan></text><text class="cls-4" transform="translate(128.094 147.728)">β0<tspan class="cls-5" x="7.207" y="0">,</tspan><tspan class="cls-6" x="8.707" y="0">п</tspan></text><text class="cls-4" transform="translate(150.094 42.728)">β1</text><text class="cls-7" transform="translate(182 103.973)">Г<tspan class="cls-8" x="5.182" y="0">орелый л</tspan><tspan class="cls-9" x="46.412" y="0">е</tspan><tspan class="cls-8" x="51.379" y="0">с</tspan></text><text class="cls-10" transform="translate(0 169.973)">пп 1078</text><text class="cls-10" transform="translate(65 134.973)">пп 2803</text><text class="cls-11" transform="translate(170 50.973)">Л<tspan class="cls-12" x="6.994" y="0">е</tspan><tspan class="cls-13" x="11.961" y="0">с с</tspan><tspan class="cls-12" x="24.178" y="0">о</tspan><tspan class="cls-13" x="29.708" y="0">сновый</tspan></text><text class="cls-11" transform="translate(213.8 171.973)">Л<tspan class="cls-12" x="6.994" y="0">е</tspan><tspan class="cls-13" x="11.961" y="0">с</tspan><tspan class="cls-13"><tspan x="-13.415" y="12">с</tspan><tspan class="cls-12" x="-8.697" y="12">о</tspan><tspan x="-3.167" y="12">сновый</tspan></tspan></text><text class="cls-14" transform="translate(284.784 174.973)">Пашня</text><text class="cls-14" transform="translate(236.481 248.973)">Вы<tspan class="cls-15" x="13.949" y="0">ру</tspan><tspan x="24.245" y="0">б</tspan><tspan class="cls-16" x="29.613" y="0">к</tspan><tspan x="34.6" y="0">а</tspan></text><text class="cls-17" transform="translate(252.551 76.973)">Бер<tspan class="cls-18" x="14.418" y="0">е</tspan><tspan class="cls-19" x="18.775" y="0">з</tspan><tspan class="cls-20" x="22.529" y="0">овый</tspan><tspan x="14.845" y="10.8">л</tspan><tspan class="cls-21" x="19.588" y="10.8">е</tspan><tspan x="24.059" y="10.8">с</tspan></text><text class="cls-22" transform="translate(131.5 16.973)">1</text><text class="cls-23" transform="translate(319 9.973)">2</text><text class="cls-23" transform="translate(337 292.973)">3</text><text class="cls-23" transform="translate(150 256.973)">4</text><line class="cls-24" x1="141.83" y1="80.086" x2="242.83" y2="77.086"/><line class="cls-24" x1="252.33" y1="19.586" x2="242.33" y2="76.586"/><line class="cls-24" x1="284.33" y1="119.586" x2="242.33" y2="76.586"/><line class="cls-24" x1="329.33" y1="118.586" x2="284.33" y2="119.586"/><line class="cls-24" x1="192.33" y1="125.586" x2="284.33" y2="119.586"/><line class="cls-24" x1="155.33" y1="188.586" x2="194.33" y2="167.586"/><line class="cls-24" x1="192.33" y1="125.586" x2="194.33" y2="167.586"/><line class="cls-24" x1="160.33" y1="225.586" x2="248.33" y2="206.586"/><line class="cls-24" x1="335.33" y1="236.586" x2="248.33" y2="206.586"/><line class="cls-25" x1="321.33" y1="16.586" x2="242.33" y2="76.586"/><line class="cls-25" x1="248.33" y1="206.586" x2="321.33" y2="16.586"/><line class="cls-25" x1="213.33" y1="260.586" x2="248.33" y2="206.586"/><line class="cls-25" x1="339.33" y1="277.586" x2="248.33" y2="206.586"/><line class="cls-25" x1="163.33" y1="252.586" x2="248.33" y2="206.586"/><line class="cls-25" x1="148.33" y1="128.586" x2="192.33" y2="125.586"/><line class="cls-25" x1="152.33" y1="172.586" x2="194.33" y2="167.586"/><circle class="cls-26" cx="134.33" cy="24.586" r="4.5"/><circle class="cls-26" cx="321.83" cy="17.086" r="4.5"/><circle class="cls-26" cx="163.83" cy="253.086" r="4.5"/><circle class="cls-26" cx="339.83" cy="278.086" r="4.5"/><text class="cls-27" transform="translate(332.866 120.822)">1<tspan class="cls-28" x="4.909" y="0">19.1</tspan></text><text class="cls-29" transform="translate(341.681 241.822)">282.7</text><text class="cls-29" transform="translate(130.32 227.822)">33.9</text><text class="cls-29" transform="translate(218.803 15.222) rotate(-1.835)">160.2</text><text class="cls-29" transform="matrix(0.807, -0.591, 0.591, 0.807, 264.672, 53.787)">19.6</text><text class="cls-29" transform="translate(295.58 111.232) rotate(-67.892)">127.3</text><text class="cls-29" transform="translate(164.71 165.923) rotate(-7.049)">40.2</text><text class="cls-29" transform="translate(161.538 123.538) rotate(-4.709)">49.5</text><text class="cls-29" transform="translate(129.538 194.538) rotate(-4.709)">91.5</text><text class="cls-29" transform="translate(122.907 177.755) rotate(-4.709)">103.1</text><rect class="cls-30" x="112.33" y="126.586" width="10" height="10"/><circle class="cls-31" cx="117.33" cy="131.586" r="1"/><rect class="cls-30" x="47.33" y="161.586" width="10" height="10"/><circle class="cls-31" cx="52.33" cy="166.586" r="1"/><path class="cls-32" d="M124.418,117.643c8.462,4.461,10.889,15.277,5.965,22.373-4.874,7.024-15.7,8.595-22.861,2.409" transform="translate(-3.17 -1.914)"/><text class="cls-14" transform="translate(294.051 50.942) rotate(-38.18)">58°47′</text></svg>