<svg xmlns="http://www.w3.org/2000/svg" viewBox="0 0 550 350"><defs><style>.cls-1,.cls-17{fill:#8ae0fc;}.cls-1,.cls-14,.cls-15,.cls-2{stroke:#5353ff;}.cls-1,.cls-14,.cls-15,.cls-2,.cls-23,.cls-24,.cls-25,.cls-26,.cls-27,.cls-28,.cls-29,.cls-3,.cls-30,.cls-4,.cls-5,.cls-8,.cls-9{stroke-miterlimit:10;}.cls-2{fill:#8fe8ac;}.cls-15,.cls-3,.cls-8{fill:#fff;}.cls-3,.cls-4,.cls-5,.cls-8,.cls-9{stroke:#000;}.cls-23,.cls-24,.cls-25,.cls-26,.cls-27,.cls-29,.cls-3,.cls-4,.cls-5{stroke-width:0.5px;}.cls-3{stroke-dasharray:2;}.cls-14,.cls-23,.cls-24,.cls-25,.cls-26,.cls-27,.cls-28,.cls-29,.cls-30,.cls-5,.cls-9{fill:none;}.cls-5{stroke-dasharray:4;}.cls-16,.cls-20,.cls-6{font-size:12px;}.cls-6{font-family:ArialMT, Arial;}.cls-7{letter-spacing:-0.011em;}.cls-10{font-size:16px;font-family:TimesNewRomanPSMT, Times New Roman;letter-spacing:0.1em;}.cls-11{letter-spacing:0.094em;}.cls-12{letter-spacing:0.074em;}.cls-13{letter-spacing:0.1em;}.cls-16{fill:#5353ff;}.cls-16,.cls-20{font-family:MyriadPro-Regular, Myriad Pro;}.cls-18{letter-spacing:-0.01em;}.cls-19{letter-spacing:0.004em;}.cls-21{letter-spacing:0.007em;}.cls-22{letter-spacing:0em;}.cls-23,.cls-24,.cls-25,.cls-26,.cls-27,.cls-28{stroke:#cf7a1c;}.cls-24{stroke-dasharray:5.869 5.869;}.cls-25{stroke-dasharray:6.032 6.032;}.cls-26{stroke-dasharray:6;}.cls-27{stroke-dasharray:5;}.cls-28,.cls-30{stroke-width:0.75px;}.cls-29,.cls-30{stroke:blue;}.cls-31{fill:blue;}</style></defs><title>izobaty</title><g id="more"><rect class="cls-1" x="0.5" y="0.5" width="550" height="350"/></g><g id="zem"><path class="cls-2" d="M.5,187.5c2.288-2.559,4-3,4-3,1.578-.406,2.818.017,4-1,.126-.109,1.2-1.052,1-2-.156-.756-.962-.764-2-2a3.3,3.3,0,0,1-1-2,2.8,2.8,0,0,1,1-2c1.952-2.016,3.84-1.156,7-3,1.5-.876,1.446-1.286,3-2a10.3,10.3,0,0,1,4-1c.972-.035,4.5-.162,6,2a8.349,8.349,0,0,1,1,3,9.812,9.812,0,0,0,1,3c.492.877.8,1.011,1,1,.3-.017.435-.348,1-1,.444-.513.677-.673,1-1a12.391,12.391,0,0,0,2-3c1.548-2.915,1.162-3.023,2-4a6.316,6.316,0,0,1,3-2,4,4,0,0,1,3,0c.884.469,1,1.227,2,3,.838,1.491.99,1.377,2,3,1.676,2.692,1.369,3.185,3,6a13.012,13.012,0,0,0,3,4c.432.357.981.742,4,2,4.437,1.849,6.656,2.774,8,3a7.94,7.94,0,0,1,3,1,3.988,3.988,0,0,1,2,2c.325.99-.117,1.994-1,4-.649,1.473-.792,1.282-1,2a5.757,5.757,0,0,0,1,5,7.1,7.1,0,0,0,3,2,7.8,7.8,0,0,0,4,1,7.315,7.315,0,0,0,3-1,14.727,14.727,0,0,0,4-3,28.712,28.712,0,0,0,5-8s2.1-4.467,5-10a78.288,78.288,0,0,1,7-11c3.042-4.067,2.967-3.17,5-6a10.352,10.352,0,0,1,3-3,14.426,14.426,0,0,1,2-1,19.488,19.488,0,0,1,3-1c3.235-.793,10.634-3.5,17-5a98.58,98.58,0,0,1,32-1c5.262.683,7.894,1.024,10,2a18.311,18.311,0,0,0,6,2,15.889,15.889,0,0,0,4,0,19.575,19.575,0,0,0,6-2,42.61,42.61,0,0,1,11-3c2.26-.258,1.36.115,7,0,6.886-.141,7.9-.69,11,0,.344.076,2.229.718,6,2,4.743,1.613,4.845,1.709,6,2a36.053,36.053,0,0,0,8,1c3.741.057,4.774-.5,8,0a24.563,24.563,0,0,1,4,1,48.919,48.919,0,0,1,12,6c1.224.781.1.112,7,5,4.462,3.163,5.729,4.008,7,6a11.7,11.7,0,0,1,2,6,11.038,11.038,0,0,1-1,5c-.82,1.76-2.558,3.2-6,6-2.96,2.41-4.471,3.622-6,4-1.61.4-2.5.148-4,1a9.381,9.381,0,0,0-3,3,11.787,11.787,0,0,0-2,4,11.214,11.214,0,0,0,0,5c.983,5.864-.038,5.43,1,12,.573,3.627.693,2.548,2,9,1.546,7.632,1.694,10.7,0,13a27.559,27.559,0,0,1-2,2c-3.278,3.147-4.148,3.373-5,5a9.88,9.88,0,0,0-1,4c-.2,2.66.63,3.425,0,5-.37.926-.81,1.041-3,3a27.756,27.756,0,0,0-4,4,11.946,11.946,0,0,0-2,6c-.77,6.248-3.517,7.472-7,19-3.127,10.35-1.882,12.569-4,18a16.715,16.715,0,0,0-1,6,7.426,7.426,0,0,0,1,4,6.6,6.6,0,0,0,2,2,78.568,78.568,0,0,0,10,6c10.978,4.938,9.954,4.717,11,5,4.326,1.17,7.665,1.111,14,1,4.756-.083,3.153-.461,12-1a18.464,18.464,0,0,0,6-1,17.35,17.35,0,0,0,6-4c2.163-2.161,3.146-4.152,5-8,2.7-5.615,2.457-6.967,5-11,1.669-2.647,2.5-3.97,4-5,2.808-1.932,5.374-1.593,7-4a8.924,8.924,0,0,0,1-3c1.038-4.417.09-5.622,1-10a38.874,38.874,0,0,1,1-4c.765-2.28,1.376-3.049,1-4-.436-1.105-1.639-1.025-3-2-1.682-1.2-2.174-2.994-3-6a22.469,22.469,0,0,1-1-9c.418-3.7,1.778-6.09,4-10,2.835-4.988,5.47-7.557,9-11a9.4,9.4,0,0,1,5-3,6.5,6.5,0,0,1,5,1,4.7,4.7,0,0,1,2,3c.184,1.734-1.2,2.914-3,5a54.81,54.81,0,0,0-6,9,47.123,47.123,0,0,0-3,7c-.66,1.864-1.107,3.576-2,7-1.314,5.038-1.33,5.95-1,7a8.533,8.533,0,0,0,3,4c1.708,1.316,2.265.777,4,2,1.035.73,2.038,2.163,4,5,1.9,2.746,2.024,3.182,3,4a8.955,8.955,0,0,0,4,2c.654.13,2.64.436,6-1,2.266-.969,4-2.235,7-5a91.182,91.182,0,0,0,9-9c2.126-2.517,3.427-4.393,6-5a10.432,10.432,0,0,1,4,0c2.451.366,3.307,1.159,6,2a32.721,32.721,0,0,0,5,1c6,.986,9,1.479,11,2a46.416,46.416,0,0,1,10,4,43.377,43.377,0,0,1,8,5c1.148.928,3.049,2.584,8,9,4.848,6.281,7.271,9.422,9,13a51.64,51.64,0,0,1,4,12,54.208,54.208,0,0,1,1,8,69.762,69.762,0,0,1-2,19s-423-1-428,0C.5,350.5-2.028,190.327.5,187.5Z"/></g><g id="white"><path class="cls-3" d="M.5,211.5c.7-.4,3.332-1.743,6-3,4.395-2.07,5.618-2.372,8-4,2.189-1.5,1.969-1.8,4-3,1.971-1.169,3.181-1.48,5-3a17.316,17.316,0,0,0,2-2,31.144,31.144,0,0,0,4-6c1.419-2.618,1-2.354,2-4a39.386,39.386,0,0,1,4-5s2.169-2.493,4-3a1.63,1.63,0,0,1,1,0,1.918,1.918,0,0,1,1,1,14.464,14.464,0,0,1,1,4,8.487,8.487,0,0,0,2,4,7.061,7.061,0,0,0,4,2,5.793,5.793,0,0,1,3,0,6.692,6.692,0,0,1,3,2,21.892,21.892,0,0,1,3,4,60.4,60.4,0,0,0,5,6,23.212,23.212,0,0,0,4,4c1.087.686,1.724,1.124,3,2,1.085.745,1.706,1.195,2,2a3.254,3.254,0,0,1,0,2c-1.485,5.5-6,10-6,10-4.335,4.317-4.864,3-7,6-1.7,2.39-2.339,4.594-5,6a10.911,10.911,0,0,1-3,1,18.753,18.753,0,0,1-6,0c-1.352-.108-3.235-.072-7,0-6.772.129-7.524.6-8,1-1.415,1.2-.822,2.222-3,5a18.311,18.311,0,0,1-3,3,22.5,22.5,0,0,1-5,3,43.027,43.027,0,0,1-10,3c-4.631.9-6.947,1.354-8,1Z"/><path class="cls-3" d="M252.5,230.5c-.166.129-.489.275-4-1a51.158,51.158,0,0,1-5-2c-3.362-1.586-3.582-2.152-6-3a28.385,28.385,0,0,0-4-1,51.825,51.825,0,0,0-7-1,34.952,34.952,0,0,0-8,0c-2.507.346-3.955.9-5,0a4.124,4.124,0,0,1-1-3,8.275,8.275,0,0,1,1-4c.323-.66.882-1.655,4-5a24.27,24.27,0,0,1,3-3c2.281-1.36,4.767-1.185,7-1,1.993.166,2.1.452,5,1a66.161,66.161,0,0,0,9,1c4.687.239,5.975-.14,7,1,.765.851.6,1.68,1,5,0,0,.218,1.825,1,6C251.726,227.044,253.527,229.7,252.5,230.5Z"/><path class="cls-3" d="M270.5,336.5a2.916,2.916,0,0,1,0,3c-.583,1-1.585,1.007-4,2-1.764.725-1.384.785-4,2a25.909,25.909,0,0,1-5,2c-.511.117-1.325.269-6,0a36.433,36.433,0,0,1-8-1,19.18,19.18,0,0,1-4-2,2.318,2.318,0,0,1-1-1c-.308-.67-.019-1.132,0-2a5.362,5.362,0,0,0-1-3c-.536-.854-.759-.723-2-2-1.727-1.778-1.809-2.562-3-3a2.346,2.346,0,0,0-2,0c-.808.561-.464,1.816-1,2-.7.242-1.424-1.871-3-2a2.189,2.189,0,0,0-2,1c-.542.983.176,2.389,1,4,.747,1.461,1.069,1.523,1,2-.2,1.4-3.151,2.212-6,3a16.5,16.5,0,0,0-3,1,14.354,14.354,0,0,1-2,1c-1.193.322-3.246.265-4-1s.156-3.066,1-4c1.128-1.248,2.031-.8,3-2,.808-1,.884-2.194,1-4,.13-2.027-.264-2.349,0-4a9.872,9.872,0,0,1,1-3,7.829,7.829,0,0,1,4-4,7.392,7.392,0,0,1,5,0,9.722,9.722,0,0,1,2,1c2.63,1.537,3.945,2.305,5,3,1.47.969,3.313,1.979,7,4,6.822,3.74,5.28,2.39,10,5a14.248,14.248,0,0,0,6,2,13.335,13.335,0,0,0,2,0C266.556,336.018,269.393,335.06,270.5,336.5Z"/><path class="cls-3" d="M216.5,325.5c0-1,11-31,11-31l-3-5,7-21,3-10,5,2,2,3,5,1-4,3-2,3-1,5-1,5-3,6-3,8-1,2h-3l-7.887,25.428L216.5,325.5"/><rect class="cls-4" x="229.019" y="290.191" width="5.56" height="2" transform="translate(-112.594 432.317) rotate(-73.762)"/><rect class="cls-4" x="230.019" y="282.191" width="5.56" height="2" transform="translate(-104.193 427.514) rotate(-73.762)"/><rect class="cls-4" x="232.019" y="274.191" width="5.56" height="2" transform="translate(-95.072 423.671) rotate(-73.762)"/></g><g id="object"><line class="cls-5" x1="184.5" y1="158.5" x2="184.5" y2="313.5"/><line class="cls-5" x1="102.5" y1="168.5" x2="100.5" y2="340.5"/><line class="cls-5" x1="63.5" y1="224.5" x2="60.5" y2="349.5"/><line class="cls-5" x1="26.5" y1="257.5" x2="14.5" y2="350.5"/><line class="cls-5" x1="-0.5" y1="280.5" x2="23.5" y2="281.5"/><line class="cls-5" x1="21.5" y1="296.5" x2="101.5" y2="299.5"/><line class="cls-5" x1="120.5" y1="333.5" x2="222.5" y2="299.5"/><line class="cls-5" x1="101.5" y1="218.5" x2="214.5" y2="221.5"/><line class="cls-5" x1="229.5" y1="158.5" x2="228.5" y2="206.5"/><line class="cls-5" x1="381.5" y1="278.5" x2="372.5" y2="350.5"/><text class="cls-6" transform="translate(148.188 276.453)"><tspan xml:space="preserve"> К</tspan><tspan class="cls-7" x="10.324" y="0">в</tspan><tspan x="16.564" y="0">арцитный</tspan></text><text class="cls-6" transform="translate(146.188 217.453)"><tspan xml:space="preserve"> 84</tspan></text><text class="cls-6" transform="translate(83.188 222.453)">41</text><text class="cls-6" transform="translate(122.188 328.453)"><tspan xml:space="preserve"> 95</tspan></text><text class="cls-6" transform="translate(397.188 348.453)"><tspan xml:space="preserve"> 93</tspan></text><polygon class="cls-8" points="164 227.5 159.959 227.5 161.979 224 164 220.5 166.021 224 168.041 227.5 164 227.5"/><circle cx="164" cy="225" r="1"/><polygon class="cls-8" points="69 220.5 64.959 220.5 66.979 217 69 213.5 71.021 217 73.041 220.5 69 220.5"/><circle cx="69" cy="218" r="1"/><polygon class="cls-8" points="113 332.5 108.959 332.5 110.979 329 113 325.5 115.021 329 117.041 332.5 113 332.5"/><circle cx="113" cy="330" r="1"/><circle cx="387" cy="341" r="1"/><polygon class="cls-8" points="329.183 235.913 333.14 236.582 330.202 239.316 330.788 243.286 327.28 241.337 323.685 243.122 324.455 239.183 321.647 236.315 325.631 235.83 327.49 232.273 329.183 235.913"/><line class="cls-9" x1="189.68" y1="87.266" x2="241" y2="69"/><path d="M191.371,86.664l.857-4.129-.144-.035-4.752,4.168L182,90l6.238-.786,6.317.228.1-.1Z"/><line class="cls-9" x1="224.119" y1="116.78" x2="240.5" y2="68.5"/><path d="M224.7,115.08l-2.708-3.233-.117.091.323,6.313q-.348,3.124-.694,6.249l3.252-5.381,4.1-4.814-.019-.136Z"/><text class="cls-10" transform="translate(246.434 72.66)">И<tspan class="cls-11" x="13.155" y="0">з</tspan><tspan x="20.981" y="0">об</tspan><tspan class="cls-12" x="40.322" y="0">а</tspan><tspan class="cls-13" x="48.609" y="0">ты</tspan></text></g><g id="izobaty"><path class="cls-14" d="M412.5,207.5a14.825,14.825,0,0,1,3,3,25.337,25.337,0,0,1,4,7,32.508,32.508,0,0,1,2,12c.029,2.774.039,9.62-3,15a22.521,22.521,0,0,1-3,4c-2.088,2.361-3.147,2.828-4,3a10.152,10.152,0,0,1-2,0c-3.357-.051-3.826.191-5,0-1.533-.25-2.389-.933-4-2-.227-.15-3.151-1.767-9-5a74.533,74.533,0,0,1-7-4c-.236-.163-.163-.116-4-3-3.894-2.927-4.319-3.238-5-4a21.423,21.423,0,0,1-3-5c-1.125-2.235-1.836-4.042-3-7-.861-2.189-1.138-3.036-2-5a21.884,21.884,0,0,0-2-4c-1.151-1.553-1.676-1.443-4-4a7.256,7.256,0,0,1-2-3,5.8,5.8,0,0,1,0-3,6.16,6.16,0,0,1,1-2,8.584,8.584,0,0,1,5-3,11.86,11.86,0,0,1,5,0,24.247,24.247,0,0,1,6,2l10,4c3.513,1.405,4.47,1.755,6,2,2.175.348,3.239.119,6,0C404.673,205.234,408.993,205.047,412.5,207.5Z"/><path class="cls-14" d="M.5,179.5a16.229,16.229,0,0,0,3-6,9.857,9.857,0,0,1,1-3,7.947,7.947,0,0,1,3-3c1.005-.55,1.392-.44,5-1a29.84,29.84,0,0,0,5-1,33.516,33.516,0,0,0,4-2,28.03,28.03,0,0,1,6-2,27.337,27.337,0,0,1,8-1,26.818,26.818,0,0,1,6,1,37.186,37.186,0,0,1,8,3,24.444,24.444,0,0,1,6,4c1.855,1.751,1.8,2.382,5,7a79.2,79.2,0,0,0,6,8c1.95,2.218,2.887,2.949,4,5,.447.824.1.337,2,5,.862,2.111,1.242,2.965,1,4a1.5,1.5,0,0,0,0,1c.293.661,1.209.849,2,1a6.637,6.637,0,0,0,3,0c1.785-.5,2.837-2.027,4-4a67.688,67.688,0,0,0,4-8c1.365-3.15,2.55-5.33,4-8,4.956-9.122,6.227-8.016,8-13a10.692,10.692,0,0,1,3-5,10.44,10.44,0,0,1,4-2c6-1.943,7.761-1.777,11-3,3.589-1.355,2.515-1.97,7-4a35.677,35.677,0,0,1,11-3,32.954,32.954,0,0,1,7,0,42.13,42.13,0,0,1,8,2c2.292.71,5.366,1.7,9,3"/><path class="cls-14" d="M.5,171.5a11.665,11.665,0,0,1,1-4,8.167,8.167,0,0,1,2-3c.576-.511,1.331-.991,5-2,2.078-.571,2.374-.566,4-1a49.275,49.275,0,0,0,6-2c2.892-1.2,2.724-1.546,6-3,2.816-1.25,4.225-1.875,6-2,1.808-.127,1.905.326,6,1,3.977.654,4.495.328,7,1a23.847,23.847,0,0,1,5,2c.8.411,3.149,1.672,8,6a80.33,80.33,0,0,1,8,8,59.1,59.1,0,0,1,6,8c2.5,4.053,3.754,6.079,4,8a9.111,9.111,0,0,0,1,3c.285.529,1.129,2.1,2,2,.516-.059.834-.681,1-1,.9-1.724,2.309-3.183,3-5,1.778-4.671,4.442-11.671,7-17,2.344-4.883,2.319-3.614,5-9a10.577,10.577,0,0,1,2-3,12.015,12.015,0,0,1,6-3c3.246-.867,7.083-1.89,10-3,4.917-1.87,4.434-2.922,10-5a31.724,31.724,0,0,1,8-2,37.492,37.492,0,0,1,6,0c6.211.245,7.467-.135,11,0,7.6.29,7.865,2.277,19,4a63.423,63.423,0,0,0,11,1c1.618-.01,5.1-.34,12-1,6.475-.619,7.621-.772,9-1a85.919,85.919,0,0,0,9-2c4.6-1.279,8.226-2.695,9-3,2.65-1.043,5.455-1.722,8-3a7.671,7.671,0,0,1,4-1,5.218,5.218,0,0,1,3,1c.924.73,1.135,1.552,2,4a27.56,27.56,0,0,0,2,5,8.767,8.767,0,0,0,5,3c8.159,2.47,10.711,2.545,15,4,3.044,1.033,6.03,2.688,12,6a32.65,32.65,0,0,1,10,8c2.968,3.456,4.5,5.245,5,8,.474,2.641-.256,4.8-1,7a22.782,22.782,0,0,1-4,7c-1.46,1.8-3.66,3.559-8,7-5,3.96-6.819,5.14-8,8a16.972,16.972,0,0,0-1,4,28.3,28.3,0,0,0,0,8c.654,6.411.981,9.617,1,10,.351,6.927-.605,8.177,0,12a11.5,11.5,0,0,1,0,4,12.86,12.86,0,0,1-1,3c-.713,1.561-1.311,2.268-4,6a17.942,17.942,0,0,0-2,3,12.591,12.591,0,0,0-1,5c-.028,2.4.57,3.178,0,5a8.094,8.094,0,0,1-1,2,32.188,32.188,0,0,1-4,5c-2.462,2.7-4.011,4.4-5,7a18,18,0,0,0-1,5c-.144,1.436-.018,1.372,0,7,.016,4.972-.084,4.629,0,5a4.108,4.108,0,0,1,0,3,3.047,3.047,0,0,1-1,1c-1.785,1.32-2.932.929-4,2a4.283,4.283,0,0,0-1,2,7.332,7.332,0,0,0,0,4,8.636,8.636,0,0,0,3,4c3.692,3.3,5.537,4.952,7,6,3.782,2.711,5.673,4.066,8,5,3.221,1.292,3.406.529,10,2,6.092,1.359,6.836,2.211,10,2a17.581,17.581,0,0,0,7-2,17.144,17.144,0,0,0,5-4,11.609,11.609,0,0,0,2-3c.844-1.919.625-3.07,1-6a42.4,42.4,0,0,1,1-5c.991-4.13,1.517-6.231,3-8a12.167,12.167,0,0,1,4-3c3.158-1.636,4.978-1.151,7-3a8.586,8.586,0,0,0,2-3c1.53-3.243,2.269-8.312,0-12-.586-.952-.91-1.062-3-4-1.267-1.781-1.784-2.636-2-3a15.1,15.1,0,0,1-2-4c-.267-1.258.046-1.857,2-8a14.559,14.559,0,0,0,1-4c.1-2.314-.686-3.6-1-5-.569-2.537.613-4.726,3-9,4.831-8.649,10.358-12.151,13-16a3.464,3.464,0,0,1,1-1c1.807-1.162,4.383-.243,5,0,.282.111.855.407,2,1a14.807,14.807,0,0,0,2,1c.534.172,2.059.665,3,0,.741-.524.563-1.373,1-3a9.726,9.726,0,0,1,2-4,7.139,7.139,0,0,1,6-2,5.8,5.8,0,0,1,4,2,6.186,6.186,0,0,1,1,3,12.892,12.892,0,0,1,0,4c-.99,6.031-7.089,16.235-10,23a15.223,15.223,0,0,1-1,2c-2.035,3.388-3.989,3.465-6,6-.846,1.066-.041.473-3,8a9.755,9.755,0,0,0-1,5,9.036,9.036,0,0,0,1,3,20.9,20.9,0,0,0,7,8,10.551,10.551,0,0,0,4,2c3.355.636,6.243-1.2,9-3,1.662-1.088,3.8-3.073,8-7,3.51-3.279,4.208-4.057,6-5a18.6,18.6,0,0,1,7-2,22.647,22.647,0,0,1,9,1c3.359,1,4.146,1.953,10,4a19.074,19.074,0,0,0,4,1,22.6,22.6,0,0,0,5,0c2.661-.148,4.567.262,8,1,5.149,1.107,11.335,4.32,16,8,0,0,19.62,15.477,19,48a23.441,23.441,0,0,1-1,7c-.807,2.19-1.668,3.043-2,5a10.108,10.108,0,0,0,1,6"/><path class="cls-14" d="M.5,158.5a6.94,6.94,0,0,1,3-4,12.272,12.272,0,0,1,4-1c3.206-.518,3.941-.285,5-1,1.142-.771,1.354-1.762,2-3,2.422-4.642,7.693-6.532,9-7a19.915,19.915,0,0,1,7-1,33.008,33.008,0,0,1,8,1c11.889,3.235,21.473,18.55,27,22a14.783,14.783,0,0,1,4,3c.876.981,1.1,1.56,2,2a5.647,5.647,0,0,0,4,0,11.182,11.182,0,0,0,4-2,26.5,26.5,0,0,0,6-7c3.159-4.818,3.3-6.23,6-9a12.8,12.8,0,0,1,4-3c1.521-.688,2.919-.9,6-1,6.472-.2,7.1.529,10,0,2.482-.453,3.058-1.178,7-3a89.929,89.929,0,0,1,11-4c8.609-2.546,16.459-1.515,28,0,7.194.945,6.046,1.321,12,2a104.9,104.9,0,0,0,24,0c10.014-1.161,18.966-2.2,24-7a21.907,21.907,0,0,1,4-3c1.522-.9,6.563-3.859,10-2a5.976,5.976,0,0,1,2,2c3.119,4.1,8.207,5.593,13,7,6.6,1.938,7.39.383,14,2a37.249,37.249,0,0,1,12,5c11.164,7.567,14.963,22.743,14,34a29.572,29.572,0,0,1-1,6,17.835,17.835,0,0,1-4,6s-5.912,6.559-14,20a13.467,13.467,0,0,0-1,2,15.678,15.678,0,0,0-1,5,35.152,35.152,0,0,0,0,5c.667,7.4,1.34,14.862,1,22-.213,4.465-.748,7.229-2,10-1.069,2.366-1.551,2.28-3,5-2.5,4.7-1.629,6.009-4,12a33.758,33.758,0,0,1-5,9c-1.142,1.4-2.629,1.929-4,4a13.04,13.04,0,0,0-2,5,15.04,15.04,0,0,0,0,4c.47,6.321.7,9.482,0,12-.562,2.009-1.145,2.5-1,4,.053.543.324,2.5,3,5,2.132,1.992,3.7,2.379,7,4,6.728,3.308,5.958,4.537,9,5,2.631.4,5.087-.4,10-2a9.22,9.22,0,0,0,7-7c.611-1.869.328-2.214,1-8,.407-3.5.606-4.2,1-5a15.842,15.842,0,0,1,3-4,9.882,9.882,0,0,0,2-2,6.946,6.946,0,0,0,1-3c.48-3.983-1.643-7.692-3-10-1.086-1.848-1.1-1.44-2-3-.62-1.078-3.068-5.329-3-10,.047-3.252,1.366-5.546,4-10,3.19-5.393,4.266-5.462,8-11,4.512-6.691,3.941-8.073,8-13,2.384-2.894,1.871-1.555,7-7,7.1-7.533,10.643-11.3,11-12a5.939,5.939,0,0,1,3-3,2.6,2.6,0,0,1,2,0c.586.311.608.774,1,1,1,.575,2.908-1.224,4-2,3.135-2.227,7.606-1.775,10-1,5.589,1.81,7.632,7.9,8,9a16.491,16.491,0,0,1,0,10,23.5,23.5,0,0,1-3,6c-2.376,3.834-3.832,4.652-5,8a30.025,30.025,0,0,0-1,4c-.858,4.139-.348,4.236-1,6-.575,1.553-.852,1.157-4,6-1.33,2.046-1.757,2.85-2,4a11.392,11.392,0,0,0,0,4,10.816,10.816,0,0,0,1,4c1.086,2.044,3.477,4.091,6,4,1.677-.061,2.835-1.046,4-2a134.537,134.537,0,0,1,11-8,23.81,23.81,0,0,1,10-4c7.184-.959,15.218,1.877,17,5a4.177,4.177,0,0,0,2,2c.865.344,1.5.132,3,0,2.034-.179,2.226.093,4,0a24.362,24.362,0,0,0,5-1c2.534-.479,4.522.6,9,3,12.517,6.7,12.016,6.3,13,7a45.678,45.678,0,0,1,10,9c3,3.736,4.333,6.824,7,13,2.949,6.828,5.379,12.575,6,20a36.523,36.523,0,0,1,0,9c-.143,1-.53,3.353-1,7-.329,2.553-.427,3.632,0,5a6.732,6.732,0,0,0,3,4c1.508.775,2.542.258,6,0,4.038-.3,3.523.336,7,0,2.921-.283,5.453-.527,8-2a8.428,8.428,0,0,1,2-1c1.97-.609,2.857.116,5,0,.738-.04,3.527-.191,5-2,.857-1.051.914-2.227,1-4,.2-4.067-1.325-6.03,0-8a5.759,5.759,0,0,1,1-1,29.79,29.79,0,0,1,6-4c7.455-3.5,18-3,18-3,5.637.27,7.834,1.156,29,7,7.053,1.947,8.038,2.188,10,3a16.787,16.787,0,0,0,3,1,16.514,16.514,0,0,0,7,0"/><path class="cls-14" d="M229.5,311.5c.955,1.316,2.288,3.055,4,5a50.966,50.966,0,0,0,6,6c3.055,2.491,5.7,3.661,11,6a54.487,54.487,0,0,0,11,4,35.984,35.984,0,0,0,11,1,24.44,24.44,0,0,0,9-2,20.408,20.408,0,0,0,7-5,23.058,23.058,0,0,0,5-10c1.074-4.258.278-5.612,2-8a20.106,20.106,0,0,1,10-6,13.722,13.722,0,0,1,5,0"/><path class="cls-14" d="M5.5,93.5a25.012,25.012,0,0,1,3-2,7.817,7.817,0,0,1,3-1,5.877,5.877,0,0,1,4,1,4.564,4.564,0,0,1,2,3c.091.863-.194,1.5-1,3-1.919,3.564-2.9,5.359-4,6a12.71,12.71,0,0,1-4,1c-2.03.341-3.064.5-4,0-1.138-.61-1.561-1.783-2-3-.34-.944-1.445-4.008,0-6C2.9,94.95,2.939,95.244,5.5,93.5Z"/><path class="cls-14" d="M71.5,94.5c1.448.83,1.314,1.656,4,7,2.268,4.512,2.949,5.091,3,7,.038,1.442-.35,1.127-1,5-.5,3.01-.372,3.806-1,6-.574,2.006-.918,3.148-2,4-.355.279-1.261.9-4,1a16.909,16.909,0,0,1-7-1c-2.924-1.1-4.655-2.749-8-6-3.484-3.386-5.58-5.468-7-9a14.916,14.916,0,0,1-1-7,5.479,5.479,0,0,1,1-3,6.227,6.227,0,0,1,4-2c2.2-.393,2.348.381,4,0,2.4-.553,2.477-2.275,5-3a12.314,12.314,0,0,1,4,0C68.791,93.76,70.436,93.89,71.5,94.5Z"/><path class="cls-14" d="M73.5,103.5a12.656,12.656,0,0,1,0,7c-.56,2.489-1.039,4.618-3,6a6.522,6.522,0,0,1-5,1c-1.666-.452-1.578-1.38-4-3-2.81-1.879-4.175-1.463-5-3a5.265,5.265,0,0,1,0-4,9.934,9.934,0,0,1,4-5,52.645,52.645,0,0,1,6-3c1.986-.931,2.391-1.089,3-1C72.016,98.868,73.262,102.757,73.5,103.5Z"/><path class="cls-15" d="M67.5,105.5c1.015.655,1,2.243,1,3a4.007,4.007,0,0,1-1,3,3.725,3.725,0,0,1-3,1,3.466,3.466,0,0,1-3-3c-.051-1.475,1.261-2.451,2-3C63.824,106.259,66.078,104.583,67.5,105.5Z"/><path class="cls-14" d="M.5,80.5a41.774,41.774,0,0,1,9-2,45.825,45.825,0,0,1,9,0,24.623,24.623,0,0,1,6,1c2.809.936,3.22,1.871,8,5a61.02,61.02,0,0,0,9,5,25.779,25.779,0,0,0,6,2,22.05,22.05,0,0,0,7,0c2.96-.464,3.354-1.121,7-2a24.289,24.289,0,0,1,7-1c5.248.3,9,4.009,10,5,4.68,4.633,5.857,10.906,7,17,.835,4.449.234,4.261,1,6,2.59,5.879,9.711,8.6,16,11,4.273,1.632,5.231,1.349,8,3a12.568,12.568,0,0,0,5,2,11.212,11.212,0,0,0,3,0c3.659-.412,7.347-.541,11-1,5.344-.671,8.017-1.006,9-1,4.059.026,4.79.932,13,3,1.208.3,7.353,1.837,15,3,2.771.421,5.239.8,8,1,9.737.716,25.184-.558,32-6a22.754,22.754,0,0,1,7-4,25.871,25.871,0,0,1,4-1,44.861,44.861,0,0,1,11-1c2.051.088,1.321.222,9,1a20.381,20.381,0,0,0,6,0,32.387,32.387,0,0,0,4-1,30.111,30.111,0,0,1,3-1,8.285,8.285,0,0,1,5,1c9.55,4.383,8.363,3.361,11,5,5.4,3.355,12.125,7.537,16,15a37.115,37.115,0,0,1,3,8c.624,2.782.3,3.207,1,6,.816,3.273,1.632,4.2,3,8,1.019,2.833,1.756,4.513,2,7,.089.91.059,2.607,0,6a33.926,33.926,0,0,0,0,5c.228,1.782.524,2,1,5a8.455,8.455,0,0,1,0,4,6.645,6.645,0,0,1-1,2c-1.809,2.572-3.149,5.458-5,8-2.787,3.826-9.034,14.706-11,26-.764,4.391-.45,6.366-2,10a31.008,31.008,0,0,0-2,7,14.884,14.884,0,0,0,0,3c.211,2.543.788,2.9,1,3a1.416,1.416,0,0,0,1,0c1.829-.5,2.77-1.938,4-3,1.425-1.23,2.2-1.065,4-2,1.853-.964,2.935-2.13,6-6,5.1-6.444,4.938-6.782,7-9,2.432-2.615,2.648-2.127,7-6,4.16-3.7,3.671-3.889,10-10,7.692-7.428,5.917-4.741,9-8a12.158,12.158,0,0,1,4-3,13.253,13.253,0,0,1,5-1,31.633,31.633,0,0,1,11,1c3.328.923,5.1,1.414,7,3,2.046,1.707,3.241,3.848,5,7a25.137,25.137,0,0,1,2,4c2.145,6.375-2.538,13.71-4,16-2.339,3.663-4.6,7.379-7,11a5.749,5.749,0,0,0-1,3,4.181,4.181,0,0,0,1,3,3.725,3.725,0,0,0,2,1c3.44.686,8.468.155,10,0,5.436-.549,7.2-.427,9,0a14.046,14.046,0,0,1,3,1c3.127,1.481,3.316,3.1,7,6a19.7,19.7,0,0,0,5,3,17.414,17.414,0,0,0,4,1c3.526.473,4.989-.28,11-1,6.2-.743,7.41-.274,8,0a19.425,19.425,0,0,1,5,4c1.582,1.58,1.775,2.12,3,3a12.618,12.618,0,0,0,5,2c2.691.66,3.564,2.046,9,7,4.815,4.388,9.294,8.006,13,11,3.44,2.779,4.186,3.251,6,5,1.381,1.332,1.851,1.929,7,8,2.292,2.7,5.06,5.035,7,8a9.618,9.618,0,0,0,7,5,21.466,21.466,0,0,0,9,0,8.12,8.12,0,0,0,3-1c.992-.627,1.331-1.236,3-3,0,0,.9-.95,2-2,2.547-2.43,9.683-1.055,14,0,3.667.9,10.488,2.832,17,5a16.269,16.269,0,0,0,5,1c3.056.087,3.715-.847,7-1a18.864,18.864,0,0,1,7,1c.6.211.853.337,6,3a40.368,40.368,0,0,0,4,2,13.233,13.233,0,0,0,8,0"/><path class="cls-14" d="M459.5,349.5a47.906,47.906,0,0,1,7-2,35.625,35.625,0,0,1,9-1c2.907.1,4.261.58,7,0,2.868-.608,3.727-1.632,4-2,.774-1.043.865-2.241,1-4,.2-2.587-.382-2.755,0-4,.667-2.171,3.032-3.614,5-4a14.8,14.8,0,0,1,3,0c2.536.055,3.9,0,5,0,2.6,0,10.3.309,17,1a235.348,235.348,0,0,1,32,6"/><path class="cls-14" d="M497.5,349.5a16.372,16.372,0,0,0,4-5c1.067-2.094.859-2.895,2-4,1.61-1.559,3.913-1.79,6-2a19.459,19.459,0,0,1,4,0c5.218.58,10.334-.017,14,0,4.425.021,11.478.96,23,5"/><path class="cls-14" d="M329.5,288.5a37.908,37.908,0,0,0,7,2,7.815,7.815,0,0,0,4,0,6.933,6.933,0,0,0,3-2c2.576-2.754,5.462-5.211,8-8,6.137-6.743,7.976-7.6,9-8a15.507,15.507,0,0,1,6-1c3.514.057,4.727,1.19,10,3a76.1,76.1,0,0,0,12,3c4,.71,6.449.824,8,1,8.962,1.015,19.955,7.718,26,18a37.393,37.393,0,0,1,5,19"/><path class="cls-14" d="M.5,54.5c1.959.162,4.719.45,8,1a58.92,58.92,0,0,1,9,2,37.221,37.221,0,0,1,11,6,75.809,75.809,0,0,1,14,14c1.354,1.77,3.359,4.568,7,6a15.725,15.725,0,0,0,5,1c1.413.056,2.226-.1,7-1a56.5,56.5,0,0,1,6-1,14.992,14.992,0,0,1,7,2c4.3,2.164,9.2,3.443,19,6,9.941,2.594,9.412,1.194,14,3a11.48,11.48,0,0,0,6,1,13.117,13.117,0,0,0,5-2c2.232-1.305,3.925-2.294,5-4,2.543-4.033.681-10.56-3-14-.468-.438-1.357-1.191-6-3-8.508-3.315-11.624-3.164-17-6-.662-.349-2.436-1.576-6-4-5.94-4.04-6.8-4.866-9-6-2.909-1.5-4.563-1.687-10-3a182.966,182.966,0,0,1-23-7c-3.026-1.188-5.464-2.3-9-4C26.219,34.623,9.853,25.69.5,20.5"/><path class="cls-14" d="M170.5,73.5a12.863,12.863,0,0,1,4,1,15.063,15.063,0,0,1,5,4,7.3,7.3,0,0,1,2,3,6.869,6.869,0,0,1,0,3c-.517,4.283.729,5.074,0,8a11.015,11.015,0,0,1-2,4,14.458,14.458,0,0,1-7,5,20.352,20.352,0,0,1-7,1c-3.487.075-4.694-.5-8,0a13.255,13.255,0,0,0-4,1c-.465.215-1.763.855-7,5a4.874,4.874,0,0,1-2,1,4.973,4.973,0,0,1-2,0c-2.511-.4-3.215.264-5,0a8.565,8.565,0,0,1-5-3c-1.546-1.919-1.736-4.043-2-7a33.071,33.071,0,0,1,0-5c.209-4.922-.152-5.764,0-15a17.025,17.025,0,0,1,1-6c.549-1.472,1.275-3.336,3-4a4.946,4.946,0,0,1,3,0c1.572.373,1.731,1,4,2a13.149,13.149,0,0,0,3,1,11.364,11.364,0,0,0,4,0c3.32-.5,6.845-.9,8-1C160.338,71.163,159.916,72.153,170.5,73.5Z"/><path class="cls-14" d="M469.5.5c.5,2.86,1.258,7.392,2,13,1.685,12.742,1.155,14.806,3,20,1.648,4.639,4.1,8.093,9,15,3.672,5.175,6.344,8.891,11,13,3.66,3.23,6.9,6.089,12,8,2.531.948,4.247,1.186,9,3a51.47,51.47,0,0,1,7,3c2.241,1.248,7.836,4.365,11,11a20.924,20.924,0,0,1,2,12,21.553,21.553,0,0,1-3,8c-3.136,5.133-6.147,5.66-14,13-1.984,1.854-1.341,1.4-5,5-9.461,9.31-10.573,9.217-14,13-1.569,1.732-10.937,12.073-11,24a53.735,53.735,0,0,0,1,10c.784,3.718,1.344,4.072,2,8,.909,5.445.428,8.324,0,10-.365,1.429-.516,1.3-1,3a28.606,28.606,0,0,0-1,9,38.984,38.984,0,0,0,7,21,33.593,33.593,0,0,0,9,8c2.69,1.7,5.746,3.59,10,4a28.572,28.572,0,0,0,4,0,68.138,68.138,0,0,0,9-1c4.658-.92,12.916-4.371,22-11"/><text class="cls-16" transform="translate(115 29.245)">46</text><text class="cls-16" transform="translate(84 137.245)">17</text><text class="cls-16" transform="translate(323 147.245)">34</text><text class="cls-16" transform="translate(398 227.245)">55</text><rect class="cls-17" x="271.335" y="213.438" width="14" height="10" transform="translate(-32.052 388.278) rotate(-66.812)"/><text class="cls-16" transform="translate(279.888 225.59) rotate(-66.812)">20</text><rect class="cls-17" x="500.454" y="125.249" width="14" height="10" transform="translate(76.444 428.082) rotate(-49.04)"/><text class="cls-16" transform="matrix(0.656, -0.755, 0.755, 0.656, 506.737, 137.603)">50</text><rect class="cls-17" x="264.335" y="202.438" width="14" height="10" transform="translate(-26.184 375.175) rotate(-66.812)"/><text class="cls-16" transform="translate(272.888 214.59) rotate(-66.812)">10</text><text class="cls-16" transform="matrix(0.456, -0.89, 0.89, 0.456, 258.494, 309.343)"><tspan class="cls-18">б</tspan><tspan class="cls-19" x="6.216" y="0">у</tspan><tspan x="11.916" y="0">х. Шокша</tspan></text><text class="cls-20" transform="translate(342.195 244.22) rotate(-0.138)">м<tspan class="cls-21" x="7.668" y="0">а</tspan><tspan class="cls-22" x="13.536" y="0">як Шокшинский</tspan></text><text class="cls-20" transform="translate(288.195 186.22) rotate(-0.138)">м. Шокшинский</text></g><g id="izolin"><path class="cls-23" d="M17.5,175.5a4.94,4.94,0,0,1,3-1,3.881,3.881,0,0,1,2,0c.729.311.729.8,2,2,.76.719.927.7,1,1,.246,1.008-1.37,2.479-3,3a4.945,4.945,0,0,1-3,0c-1.081-.351-2.986-1.4-3-3A2.868,2.868,0,0,1,17.5,175.5Z"/><path class="cls-23" d="M42.5,171.5a4.157,4.157,0,0,1,2,2,4.687,4.687,0,0,1,1,3,2.538,2.538,0,0,1-1,2,2.429,2.429,0,0,1-2,0,4.735,4.735,0,0,1-3-4c-.027-.319-.2-2.312,1-3A2.447,2.447,0,0,1,42.5,171.5Z"/><path class="cls-23" d="M38.5,181.5c.313.519.072.748,0,3a21.935,21.935,0,0,0,0,3,3.381,3.381,0,0,1,0,2,2.167,2.167,0,0,1-1,1,2.553,2.553,0,0,1-2,0,3.279,3.279,0,0,1-2-2c-.2-.587-.057-.82,0-2,.122-2.516-.437-2.866,0-4a3.271,3.271,0,0,1,2-2A2.776,2.776,0,0,1,38.5,181.5Z"/><path class="cls-23" d="M.5,262.5c.935-.532,1.791-1.057,2.566-1.56"/><path class="cls-24" d="M7.793,257.46c2.237-1.858,3.293-3.006,5.707-3.96a15.162,15.162,0,0,1,5-1c2.181-.066,3.878-.117,5,1,.933.929.66,1.861,2,3a3.816,3.816,0,0,0,2,1,4.4,4.4,0,0,0,3-1,15.25,15.25,0,0,0,3-3,22.417,22.417,0,0,1,3-3,12.837,12.837,0,0,1,5-2,59.51,59.51,0,0,1,7-1c4.346-.628,3.96-1.171,9-2,3.835-.631,7-1,7-1,2.673-.312,3.6-.339,5-1a16.353,16.353,0,0,0,4-3,42,42,0,0,0,3-3c4.186-4.561,8.287-7.85,10-11a9.028,9.028,0,0,0,1-3,3.43,3.43,0,0,0,0-2c-.371-.907-1.069-.855-2-2a3.561,3.561,0,0,1-1-2,3.387,3.387,0,0,1,2-3c.821-.4,2.242-.685,3,0,.671.606.27,1.473,1,2a1.866,1.866,0,0,0,2,0c.5-.338.514-.813,1-2,.013-.033.342-.689,1-2a65.4,65.4,0,0,1,4-7,23.685,23.685,0,0,1,4-5c1.494-1.275,2.481-1.642,3-3,.457-1.194-.053-1.575,0-4a10.983,10.983,0,0,1,1-5,8.064,8.064,0,0,1,3-3c2.051-1.325,4.776-3.205,8.154-5.579"/><path class="cls-23" d="M120.05,178.233l2.45-1.733"/><path class="cls-23" d="M.5,207.5a13.606,13.606,0,0,0,3-3,14.838,14.838,0,0,0,2-4c.67-2.019.532-2.913,1-6,.636-4.195.809-4.646,1-5,.455-.844,1.637-1.9,4-4a7.737,7.737,0,0,1,3-2,4.24,4.24,0,0,1,3,0,3.9,3.9,0,0,1,2,2,4.207,4.207,0,0,1,0,3,13.046,13.046,0,0,1-2,3c-1.485,1.952-1.749,2.3-2,3-.354.989-.639,2.566,0,3,.248.168.543.1,1,0,3.636-.812,3.719-.824,4-1,1.257-.789.971-1.419,2-2,1.248-.7,2.611-.312,4,0,4.384.985,3.735-.016,8,1,3.464.825,5.345,1.3,7,3a10.852,10.852,0,0,1,2,3,9.625,9.625,0,0,1,1,4,9.814,9.814,0,0,1-1,4c-2.585,6.518-1.845,5.91-3,8a46.666,46.666,0,0,1-4,6,12.259,12.259,0,0,0-2,4c-.339,1.184-.283,1.719,0,2,.3.3.793.243,2,0a20.967,20.967,0,0,0,4-1,12.535,12.535,0,0,0,3-2c3.434-2.872,3.329-4.135,6-6a16.77,16.77,0,0,1,4-2,25.312,25.312,0,0,1,5-1c3.208-.484,4.811-.725,6-1a33.273,33.273,0,0,0,8-3c2.986-1.589,2.627-2.017,5-3,2.727-1.13,3.557-.713,6-2a17.162,17.162,0,0,0,4-3,14.588,14.588,0,0,0,3-4c1.3-2.642.641-3.634,2-5,1.022-1.027,1.679-.752,3-2a8.894,8.894,0,0,0,2-3,72.244,72.244,0,0,0,3-8c1.129-3.372,1.694-5.058,3-7,1.465-2.179,3.977-4.119,9-8,.95-.734-.012.047,3-2a5.57,5.57,0,0,1,2-1,4.744,4.744,0,0,1,2,0c1.546.279,3.129-.176,6-1,3.833-1.1,4.952-1.97,8-3,4.633-1.565,8.609-1.772,13-2a50.97,50.97,0,0,1,7,0c3.728.278,7.152,1.185,14,3,4.607,1.221,5.355,1.6,6,2,1.278.788,2.2,1.671,4,2a9.73,9.73,0,0,0,3,0,16.056,16.056,0,0,0,4-1c3.008-1.138,3.585-1.9,6-3a27.662,27.662,0,0,1,7-2c3.545-.644,3.98-.176,7-1,1.976-.539,2.476-.926,4-1a11.2,11.2,0,0,1,5,1c2.419,1.036,2.545,1.967,5,3a14.119,14.119,0,0,0,4,1c3.027.295,3.852-.676,8-1,.64-.05.372-.007,5,0,6.3.01,5.949-.07,7,0a27.826,27.826,0,0,1,9,2c1.029.429.743.393,7,4,4.22,2.432,4.332,2.438,5,3a17.825,17.825,0,0,1,5,7,9.009,9.009,0,0,1,1,4,8.485,8.485,0,0,1-2,5c-1.132,1.432-1.878,1.589-6,4-7.157,4.186-5.7,4.174-8,5-1.018.366-2.409.766-3,2-.343.715-.271,1.407,0,3a45.618,45.618,0,0,0,1,5c1.29,4.459,1.728,4.183,2,6,.294,1.964-.137,3.643-1,7s-1.7,4.793-2,8a14.671,14.671,0,0,0,0,3,21.911,21.911,0,0,0,1,4c.8,2.881,1.2,4.355,1,6a7.756,7.756,0,0,1-1,3,3.926,3.926,0,0,1-2,2,3.5,3.5,0,0,1-2,0,6.178,6.178,0,0,1-2-1c-1.795-1.174-1.924-1.669-3-2a2.491,2.491,0,0,0-2,0,2.546,2.546,0,0,0-1,2c-.083,1.143.465,1.8,1,3a13.914,13.914,0,0,1,1,4c.413,2.718-.288,2.728,0,6,.194,2.2.579,2.958,0,4-.3.532-.563.636-2,2,0,0-.527.5-2,2a29.153,29.153,0,0,0-7,14c-.649,3.451-.046,4-1,8a37.407,37.407,0,0,1-2,6c-5.452,13.215-5.833,16.592-9,23-1.125,2.276-1.861,4.731-3,7a11.178,11.178,0,0,0-1,3,6.8,6.8,0,0,0,0,3,8.487,8.487,0,0,0,1,2,10.884,10.884,0,0,1,1,4,24.594,24.594,0,0,1,0,6,14.4,14.4,0,0,1-1,5,10.963,10.963,0,0,1-2,3"/><path class="cls-23" d="M.5,285.5a2.222,2.222,0,0,0,1,0c1.139-.275,1.731-1.472,2-2,.883-1.732,2.118-3.268,3-5,1.937-3.8,1.632-2.539,4-7,1.056-1.99,1.6-3.145,3-4a8.575,8.575,0,0,1,3-1,7.964,7.964,0,0,1,4,0,7.222,7.222,0,0,1,2,1,14.85,14.85,0,0,1,4,4c.574.867,1.041,1.783,2,2a2.634,2.634,0,0,0,1,0,4.118,4.118,0,0,0,2-1,14.388,14.388,0,0,0,2-2,13.8,13.8,0,0,1,4-3c1.716-.832,2.479-.528,5-1a30.23,30.23,0,0,0,6-2c5.108-2.045,7.3-3.755,11-5,.832-.279,1.524-.463,3-1a17.846,17.846,0,0,1,3-1,8.866,8.866,0,0,1,3,0c4.991.713,5.435-.636,10,0a6.669,6.669,0,0,0,3,0,6.433,6.433,0,0,0,3-2c3.323-3.561,4.985-5.341,6-7,1.59-2.6,2.393-5.066,4-10,1.195-3.669,1.105-4.492,1-5a2.685,2.685,0,0,1,0-2,2.828,2.828,0,0,1,2-1,12.967,12.967,0,0,1,3,0,7.841,7.841,0,0,0,2,0,3.8,3.8,0,0,0,2-1,3.528,3.528,0,0,0,1-3c-.082-.466-.215-.521-1-2-.276-.519-.7-1.317-1-2a8.406,8.406,0,0,1-1-4,7.454,7.454,0,0,1,1-3,14.7,14.7,0,0,1,2-3,42.454,42.454,0,0,1,4-4c2.842-2.707,1.678-1.783,4-4,1.826-1.743,2.8-2.559,3-4,.026-.189.009-.177,0-2-.009-1.788-.014-2.682,0-3a11.018,11.018,0,0,1,2-6c.114-.153.743-.769,2-2,2.507-2.454,3.139-2.893,4-3,.935-.116,1.176.279,2,0,.792-.268,1.2-.849,2-2,2.238-3.242,2.379-3.562,3-4a11.1,11.1,0,0,1,3-1,39.8,39.8,0,0,1,5-1c2.379-.3,3.6-.447,5,0a7.562,7.562,0,0,1,2,1c4.465,3,8.15,7.7,12,10a15.42,15.42,0,0,0,2,1,11.482,11.482,0,0,0,4,1c1.573.039,1.615-.494,4-1,1.894-.4,3.98-.844,6,0,1.562.653,1.344,1.348,3,2a6.907,6.907,0,0,0,5,0,7.045,7.045,0,0,0,3-3c3.591-5.54,3.825-7.129,6-10a29.53,29.53,0,0,1,5-5c4.089-3.475,6.107-3.883,7-4a13.564,13.564,0,0,1,3,0,15.575,15.575,0,0,1,4,1c3.98,1.49,4.311,2.715,8,4,1.1.384,1.541.438,3,1,1.675.645,2.114.966,3,1a5.5,5.5,0,0,0,3-1c2.64-1.467,4.14-2.49,5-3,1.784-1.058,3.523-1.372,7-2,4.979-.9,7.652-.405,9,0a5.356,5.356,0,0,1,2,1c.26.216.749.671,2,3a16.312,16.312,0,0,1,1,2,7.306,7.306,0,0,1,0,4,16.815,16.815,0,0,1-2,4,14.892,14.892,0,0,1-2,3,7.479,7.479,0,0,1-4,2c-1.3.178-1.5-.208-3,0a8.878,8.878,0,0,0-3,1c-1.586.848-2.391,1.9-4,4-2.048,2.673-2.047,3.573-2,4a4.211,4.211,0,0,0,1,2c.807,1.193,1.205,2.795,2,6,1.273,5.132.741,6.214,2,8a5.677,5.677,0,0,1,1,2,8.876,8.876,0,0,1,0,3c-.052,1.538.455,2.161,1,4a19.622,19.622,0,0,1,0,10,6.759,6.759,0,0,1-1,2c-.405.554-.616.842-1,1-1.122.463-2.563-.659-3-1-1.209-.942-1.022-1.493-2-2a3.007,3.007,0,0,0-3,0,2.864,2.864,0,0,0-1,2,6.437,6.437,0,0,0,1,4c.278.528-.868-1.608,3,8,1.641,4.076,1.929,4.664,2,6,.078,1.456-.2,1.938,0,4a7.726,7.726,0,0,1,0,3,5.7,5.7,0,0,1-1,2c-1.865,2.538-3.867,4.609-5,6a24.319,24.319,0,0,0-3,5,38.9,38.9,0,0,0-3,8c-.592,2.39-.331,2.39-1,5a50.4,50.4,0,0,1-2,6c-.931,2.433-1.138,2.673-3,7-2.359,5.48-2.631,6.5-4,8a13.656,13.656,0,0,1-4,3,48.911,48.911,0,0,0-3,4c-.624.928-.719,1.138-4,7a25.06,25.06,0,0,0-2,4,28.092,28.092,0,0,0-1,4c-.971,4.586-1.069,5.851-2,8a20.373,20.373,0,0,1-1,2,20.874,20.874,0,0,1-3,4c-1.513,1.64-3.418,3.852-6,7"/><path class="cls-23" d="M.5,316.5a18.457,18.457,0,0,0,2.737-1.229"/><path class="cls-25" d="M8.336,312.057A3.666,3.666,0,0,1,10.5,311.5a4.243,4.243,0,0,1,2,1,11.2,11.2,0,0,1,3,3c.927,1.5.979,2.84,1,7,.031,6.124-.071,5.51,0,7,.263,5.543,1.249,5.284,1,9a55.031,55.031,0,0,0,0,6,4.568,4.568,0,0,0,1,3,2.85,2.85,0,0,0,2,1,2.966,2.966,0,0,0,2-1,12.425,12.425,0,0,0,3-5c1.519-4.152.982-4.259,2-6a9.885,9.885,0,0,1,4-4,9.59,9.59,0,0,1,4-1c2.733-.084,3.225,1.07,6,1a8.292,8.292,0,0,0,4-1,7.8,7.8,0,0,0,3-3c.745-1.357.83-2.571,1-5a13.864,13.864,0,0,0,0-4c-.75-2.927-3-3.218-4-6-.452-1.259-.323-2.123,0-5,.989-8.8.5-7.127,1-10,1.405-8.032,2.965-8.092,4-14a12.135,12.135,0,0,1,2-5,7.212,7.212,0,0,1,2-2,7.313,7.313,0,0,1,4-1c4.585-.055,7.073-.085,11,1,3.949,1.091,4.312,1.917,7,2,.541.017,1.146,0,6-1,6.122-1.265,7.193-1.662,8-2a14.242,14.242,0,0,0,5-3c1.068-1.052.8-1.2,3-4,1.985-2.528,2.42-2.684,3-4,.1-.236.4-1.494,1-4,.545-2.294.685-2.918,1-4a19.777,19.777,0,0,1,1-3c.474-.956,1.651-3.329,4-4a6.678,6.678,0,0,1,3,0,6.178,6.178,0,0,1,3,1,6.116,6.116,0,0,1,2,3c.589,1.651.273,2.52,1,3a2.392,2.392,0,0,0,2,0,5.7,5.7,0,0,0,3-3c.49-1.064.395-1.63,1-2a2.416,2.416,0,0,1,2,0c1.179.531,1.015,1.587,2,2a2.693,2.693,0,0,0,3-1c.487-.734.352-1.595,0-3a42.236,42.236,0,0,0-2-6,34.039,34.039,0,0,1-2-6c-.477-2.469.062-3.366,1-9,.8-4.8.865-6.9,2-13a23.926,23.926,0,0,1,2-6,9.372,9.372,0,0,1,2-3,8.046,8.046,0,0,1,5-2,9.671,9.671,0,0,1,6,2c.947.779,1.578,1.68,3,2a4.99,4.99,0,0,0,2,0,14.925,14.925,0,0,0,5-2,20.71,20.71,0,0,1,6-2,13.8,13.8,0,0,1,7,0,13.1,13.1,0,0,1,5,3,18.991,18.991,0,0,1,4,5c1.427,2.532,1.036,3.087,3,8,1.375,3.44,1.65,3.378,2,5,.355,1.646.241,3.453,0,7-.252,3.7-.39,5.58-1,7-.81,1.885-1.509,2.166-2,4a10.538,10.538,0,0,0,0,5c.757,3.773,2.441,4.25,4,9a34.242,34.242,0,0,1,1,4,41.751,41.751,0,0,1,1,7c.163,3.562-.394,4.283,0,8a12.486,12.486,0,0,0,1,4,8.264,8.264,0,0,0,2,3,9,9,0,0,0,5,2,3.533,3.533,0,0,0,2,0c.982-.4,1.509-1.433,2-3a20.353,20.353,0,0,0,1-6c-.173-6.468-.259-9.7-1-13-1.03-4.581-1.961-5.447-2-9-.015-1.341.1-2.432,0-5-.146-3.576-.519-4.921-1-6-.7-1.577-1.063-1.306-2-3-1.1-1.991-1.14-3.334-2-8-.825-4.475-.858-3.61-1-5a25.957,25.957,0,0,1,1-10,19.1,19.1,0,0,1,2-5c.965-1.62,1.628-2.109,3-4a39.776,39.776,0,0,0,3-5c1.155-2.315,1.786-4.908,3-10,.638-2.674,1.613-5.279,2-8,.24-1.691.429-3.848,2-5a10.2,10.2,0,0,1,2-1,17.968,17.968,0,0,1,3-1,13.412,13.412,0,0,1,5,0,25.023,25.023,0,0,1,7,2,15.98,15.98,0,0,1,6,4,12.253,12.253,0,0,1,3,6,17.662,17.662,0,0,1,0,4,46.587,46.587,0,0,1-1,7c-.1.454-.4,1.636-1,4-1.194,4.69-1.629,6.194-1,8,.159.457.118.162,1,2,1.346,2.805,1.282,3.157,2,4,1.015,1.192,1.573.994,2,2a4.609,4.609,0,0,1,0,3,3.7,3.7,0,0,1-1,2c-.667.59-1.11.343-3,1a4.863,4.863,0,0,0-2,1,3.745,3.745,0,0,0-1,2c-.486,2.27.247,4.654,1,7,.994,3.1,1.491,4.647,2,6,1.488,3.955,2.232,5.933,3,7a5.908,5.908,0,0,1,1,2,6.2,6.2,0,0,1,0,3c-.1.406-.813,3.36-3,4a4.386,4.386,0,0,1-2,0c-1.414-.213-1.689-.7-3-1a6.159,6.159,0,0,0-3,0,5.657,5.657,0,0,0-3,2c-1.029,1.4-1.017,2.967-1,5,.02,2.414.558,3.231,0,5a9.49,9.49,0,0,1-1,2c-1.643,2.85-2.465,4.275-3,5a18.482,18.482,0,0,1-5,5,22.715,22.715,0,0,1-4,2c-1.86.7-3.015.834-4,2a4.888,4.888,0,0,0-1,2,4.646,4.646,0,0,0,0,2q-.312,5-.625,10"/><path class="cls-23" d="M198.687,304.506,198.5,307.5"/><path class="cls-26" d="M29.5,349.5c.767-1.234,1.461-2.246,2-3,1.614-2.26,2.231-2.767,3-3a3.8,3.8,0,0,1,2,0c3.471.765,6.455,5.176,7,6"/><path class="cls-23" d="M60.5,349.5a23,23,0,0,0,2-3,15.308,15.308,0,0,0,2-5c.281-1.794-.092-3.127-1-6-1.417-4.485-2.126-6.728-3-9-1.931-5.02-2.9-7.53-4-10-1.2-2.687-1.854-3.907-2-6-.1-1.466.151-1.839,1-6a75.379,75.379,0,0,1,2-9,13.427,13.427,0,0,1,2-4,6.1,6.1,0,0,1,2-2c1.769-.953,3.771-.363,5,0,2.233.659,2.319,1.415,6,3a13.116,13.116,0,0,0,3,1,11.664,11.664,0,0,0,4,0,54.9,54.9,0,0,0,8-2s3.378-1.022,8-2c1.606-.34,2.777-.548,4,0,1.3.585,1.453,1.485,3,2a4.337,4.337,0,0,0,3,0,4.426,4.426,0,0,0,2-2c1.594-2.59,1.953-4.454,3-7,.768-1.866.728-1.238,2-4,2.187-4.75,2.112-6.194,4-8a11.259,11.259,0,0,1,3-2,8.1,8.1,0,0,1,4-1c1.212.077,1.337.477,5,2a9.535,9.535,0,0,0,3,1,8.816,8.816,0,0,0,4-1,11.769,11.769,0,0,1,2-1,5.723,5.723,0,0,1,3,0,6.619,6.619,0,0,1,3,2c1.922,1.935,2.205,2.789,4,5,2.161,2.661,2.96,2.911,4,5a8.434,8.434,0,0,1,1,3,10.183,10.183,0,0,1-1,5,22.749,22.749,0,0,1-2,4,32.011,32.011,0,0,0-2,3,7.423,7.423,0,0,0-1,4c.03.357.115.867,2,4,1.362,2.264,1.946,3.039,3,5a19.845,19.845,0,0,1,1,2,12.95,12.95,0,0,1,1,5c-.017,1.449-.3,1.873,0,3a5.522,5.522,0,0,0,1,2c.708.876,1.223.9,3,2,1.822,1.122,1.694,1.347,3,2a7.7,7.7,0,0,0,3,1,6.615,6.615,0,0,0,4-1,6.5,6.5,0,0,0,2-2,7.22,7.22,0,0,0,1-3c.281-1.844-.161-2.033,0-4a12.3,12.3,0,0,1,1-4,11.688,11.688,0,0,1,2-3,22.808,22.808,0,0,1,5-4c2.454-1.657,3.181-1.833,4-3a2.844,2.844,0,0,1,1-1c.8-.435,1.634-.277,3,0a7.893,7.893,0,0,1,3,1,6.422,6.422,0,0,1,2,2,8.07,8.07,0,0,1,1,4,14.517,14.517,0,0,1,0,2c-.282,4.522.512,5.868,0,10a12.954,12.954,0,0,1-1,4,11.729,11.729,0,0,1-2,3c-1.062,1.189-3.309,3.36-11,7-2.7,1.276-2.982,1.275-4,2a17.831,17.831,0,0,0-5,6,53.779,53.779,0,0,1-7,9"/><path class="cls-23" d="M140.5,349.5a24.9,24.9,0,0,0,4-4,41.03,41.03,0,0,1,4-5,7.553,7.553,0,0,1,3-2c.72-.24,2.034-.678,3,0a2.859,2.859,0,0,1,1,2c.191,1.257-.18,2.34-1,4a36.108,36.108,0,0,1-3,5"/><path class="cls-23" d="M70.5,322.5c-.613-2.589-.715-2.434-1-4-.571-3.139-.162-3.781,0-4a2.612,2.612,0,0,1,2-1c1.34-.028,2.258,1.094,3,2a9.815,9.815,0,0,1,2,5,7.16,7.16,0,0,1,0,3c-.2.846-.621,2.558-2,3a3.075,3.075,0,0,1-3-1C71,324.947,70.975,324.509,70.5,322.5Z"/><path class="cls-23" d="M68.5,349.5c.1-1.981.162-4.727,0-8a51.762,51.762,0,0,0-1-9c-.841-3.954-1.339-6.3-3-9-1.2-1.95-2.133-2.674-3-5a42.448,42.448,0,0,1-1-5c-1.63-9.361-.517-6.026-1-8a3.431,3.431,0,0,1,0-2,3.248,3.248,0,0,1,2-2c1.313-.39,2.211.592,5,2a32.01,32.01,0,0,0,5,2,15.516,15.516,0,0,0,6,1,13.339,13.339,0,0,0,4-1,30.616,30.616,0,0,0,7-4c2.874-1.983,3.359-2.629,5-3a10.041,10.041,0,0,1,4,0,11.018,11.018,0,0,1,5,2c1.187.9.909,1.135,3,3,1.71,1.525,2.422,1.835,3,2a5.584,5.584,0,0,0,3,0c1.3-.376,1.509-.994,3-2a13.172,13.172,0,0,1,5-2,12.514,12.514,0,0,1,4,0,6.1,6.1,0,0,1,3,1,3.717,3.717,0,0,1,1,1c.84,1.334.247,3.08,0,4-.715,2.657.028,3.714,0,7-.075,8.722-5.43,15.325-8,23a5.964,5.964,0,0,1-2,3,5.06,5.06,0,0,1-3,1,6.21,6.21,0,0,1-4-2c-5.515-5.156-6.195-3.311-12-9-1.663-1.63-3.451-3.588-6-4a11.193,11.193,0,0,0-3,0,6.12,6.12,0,0,0-3,1c-1.274.973-1.645,2.519-2,4-.554,2.308-.11,3.338-1,4-.543.4-1.055.28-2,1a6.251,6.251,0,0,0-1,1,9.024,9.024,0,0,0-2,3,5.958,5.958,0,0,0,0,3,21.417,21.417,0,0,0,2,6"/><path class="cls-23" d="M152.5,224.5c1.92-1.5,2.53-1.385,5-3,2.56-1.673,2.042-1.89,4-3a28.3,28.3,0,0,1,6-2,3.918,3.918,0,0,1,3,0,2.629,2.629,0,0,1,1,1,3.661,3.661,0,0,1,0,3c-.512,1.452-1.148,1.334-2,3a21.116,21.116,0,0,0-1,3c-.569,1.782-.854,2.673-1,3-.69,1.543-1.519,1.8-4,4-2.637,2.336-3.955,3.5-5,5-.921,1.319-1.551,2.6-3,3a5.289,5.289,0,0,1-2,0c-1.951-.2-3.064-.314-4-1-1.392-1.021-1.659-2.771-2-5a10.014,10.014,0,0,1,0-4,10.212,10.212,0,0,1,2-4A14.865,14.865,0,0,1,152.5,224.5Z"/><path class="cls-23" d="M242.5,350.5a2.657,2.657,0,0,1,1-2c.685-.425,1.417-.138,3,0,1.42.124,1.584-.042,3,0,3.689.109,3.772,1.266,6,1,1.082-.129,2.388-.753,5-2,1.617-.772,1.364-.761,2-1a10.9,10.9,0,0,1,7,0c2.382.786,2.018,1.56,4,2a8.718,8.718,0,0,0,6-1c1.266-.746,1.564-1.4,3-3,1.537-1.714,1.462-1.264,7-6,3.287-2.811,4.172-3.7,6-4a17.125,17.125,0,0,1,3,0c3.089.128,4.176.561,6,0a5.14,5.14,0,0,0,2-1c1.115-.954,1.225-2.024,2-4,.785-2,.9-1.5,2-4,1.107-2.531.965-3,2-5a9.687,9.687,0,0,1,2-3,7.907,7.907,0,0,1,4-2c1.544-.256,1.762.234,4,0,1.517-.158,2.47-.272,3-1,.769-1.056.125-2.685,0-3-.635-1.605-2.068-2.625-4-4-.965-.687-1.674-1.084-2-2a3.607,3.607,0,0,1,0-2c.808-4.437.284-4.412,1-6a34.841,34.841,0,0,1,2-3c1.006-1.446,1.4-1.918,2-2s1.052.277,2,1c3.554,2.713,3.072,2.135,4,3,2.093,1.95,1.77,2.3,3,3a9.616,9.616,0,0,0,4,1,17.447,17.447,0,0,0,4,0,17.064,17.064,0,0,0,6-2,19.192,19.192,0,0,0,4-3c1.8-1.669,1.983-2.289,6-7a16.381,16.381,0,0,1,3-3,15.946,15.946,0,0,1,4-2c5.67-1.836,15,0,15,0,6.452,1.27,13.1,2.577,21,7a48.088,48.088,0,0,1,20,20,19.752,19.752,0,0,1,3,8,25.581,25.581,0,0,1,0,4c-.185,7.475.387,8.115,0,13a54.6,54.6,0,0,1-1,7,52.529,52.529,0,0,1-2,7"/><path class="cls-23" d="M311.5,349.5c1.2-1.084,2.194-2.109,3-3a16.1,16.1,0,0,0,3-4,14.793,14.793,0,0,0,1-4,72.713,72.713,0,0,1,2-7,46,46,0,0,1,3-7,3.762,3.762,0,0,1,2-2,6.042,6.042,0,0,1,2,0,11.553,11.553,0,0,0,3,0,3.919,3.919,0,0,0,2-1,3.96,3.96,0,0,0,1-2c.263-1.052.126-1.582,0-4a13.292,13.292,0,0,1,0-3c.138-.6.554-2.427,2-3a3.226,3.226,0,0,1,2,0,4.545,4.545,0,0,1,3,2c.4.8.138,1.285,0,3-.161,2-.411,5.106,1,6a2.013,2.013,0,0,0,2,0c.585-.354.77-1,1-2,.67-2.909.562-3.756,1-5a12.633,12.633,0,0,1,2-3c2.127-2.76,3.19-4.14,5-5,1.256-.6,1.143-.143,4-1a21.937,21.937,0,0,0,5-2c2.342-1.355,2.215-2.072,4-3,1.689-.878,3.126-.919,6-1,.923-.026,3.628.316,9,1a10.83,10.83,0,0,1,4,1c1.434.739,1.5,1.29,3,2,.884.418,1.189.381,4,1a31.534,31.534,0,0,1,4,1,12.239,12.239,0,0,1,4,3,26.7,26.7,0,0,1,8,13c1.768,5.688,1.856,9.994,2,17a20.9,20.9,0,0,1-1,8,18.4,18.4,0,0,1-2,4"/><path class="cls-23" d="M326.5,349.5a10.154,10.154,0,0,0,2-1,9.5,9.5,0,0,0,3-3c.09-.148,0-.01,1-2,.811-1.614.844-1.652,1-2,.8-1.782.436-1.911,1-3a8.176,8.176,0,0,1,3-3,6.465,6.465,0,0,1,2-1,5.427,5.427,0,0,1,3,0c1.147.384,1.615,1.157,3,3,2.879,3.83,2.739,3,4,5,1.2,1.913,1.533,3,3,4a9.168,9.168,0,0,0,2,1c1.907.7,2.743.343,4,1a5.034,5.034,0,0,1,2,2"/><path class="cls-23" d="M371.5,349.5c-1.277-1.609-2.283-2.987-3-4-1.238-1.75-1.834-2.726-2-3-1.215-2-1.822-3.007-2-4a8.193,8.193,0,0,1,1-5,12.9,12.9,0,0,1,3-4,19.73,19.73,0,0,1,5-3,18.848,18.848,0,0,1,5-2,16.625,16.625,0,0,1,5,0,14.613,14.613,0,0,1,5,1,13.576,13.576,0,0,1,4,3,15.437,15.437,0,0,1,4,5,12.369,12.369,0,0,1,1,4c.562,5.079.855,10.065,1,13"/><path class="cls-27" d="M386.5,350.5a31,31,0,0,1-7-4,26.542,26.542,0,0,1-5-5c-1.554-2.039-1.888-3.11-2-4-.065-.519-.336-2.676,1-4,.249-.246,1.01-.917,4-1a16.92,16.92,0,0,1,7,1,16.7,16.7,0,0,1,6,4,11.889,11.889,0,0,1,3,4,16.689,16.689,0,0,1,1,6c.032.84.018,1.535,0,2"/><path class="cls-28" d="M.5,328.5a3.6,3.6,0,0,1,2-2,3.315,3.315,0,0,1,2,0c2.428.658,4.247,3.494,5,6a14.193,14.193,0,0,1,0,7,16.153,16.153,0,0,1-2,6,14.792,14.792,0,0,1-5,5"/></g><g id="voda"><path class="cls-29" d="M18.5,349.5a30.673,30.673,0,0,1,0-9,19.069,19.069,0,0,1,2-7c1.759-3.189,3.2-3.007,6-7,1.409-2.012,2.523-3.6,3-6a14.1,14.1,0,0,0-1-8c-1.412-3.612-2.695-3.308-4-7a14.386,14.386,0,0,1-1-7c.245-1.787.766-2.476,1-5a25.368,25.368,0,0,0,0-4c-.244-4.877-1.007-6.235,0-8,.139-.244.062-.057,2-2,3.153-3.161,3.693-3.993,4-5a3.717,3.717,0,0,0,0-3c-.69-1.116-1.931-.737-3-2-.6-.71-.734-1.473-1-3a7.179,7.179,0,0,1,0-4c.413-1.086.889-1.088,2-3a10.917,10.917,0,0,0,1-2c.488-1.455.149-2.53-1-7-.223-.867-.59-2.3-1-4a26.432,26.432,0,0,1-1-5,9.08,9.08,0,0,1,1-5c.719-1.276,1.4-1.593,3-3,3.226-2.842,3.088-3.925,8-9l2-2,8-8c.229-.445.829-1.714,2-2a2.261,2.261,0,0,1,1,0,22.413,22.413,0,0,0,7,0,6.334,6.334,0,0,0,3-1,6.056,6.056,0,0,0,2-3,28.255,28.255,0,0,1,4-7"/><path class="cls-29" d="M29.5,178.5a56.688,56.688,0,0,0-3,6c-2.145,5.024-1.336,5.193-3,8-.245.413-2,3.336-2,5,0,.064,0,.839,0,2,0,.948,0,.949,0,1,.124,1.589,2.525,2.767,3,3,2.588,1.27,4.545.834,5,2a1.568,1.568,0,0,1,0,1c-.412,1.584-1.045,10.336-2,30"/><path class="cls-29" d="M.5,210.5a47.381,47.381,0,0,0,5-2c1.994-.932,3.883-1.984,10-6,1.524-1,3.575-2.359,6-4"/><path class="cls-29" d="M11.5,205.5q1.466,1.99,3,4c5.607,7.341,6.738,8.729,8,10a42.118,42.118,0,0,0,6,5"/><path class="cls-29" d="M225.5,349.5a5.364,5.364,0,0,1,0-3,20.131,20.131,0,0,1,1-2,11.606,11.606,0,0,0,1-3,5.944,5.944,0,0,0,0-3c-.474-1.452-1.363-1.379-2-3-.426-1.083-.612-2.6,0-3,.245-.161.546-.1,1,0a4.636,4.636,0,0,1,2,1,5.618,5.618,0,0,1,2,3c.334,1.432-.336,1.65,0,3a10.091,10.091,0,0,0,2,3c1.5,1.882,1.787,1.974,2,2,1.237.153,2.542-1.564,3-3a5.146,5.146,0,0,0,0-3,7.909,7.909,0,0,0-2-3c-.313-.36-.774-.867-3-3-1.774-1.7-1.848-1.728-2-2-.551-.983-.768-2.719,1-6"/><path class="cls-1" d="M240.5,332.5a2.484,2.484,0,0,1,2,0,3.425,3.425,0,0,1,2,2,2.377,2.377,0,0,1,0,2,2.437,2.437,0,0,1-2,1,3.027,3.027,0,0,1-3-2A2.63,2.63,0,0,1,240.5,332.5Z"/><path class="cls-1" d="M248.5,337.5a4.214,4.214,0,0,1,1,2c.169.626.446,1.648,0,2-.166.131-.419.16-1,0-1.14-.313-2.565-.7-3-2-.385-1.147.095-2.743,1-3C247.318,336.268,248.217,337.205,248.5,337.5Z"/><path class="cls-1" d="M256.5,343.5a1.6,1.6,0,0,0,1,0c.909-.363,1.323-1.85,1-3a3.192,3.192,0,0,0-2-2,2.377,2.377,0,0,0-2,0,2.416,2.416,0,0,0-1,2C253.523,342.127,255.273,343.223,256.5,343.5Z"/><path class="cls-1" d="M86.5,348.5a15.058,15.058,0,0,1,1-4,29.768,29.768,0,0,1,2-5,7.265,7.265,0,0,1,4-3,3.263,3.263,0,0,1,2,0c.927.351,1.088,1.05,2,2,1.25,1.3,1.856.934,3,2,.978.911,1.332,1.953,2,4,.881,2.7,1.322,4.05,1,5-1.477,4.358-15.836,4.3-17,1A5.274,5.274,0,0,1,86.5,348.5Z"/><line class="cls-30" x1="30" y1="306" x2="30" y2="285.645"/><polygon class="cls-31" points="32.179 287.131 30 279 27.821 287.131 32.179 287.131"/></g></svg>