<svg xmlns="http://www.w3.org/2000/svg" viewBox="0 0 550 350"><defs><style>.cls-1,.cls-20{fill:#cae8ee;}.cls-14,.cls-2{fill:#ffc7d8;}.cls-2{stroke:#42210b;}.cls-13,.cls-16,.cls-2,.cls-20,.cls-3,.cls-4,.cls-8{stroke-miterlimit:10;}.cls-13,.cls-16,.cls-3,.cls-4,.cls-8{fill:none;}.cls-3,.cls-4,.cls-8{stroke:#1b1464;}.cls-4{stroke-width:0.75px;}.cls-5{fill:#fff;}.cls-15,.cls-21,.cls-25,.cls-6{font-size:10px;}.cls-6,.cls-9{fill:#1b1464;}.cls-17,.cls-21,.cls-25,.cls-6,.cls-9{font-family:TimesNewRomanPS-ItalicMT, Times New Roman;font-style:italic;}.cls-7{letter-spacing:-0.074em;}.cls-8{stroke-dasharray:8.075 8.075;}.cls-9{font-size:12px;letter-spacing:0.017em;}.cls-10,.cls-17{letter-spacing:0.01em;}.cls-11{letter-spacing:-0.015em;}.cls-12{letter-spacing:-0.003em;}.cls-13{stroke:#de841e;stroke-width:2px;}.cls-15{font-family:TimesNewRomanPSMT, Times New Roman;}.cls-16,.cls-20{stroke:blue;}.cls-17{font-size:8px;}.cls-17,.cls-21,.cls-25{fill:blue;}.cls-18{letter-spacing:-0.015em;}.cls-19{letter-spacing:0.01em;}.cls-21{letter-spacing:0.15em;}.cls-22{letter-spacing:0.149em;}.cls-23,.cls-25{letter-spacing:0.2em;}.cls-24{letter-spacing:0.153em;}.cls-26{letter-spacing:0.187em;}.cls-27{letter-spacing:0.2em;}.cls-28{letter-spacing:0.153em;}</style></defs><title>izobary2</title><g id="fon"><rect class="cls-1" x="1" width="549" height="351"/></g><g id="map"><path class="cls-2" d="M.5,31.5h7s3,0,4-2,7-2,7-2h21s1,1,2-1,0-2,2-3,10,0,10,0a14.385,14.385,0,0,1,3,2c1,1,10,0,10,0a17.274,17.274,0,0,0,7-2c4-2,3-2,9-3s5-3,5-3,7-11,19-13,7,3,7,3l-4,2c-2,1-5,1,1,4s5-1,5-1,7,0,4,3-3,6,1,5,14-1,15-1h7c1,0,1,2,1,2s-1,1,3,1,3,2,3,2,0,1-3,2-7,4-12,4-7,1-7,1l-2,2c-1,1-3,4-7,4s-5-1-5-1a3.491,3.491,0,0,0-2-1,10.873,10.873,0,0,0-5,1c-2,1-5,2-8,4s-3,5,0,4a32.167,32.167,0,0,0,7-4,10.073,10.073,0,0,1,3-1c1,0,4,0,5,1a5.2,5.2,0,0,0,4,2c2,0,6-2,6-2a10.073,10.073,0,0,1,3-1c1,0,2-3,2-3s4-2,7-1,6-1,7,2,3,3,3,3,2,0,5-4,22,1,22,1a3.7,3.7,0,0,1,2,3c0,2,4,3,4,3s9,0,13-2,9-5,9-5,10-1,17,0,8,1,9,2,1,3-2,4l-9,3s-5,5,3,3,8-4,8-4,4-2,3,2-3,10,2,9a22.578,22.578,0,0,1,9,0s3,0,3-5,28,0,28,0l2,2s5,1,8-1,3-6,3-6,1-5,8-4,13,2,13,2a4.829,4.829,0,0,0,4,0l4-2,2,1-1,2,1,1,1,1-1,2s-1,1,0,1h5a4.938,4.938,0,0,0,3-1c1-1,0-4,6-4s8,4,8,4,2,2,3,2,7,2,7,2l5,2s7,1,13-1h6l4,1a10.073,10.073,0,0,1,3-1h8s5,2,7,4-1,5-1,5,3,8,12,2,32,0,32,0l9,4s10,4,6-4,4-5,4-5,11,9,19,3,13,0,13,0,5-1,13,4,25,9,25,9a10.8,10.8,0,0,0,8,4c5,0,6,12,6,12s9,7,5-1,0-7,1-7,3,2,3,2a3.1,3.1,0,0,1,4-2c3,1,0,25,0,25l-5-2s-1-3-7-4-5,1-11-5-7,0-7,0h-3a6.289,6.289,0,0,1-3-7c1-5-6,1-6,1l-1,2,1,1s5,3,0,6-8,3-8,3l-5-1-3-2-2,1h-2s-5,3,0,3,12,6,12,6l1,2v2c0,1,2,3,2,3s3,5,0,6-9-2-9-2l-3-1h-3l-2,1-1,4-8,4s-7-1-7,4-7,4-7,4h-3s-3,1-3,5-6-3-6-3-7-7-14,1-6,6-6,6-4,4-4-1-3,1-3,1-5,5-4-1-6,3-6,3h-3l-1,1-3,13s-1,3,0,5a3.552,3.552,0,0,0,3,2s2,2-2,4,3,1,3,1v8h-2s-3-5-3,0a58.464,58.464,0,0,1-1,10s1,8-7,6-5,15-5,15-2-1-6,0c-6.136,1.534-5,10-5,10s-4.938,11-13,11c-1,0-1-4-1-4l-3-18s-5-24,1-30,6-10,6-10v-6h4s6-2,9-5,16-17,16-17a6.83,6.83,0,0,1,4-4c3-1,10-2,10-8s4-8,4-8,7,0,0-3-9,7-9,7l-8,7s-7,10-9,2-4-9-4-9-2-1-7,2a15.3,15.3,0,0,1-10,2s0,9-12,13,0,5,0,5,7,2-1,3a112.121,112.121,0,0,0-15,3s-11-1-4-4-8-4-8-4h-3l-2,2-2,2h-2l-2-1-2-2-4,2-4,1-1-1s-3,3-7-1-17,1-17,1l-7,7-3,1-3,5s-13,10-23,19-14,9-14,9-3,4,2,5,4,4,4,4l1,1,4,1,1,1v2h4v3h1l1-1,1-4s0-4,5-2,6,2,6,2l1,2,1,2,3,3-1,3v6s3,6-5,13l-1,2v4s2,5-5,22l-2,2s-9.3,6.894-12,15l-4,6-5,5-7,11-4,5-5,5-2,3-8,7s-8,6-10,0-8,1-8,1l-9,8s-6,1-6,6-3,7-3,7l-5,4-3,3h-46s4-13-6-5-11,5-11,5H.5Z"/></g><g id="setka"><path class="cls-3" d="M239.5.5c-3.338,15.522-7.885,37.133-13,63-9.062,45.831-15.054,80.479-21,115-4.11,23.864-10.17,59.879-17,104-4.079,26.347-7.426,49.09-10,67"/><path class="cls-3" d="M191.5.5c-2.655,7.072-6.676,18.185-11,32-7.825,25-11.29,41.733-18,70-7.356,30.988-6.539,24.973-15,60-11.551,47.82-19.407,85.248-25,112-4.148,19.84-9.319,45.261-15,75"/><path class="cls-3" d="M139.5.5c-24.476,72.855-33.342,99.994-34,103-.044.2-.387,1.829-1,4-.923,3.268-1.85,5.61-2,6-6.714,17.416-23,79-23,79-11.463,43.347-17.194,65.02-21,77-4.333,13.639-12.1,36.926-19,70-.877,4.2-1.556,7.679-2,10"/><path class="cls-3" d="M88.5.5c-3.875,9.025-9.539,22.5-16,39-15.493,39.564-24.839,69.111-30,85-9.059,27.888-22.839,67.928-43,119"/><path class="cls-3" d="M37.5.5q-19,41-38,82"/><path class="cls-3" d="M294.5.5c-3.518,25.22-6.764,45.529-9,59-6.1,36.727-7.379,38.807-10,60-1.929,15.6-2.172,22.049-6,55-1.353,11.648-1.857,15.44-3,25-3.336,27.9-5.406,48.808-8,75-2.055,20.752-4.476,46.4-7,76"/><path class="cls-3" d="M343.5-.5c-.805,14.715-2.089,36.536-4,63-2.565,35.516-4.891,60.458-6,73-1.374,15.531-2.506,32.873-8,137-.945,17.912-2.336,44.465-4,77"/><path class="cls-4" d="M394.5-.5c.017,11.205.034,29.479,0,52-.12,80.563-.739,119.1-1,186-.1,25.712-.184,64.71,0,113"/><path class="cls-4" d="M443.5.5c1.393,17.684,3.53,45.224,6,79,4.323,59.109,7.95,109.084,11,170,1.224,24.45,2.758,58.7,4,100"/><path class="cls-4" d="M494.5.5c2.474,16.85,5.558,38.221,9,63,.309,2.226,6.675,48.117,12,90,10.263,80.718,18.491,160.937,22,196"/><path class="cls-4" d="M-.5,64.5q69.5.085,139,0,205.5-.252,411-2"/><path class="cls-4" d="M.5,146.5c23.767.407,59.118.89,102,1,87.691.225,147.047-1.266,191-2,60.086-1,146.032-1.509,254,1"/><path class="cls-4" d="M.5,245.5c11.607.287,28.957.678,50,1,68.72,1.052,111.578.374,167,0,83.594-.564,74.639.38,187,0,62.834-.213,113.542-.67,145-1"/><rect class="cls-5" x="72" y="12" width="21" height="11"/><text class="cls-6" transform="translate(73.057 21.264)">100°</text><rect class="cls-5" x="124" y="12" width="21" height="11"/><text class="cls-6" transform="translate(125.057 21.264)"><tspan class="cls-7">1</tspan><tspan x="4.258" y="0">10°</tspan></text><rect class="cls-5" x="176" y="12" width="21" height="11"/><text class="cls-6" transform="translate(177.057 21.264)">120°</text><rect class="cls-5" x="226" y="12" width="21" height="11"/><text class="cls-6" transform="translate(227.057 21.264)">130°</text><rect class="cls-5" x="282" y="12" width="21" height="11"/><text class="cls-6" transform="translate(283.057 21.264)">140°</text><rect class="cls-5" x="333" y="12" width="21" height="11"/><text class="cls-6" transform="translate(334.057 21.264)">150°</text><rect class="cls-5" x="384" y="12" width="21" height="11"/><text class="cls-6" transform="translate(385.057 21.264)">160°</text><rect class="cls-5" x="436" y="12" width="21" height="11"/><text class="cls-6" transform="translate(436.057 21.264)">170°</text><rect class="cls-5" x="487" y="12" width="21" height="11"/><text class="cls-6" transform="translate(487.057 21.264)">180°</text><rect class="cls-5" x="18" y="12" width="21" height="11"/><text class="cls-6" transform="translate(22.057 21.264)">90°</text><rect class="cls-5" x="7" y="140" width="21" height="11"/><text class="cls-6" transform="translate(11.057 149.264)">60°</text><rect class="cls-5" x="7" y="59" width="21" height="11"/><text class="cls-6" transform="translate(11.057 68.264)">70°</text><rect class="cls-5" x="7" y="240" width="21" height="11"/><text class="cls-6" transform="translate(11.057 249.264)">50°</text><path class="cls-3" d="M.5,91.5l4-.014"/><path class="cls-8" d="M12.578,91.457c67.334-.249,122.516-.64,160.922-.957,101.716-.838,146.467-1.651,233-2,56.254-.227,102.916-.147,134.972-.031"/><path class="cls-3" d="M545.5,88.484l4,.016"/><text class="cls-9" transform="translate(229.509 85.792)">С<tspan class="cls-10" x="8.206" y="0">еверный п</tspan><tspan class="cls-11" x="60.227" y="0">о</tspan><tspan class="cls-10" x="66.048" y="0">лярный к</tspan><tspan class="cls-12" x="112.512" y="0">р</tspan><tspan class="cls-10" x="118.474" y="0">уг</tspan></text></g><g id="iz"><path class="cls-13" d="M325.5,345.5a294.611,294.611,0,0,1-41-35c-15.148-15.565-26.078-27.016-34-46a110.506,110.506,0,0,1-8-31c-3.281-32.836,10.041-57.946,15-67,4.268-7.792,7.629-13.269,12-18,6.032-6.53,12.472-10.915,20-15,23.42-12.71,47.591-17.211,52-18,5.431-.972,30.075-5.168,64-2,15.609,1.458,46.32,4.594,81,21,23.224,10.987,37.155,22.685,41,26a166.012,166.012,0,0,1,22,23"/><path class="cls-13" d="M381.5,349.5a282.711,282.711,0,0,1-32-25c-10.537-9.525-23.87-21.728-37-41-16.627-24.4-22.341-44.6-24-51-3.394-13.089-3.4-20.809-3-26a80.372,80.372,0,0,1,9-29c15.482-28.195,52.726-40.267,62-43,66.549-19.614,127.19,18.848,138,26a189.279,189.279,0,0,1,56,58"/><path class="cls-13" d="M435.5,349.5a231.811,231.811,0,0,1-34-19c-16.848-11.371-27.836-22.015-36-30-12.167-11.9-20.67-20.217-26-31a110.045,110.045,0,0,0-6-11c-4.942-7.908-6.8-8.554-11-15-3.308-5.081-7.688-11.807-9-21a41.912,41.912,0,0,1,1-16c3.947-17.327,15.625-28.149,21-33a68.463,68.463,0,0,1,25-15c9.085-2.991,16.052-3.033,28-3a172.081,172.081,0,0,1,43,5,178.526,178.526,0,0,1,39,15,167.017,167.017,0,0,1,46,34,162.6,162.6,0,0,1,33,52"/><path class="cls-13" d="M459.5,334.5a197.329,197.329,0,0,1-29-11,188.453,188.453,0,0,1-47-32c-.736-.687.209.184-23-25-6.136-6.658-10.931-11.85-16-20-4.689-7.539-7.034-11.308-8-16-3.473-16.862,10.707-34.309,22-43,10.683-8.222,21.374-10.6,28-12,24.417-5.156,44.668,2.174,58,7a137.292,137.292,0,0,1,43,25c15.841,13.812,24.231,27.929,32,41,4.947,8.323,8.631,16.549,16,33a129.685,129.685,0,0,1,8,24c1.792,7.851,1.927,11.91,1,16a32.027,32.027,0,0,1-8,14C519.691,352.294,477,339.672,459.5,334.5Z"/><path class="cls-13" d="M376.5,255.5a58.311,58.311,0,0,1-14-19,30.067,30.067,0,0,1-3-11,32.783,32.783,0,0,1,4-16c8.64-15.675,36.856-18.614,41-19,1.837-.171,38.945-3.082,67,21,7.57,6.5,14.315,14.818,25,28,1.29,1.591,7.15,8.855,14,19,7.346,10.879,9.36,15.489,10,17a62.44,62.44,0,0,1,5,20c.435,6.106.676,9.5-1,13-3.739,7.808-14.084,10.018-19,11-31.046,6.2-71.181-15.855-75-18C422.071,296.767,406.881,283.011,376.5,255.5Z"/><path class="cls-13" d="M422.5,276.5a131.832,131.832,0,0,1-21-19c-8.07-9.009-12.774-16.715-16-24-4.234-9.564-4.316-14.778-3-19a20.452,20.452,0,0,1,4-7c10.394-11.518,35.367-5.384,41-4a91.353,91.353,0,0,1,35,18c15.22,12.463,21.236,25.3,30,44,1.372,2.929,3.98,8.856,3,16a16.986,16.986,0,0,1-3,8c-3.195,4.224-7.976,5.472-10,6C471.413,298.393,446.853,293.868,422.5,276.5Z"/><path class="cls-13" d="M175.5-.5a79.614,79.614,0,0,1-6,13c-3.07,5.332-5.095,8.851-9,12-5.07,4.089-10.386,5.142-15,6a61.075,61.075,0,0,1-25-1c-24.073-5.812-43.832-24.829-49-30"/><path class="cls-13" d="M225.5-.5c-1.67,2.3-4.024,5.423-7,9a141.722,141.722,0,0,1-11,12c-4.8,4.546-9.267,7.426-18,13a250.211,250.211,0,0,1-30,16,50.8,50.8,0,0,1-9,3,32.262,32.262,0,0,1-7,1,28.741,28.741,0,0,1-8-1c-25.716-6.712-53-20-53-20-24.319-11.844-32.1-17.2-36-20a175.177,175.177,0,0,1-16-13"/><path class="cls-13" d="M278.5-.5c-3.021,1.987-7.469,4.82-13,8-2.65,1.524-4.526,2.539-13,7-12.941,6.812-19.412,10.218-23,12-9.85,4.892-10.115,4.667-14,7-7.012,4.21-9.43,6.912-16,12a180.862,180.862,0,0,1-25,16c-8.223,4.555-14.142,7.834-23,11-11.315,4.044-20.849,5.552-30,7-.755.119-4.29.67-9,1-4.612.323-6.979.475-10,0a28.583,28.583,0,0,1-9-3c-3.683-2-5.14-3.945-11-10-2.623-2.71-5.385-5.283-8-8-9.117-9.473-25.066-21.862-33-28C25.516,19.135,11.457,8.468-.5-.5"/><path class="cls-13" d="M-.5,312.5c3.635-5.369,8.785-12.947,15-22,2.29-3.335,15.856-23.1,25-36,19.594-27.653,29.605-41.782,45-59,10.325-11.548,23.139-25.738,43-41a267.508,267.508,0,0,1,39-25s7.557-4.31,24-11c7.4-3.011,11.568-4.359,17-4,2.654.176,9.551.632,15,6a21.982,21.982,0,0,1,6,12,23.608,23.608,0,0,1,0,8,122.323,122.323,0,0,1-12,36c-11.237,20.078-17.506,38.157-23,54-6.865,19.8-10.3,29.7-12,40a85.884,85.884,0,0,1-4,16,88.33,88.33,0,0,1-9,18c-11.818,18.732-31.67,41.242-35,45"/><path class="cls-13" d="M8.5,349.5c1.6-3.131,3.971-7.651,7-13,10.441-18.438,19.9-31.166,28-42,26.858-35.9,45.128-51.039,53-61a17.2,17.2,0,0,1,3-3c4.42-3.439,9.491-3.836,12-4,3.817-.25,7.867-.516,12,2a17.1,17.1,0,0,1,7,9,19.355,19.355,0,0,1,1,8c-1.354,20.233-9,39-9,39a278.568,278.568,0,0,1-14,30,316.661,316.661,0,0,1-22,35"/><path class="cls-13" d="M550.5,144.5c-13.387-12.192-23.778-17.976-31-21a33.193,33.193,0,0,1-13-9,25.076,25.076,0,0,1-6-13c-.326-2.52-.733-5.661,1-9a12.924,12.924,0,0,1,7-6,14.955,14.955,0,0,1,9,0c13.312,3.5,31.491,9.5,33,10"/><path class="cls-13" d="M416.5,254.5a42.832,42.832,0,0,1-11-10c-3.421-4.182-5.874-7.182-7-12-.432-1.851-2.064-8.835,2-15a17.6,17.6,0,0,1,7-6,21.242,21.242,0,0,1,9-2c2.712-.053,7.5.277,15,4a54.393,54.393,0,0,1,25,25,21.11,21.11,0,0,1,2,8c.087,2.162.232,5.78-2,9-2.218,3.2-5.579,4.268-8,5-1.105.334-5.234,1.49-14,0C428.9,259.548,423.047,258.553,416.5,254.5Z"/><path class="cls-13" d="M-1.5,42.5c3.566,2.694,9.277,7.139,16,13,8.449,7.366,16.415,15.344,32,31,5.38,5.4-1.405-1.422,23,20a24.406,24.406,0,0,0,6,4,27.742,27.742,0,0,0,15,2c13.114-1.374,25.8-6.646,29-8a316.744,316.744,0,0,0,37-18c4.071-2.313,2-1.24,23-14,0,0,11.589-7.043,30-18,19.464-11.584,21.528-12.632,25-14,8.13-3.2,11.375-3.187,28-7,7.969-1.828,19-4.358,31-8a348.669,348.669,0,0,0,42-16c7.784-3.456,14.252-6.606,19-9"/><path class="cls-13" d="M549.5,158.5c-3.557-2.9-8.711-7.067-15-12-9.1-7.139-17.233-13.5-28-21-10.041-7-15.062-10.5-22-14a148.317,148.317,0,0,0-23-9c-7.29-2.257-10.819-2.888-31-7,0,0-13.77-2.806-43-11a52.088,52.088,0,0,1-14-7c-3.208-2.223-4.322-3.525-5-5-2.211-4.808.665-10.461,2-13,5.6-10.647,16.4-16.952,31-25,15.419-8.5,23.128-12.746,28-15a337.768,337.768,0,0,1,52-19"/><rect class="cls-14" x="20.655" y="306.354" width="23.092" height="9.348" transform="translate(-241.717 160.214) rotate(-55.253)"/><text class="cls-15" transform="matrix(0.57, -0.822, 0.822, 0.57, 28.901, 321.721)">1025</text><rect class="cls-14" x="7.655" y="277.354" width="23.092" height="9.348" transform="translate(-223.479 137.061) rotate(-55.253)"/><text class="cls-15" transform="matrix(0.57, -0.822, 0.822, 0.57, 15.901, 292.721)">1020</text><rect class="cls-14" x="106.028" y="100.072" width="23.092" height="9.348" transform="translate(-27.686 43.959) rotate(-18.99)"/><text class="cls-15" transform="translate(108.648 111.436) rotate(-18.99)">1015</text><rect class="cls-14" x="118.116" y="73.048" width="23.092" height="9.348" transform="translate(-13.279 28.52) rotate(-11.945)"/><text class="cls-15" transform="translate(119.963 83.282) rotate(-11.945)">1010</text><rect class="cls-1" x="466.652" y="145.135" width="23.092" height="9.348" transform="matrix(0.862, 0.507, -0.507, 0.862, 142.048, -221.834)"/><text class="cls-15" transform="matrix(0.862, 0.507, -0.507, 0.862, 467.327, 147.329)">1010</text><rect class="cls-1" x="498.674" y="142.149" width="23.092" height="9.348" transform="matrix(0.843, 0.537, -0.537, 0.843, 158.731, -251.093)"/><text class="cls-15" transform="matrix(0.843, 0.537, -0.537, 0.843, 499.399, 143.933)">1015</text><rect class="cls-1" x="510.658" y="132.139" width="23.092" height="9.348" transform="translate(145.327 -249.682) rotate(31.041)"/><text class="cls-15" transform="matrix(0.857, 0.516, -0.516, 0.857, 511.354, 134.235)">1020</text><rect class="cls-1" x="518.658" y="124.139" width="23.092" height="9.348" transform="translate(142.347 -254.953) rotate(31.041)"/><text class="cls-15" transform="matrix(0.857, 0.516, -0.516, 0.857, 519.354, 126.235)">1025</text><rect class="cls-1" x="467.652" y="175.135" width="23.092" height="9.348" transform="matrix(0.862, 0.507, -0.507, 0.862, 157.401, -218.197)"/><text class="cls-15" transform="matrix(0.862, 0.507, -0.507, 0.862, 468.327, 177.329)">1005</text><rect class="cls-1" x="460.69" y="191.16" width="23.092" height="9.348" transform="translate(190.138 -230.521) rotate(33.986)"/><text class="cls-15" transform="matrix(0.829, 0.559, -0.559, 0.829, 461.549, 192.746)">1000</text><rect class="cls-1" x="480.342" y="224.67" width="17.266" height="9.348" transform="translate(348.987 -292.287) rotate(49.85)"/><text class="cls-15" transform="translate(481.365 225.622) rotate(49.85)">995</text><rect class="cls-1" x="461.342" y="223.67" width="17.266" height="9.348" transform="translate(341.474 -278.119) rotate(49.85)"/><text class="cls-15" transform="translate(462.365 224.622) rotate(49.85)">990</text><rect class="cls-1" x="435.29" y="218.614" width="17.266" height="9.348" transform="matrix(0.719, 0.695, -0.695, 0.719, 279.744, -245.722)"/><text class="cls-15" transform="matrix(0.719, 0.695, -0.695, 0.719, 435.968, 220.353)">885</text><rect class="cls-14" x="147.997" y="43.084" width="23.092" height="9.348" transform="translate(-6.403 61.788) rotate(-21.497)"/><text class="cls-15" transform="translate(150.864 54.757) rotate(-21.498)">1005</text><rect class="cls-14" x="96.633" y="19.124" width="23.092" height="9.348" transform="translate(24.844 -49.169) rotate(28.798)"/><text class="cls-15" transform="translate(97.264 21.578) rotate(28.798)">1000</text></g><g id="r"><path class="cls-16" d="M.5,105.5c3.779.98,6.884,1.609,9,2,5.5,1.016,6.81.882,10,2,4.364,1.53,4.178,2.574,7,3s4-.46,10-2a57.7,57.7,0,0,1,10-2,39.12,39.12,0,0,1,12,1c6.645,1.411,10.01,2.126,14,4,1.508.708,3.972,1.989,6,1,1.366-.667,1.687-1.95,3-2a3.693,3.693,0,0,1,3,2c.746,1.364.208,2.5,1,3,.547.342.949-.112,2,0a3.761,3.761,0,0,1,3,2c.693,1.646-.63,3.485-1,4-.953,1.325-1.534,1-2,2-.755,1.618.657,2.719,0,5a8.2,8.2,0,0,1-1,2c-1.1,1.83-1.676,1.9-2,3-.393,1.335.352,1.607,0,3-.368,1.457-1.218,1.3-2,3-.692,1.506-.176,1.955-1,4-.4.993-.5.841-1,2a8.828,8.828,0,0,0-1,4c.082,1.43.7,1.656,1,3a8.347,8.347,0,0,1-1,5c-1.544,3.219-7.983,6.7-17,8"/><path class="cls-16" d="M54.5,205.5a6.055,6.055,0,0,1-5,0c-2.438-1.257-2.858-4.057-3-5a9.923,9.923,0,0,1,2-7c.939-1.394,1.1-1.039,4-4a55.114,55.114,0,0,0,5-6c1.526-2.116,1.908-2.974,2-4,.134-1.5-.466-2.077,0-3,.533-1.055,1.73-1.117,4-2,.261-.1,1.507-.734,4-2,3.86-1.96,4.55-3.023,8-5,5.883-3.372,6.671-1.884,11-5a19.022,19.022,0,0,1,5-3,17.076,17.076,0,0,1,5-1c9.07-.859,18.169-11.966,19-13a24.589,24.589,0,0,1,4-4,9.526,9.526,0,0,1,3-2,8.541,8.541,0,0,1,5,0,14.667,14.667,0,0,1,6,3c2.026,1.676,1.745,2.344,4,4a11.134,11.134,0,0,0,4,2,6.562,6.562,0,0,0,7-2c2.2-2.072,4.261-3.112,8-5,3.251-1.642,5.023-2.506,7-2,.681.174,2.246.732,3,1,2.21.787,2.313.935,3,1a7.206,7.206,0,0,0,4-1c1.482-.761,1.422-1.211,3-2a11.456,11.456,0,0,1,3-1c2.185-.4,2.615.227,5,0a14.986,14.986,0,0,0,4-1c1.662-.666,1.879-1.106,4-2a10.439,10.439,0,0,1,3-1c1.826-.153,2.239.682,5,1a8.686,8.686,0,0,0,3,0c2.085-.434,2.163-1.484,4-2,2.258-.635,3.095.683,5,0,1.4-.5,2.13-1.64,3-3a14.261,14.261,0,0,0,2-8c.016-2.248.026-3.734-1-5-.8-.989-1.683-1.163-4-2a62.907,62.907,0,0,1-7-3,28.661,28.661,0,0,1-6-4c-2.552-2.236-2.342-2.929-5-5-1.857-1.447-2.487-1.52-4-3a13.491,13.491,0,0,1-3-4c-.869-1.869-.928-3.418-1-6a36.268,36.268,0,0,1,1-9c.714-3.118,1.07-4.677,2-6,1.434-2.04,2.522-1.922,6-5,2.281-2.018,1.8-2.06,4-4a43.984,43.984,0,0,1,7-5c2.717-1.564,3.445-1.59,5-3a12.456,12.456,0,0,0,3-4,11.564,11.564,0,0,0,1-4"/><path class="cls-16" d="M33.5,225.5a8.924,8.924,0,0,0,0-3,16.382,16.382,0,0,0-1-3,24.847,24.847,0,0,1-1-4,21.164,21.164,0,0,1,0-6,18.8,18.8,0,0,1,1-5,40.77,40.77,0,0,1,2-4c1.222-2.371,1.836-3.565,2-4a13.175,13.175,0,0,0,1-6c-.131-1.5-.345-3.955-2-5-.778-.491-1.308-.314-2-1a4.116,4.116,0,0,1-1-3c.059-1.415.763-2.452,2-4,3.658-4.577,4.613-4.4,6-7,.445-.833.755-1.614,2-4,.542-1.039.72-1.343,1-2,.779-1.826,1.2-2.807,1-4a4.9,4.9,0,0,0-2-3,6.212,6.212,0,0,0-4-1,8.936,8.936,0,0,0-4,1c-1.246.667-1.342,1.139-4,3-1.065.746-1.454.953-2,1-.786.068-1.535-.287-3-1a14.672,14.672,0,0,0-2-1,4.3,4.3,0,0,0-3,0c-1.025.477-.855,1.159-2,2a5.5,5.5,0,0,1-3,1c-1.576.048-2-.684-4-1a11.031,11.031,0,0,0-3,0,52.816,52.816,0,0,1-8,0"/><path class="cls-16" d="M167.5,175.5a35.408,35.408,0,0,1,1-5,17.2,17.2,0,0,1,1-3,14.96,14.96,0,0,1,4-5c2.408-2.112,2.755-1.433,4-3s1.314-2.753,3-4a5.954,5.954,0,0,1,2-1,7.593,7.593,0,0,1,3,0c1.731.173,1.768-.058,4,0a22.964,22.964,0,0,1,7,1c2.1.69,3.156,1.034,4,2,.672.769,1,1.625,2,2a3.208,3.208,0,0,0,2,0c3.6-.978,7.383-1.1,11-2,7.271-1.8,8.13-1.888,10-3a28.2,28.2,0,0,0,4-3,34.207,34.207,0,0,0,6-6c1.546-2.087,2.535-4.081,4-4a3.445,3.445,0,0,0,2,0,2.236,2.236,0,0,0,1-1c.485-1-.2-1.709,0-3a4.563,4.563,0,0,1,1-2c1.268-1.83,2.127-1.8,3-3,.673-.923.782-2.282,1-5,.209-2.608.314-3.912,0-5a8.662,8.662,0,0,0-4-5,9.793,9.793,0,0,0-5-1c-1.287.135-2.219.558-3,0-.717-.513-.444-1.235-1-2-.951-1.308-3.2-1.186-6-1a31.09,31.09,0,0,0-6,1"/><path class="cls-16" d="M222.5,114.5l-7,1"/><path class="cls-16" d="M50.5,251.5c-.023.343-.133,2.353,1,3,.372.212.785.225,2,0,2.468-.457,2.764-.881,4-1a5.64,5.64,0,0,1,4,1c.857.718.635,1.194,2,3,.872,1.155,1.309,1.732,2,2,.776.3,1.7.187,4-1a31.338,31.338,0,0,0,6-4,43.39,43.39,0,0,0,4-4c3.191-3.536,3.353-4.506,6-7,.715-.674.158-.089,4-3a4.974,4.974,0,0,1,2-1,5.942,5.942,0,0,1,2,0,17.326,17.326,0,0,0,4,0,6.2,6.2,0,0,0,3-1c.972-.716,1.081-1.423,2-3,1.5-2.575,2.016-2.075,3-4,1.3-2.541.609-3.821,2-5,.609-.516,1.406-.677,3-1,3.379-.684,4.375-.011,6-1,.545-.331.183-.255,2-2,1.941-1.864,2.934-2.8,4-3,1.36-.255,1.822.452,3,0a4.459,4.459,0,0,0,2-2,27.271,27.271,0,0,1,6-6,12.98,12.98,0,0,1,3-2,13.632,13.632,0,0,1,4-1c2.594-.388,3.892-.582,5,0a6.652,6.652,0,0,0,2,1,5.243,5.243,0,0,0,2,0c3.2-.382,3.875.755,6,0,1.063-.378.871-.654,2-1a6.681,6.681,0,0,1,4,0,13.476,13.476,0,0,1,2,1,8.312,8.312,0,0,0,2,1,5.937,5.937,0,0,0,2,0c2.624-.207,3.228-.434,4,0a2.991,2.991,0,0,1,1,1c.8,1.142.436,1.872,1,3,.453.907.855.771,2,2a11.711,11.711,0,0,1,2,3c.457,1.127.337,1.891,0,5-.746,6.887-.687,8.054,0,9a5.016,5.016,0,0,1,1,2,4.852,4.852,0,0,1,0,2c-.342,1.945-.81,4.6,0,7a5.671,5.671,0,0,0,2,3,6.016,6.016,0,0,0,3,1c1.4.042,2.08-.5,3,0a3.013,3.013,0,0,1,1,1c.716,1.026.445,1.632,1,2a4.93,4.93,0,0,0,2,0c1.518-.121,1.732-.138,2,0,.628.323.617,1.014,1,2,.771,1.988,1.829,1.8,3,4a6.931,6.931,0,0,1,1,3c.1,1.769-.675,2.8,0,4a2.914,2.914,0,0,0,1,1c1.273.87,2.178.373,4,1,1.2.412.918.665,2,1a7.943,7.943,0,0,0,4,0,7.2,7.2,0,0,0,3-1,10.74,10.74,0,0,0,2-2c1.144-1.313,1.3-1.748,2-2,.43-.154.583-.066,2,0a16.99,16.99,0,0,0,3,0,9.215,9.215,0,0,0,3-1,8.846,8.846,0,0,0,3-2c1.266-1.39.858-2.152,2-3,.876-.651,1.141-.221,3-1a7.1,7.1,0,0,0,3-2,7,7,0,0,0,1-2c1.462-3.5,2.147-3.381,3-6,.3-.914.445-1.635,1-3a10.226,10.226,0,0,1,1-2,8.26,8.26,0,0,1,2-2c1.616-1.19,2.155-.962,4-2s1.405-1.318,4-3a17.8,17.8,0,0,0,3-2c1.031-.964,1.075-1.394,2-2a10.029,10.029,0,0,1,3-1,39.143,39.143,0,0,0,4-1,4.76,4.76,0,0,0,2-1c.63-.652.762-1.443,1-3,.317-2.073.476-3.11,0-4-.544-1.017-1.158-.752-2-2a7.278,7.278,0,0,1-1-3c-.3-1.555-.446-2.332,0-3a2.364,2.364,0,0,1,2-1c.608.031.854.338,2,1a16.866,16.866,0,0,0,2,1c1.79.688,3.923-.359,5-1"/><path class="cls-16" d="M139.5,250.5a5.75,5.75,0,0,0-3,0,8.194,8.194,0,0,0-2,1c-1.727,1.033-1.794,1.356-3,2a6.1,6.1,0,0,1-3,1c-.989,0-1.1-.364-3-1-.483-.162-1.662-.443-4-1-2.215-.527-2.554-.59-3-1a3.149,3.149,0,0,1-1-3c.156-.534.493-.912,2-2,1.471-1.062,2.437-1.631,3-2a16.079,16.079,0,0,0,4-4,23.871,23.871,0,0,0,3-5c1.348-3.036.82-3.571,2-5,.843-1.02,1.033-.651,4-3,2.074-1.642,2.609-2.32,3-3a8.371,8.371,0,0,0,1-3c.257-1.774-.21-2.343,0-4a7.564,7.564,0,0,1,1-3c.228-.373,1.006-1.539,4-3a24.319,24.319,0,0,1,6-2"/><text class="cls-17" transform="translate(113.942 222.664) rotate(-37.095)">Шил<tspan class="cls-18" x="16.072" y="0">к</tspan><tspan x="19.695" y="0">а</tspan></text><text class="cls-17" transform="translate(47.184 190.497) rotate(-46.743)">Лена</text><text class="cls-17" transform="matrix(0.824, 0.567, -0.567, 0.824, 199.281, 101.869)">Лена</text><text class="cls-17" transform="translate(6.162 158.522) rotate(-5.168)">Ангара</text><text class="cls-17" transform="translate(217.942 258.664) rotate(-37.095)">Ам<tspan class="cls-12" x="10.152" y="0">у</tspan><tspan class="cls-19" x="13.678" y="0">р</tspan></text><path class="cls-20" d="M30,227s2.694-.438,5-1a29.483,29.483,0,0,0,5-2,49.553,49.553,0,0,0,6-3c2.941-1.842,4.669-2.955,6-5,.909-1.4,2.085-2.607,3-4a2.31,2.31,0,0,1,1-1c1.058-.455,1.941.482,3,0,.306-.139.345-.269,1-1l2-2c2.985-2.984,4.527-4.318,6-6a29.105,29.105,0,0,0,4-6c3.2-6.089,3.141-7.554,3-8-.055-.172-.245-.691,0-1a1.622,1.622,0,0,1,2,0c.645.564.105,2.717-1,7a18.683,18.683,0,0,1-1,3c-.46,1.054-.629,1.153-1,2a15.723,15.723,0,0,0-1,4c-.454,2.664-.3,3.292-1,4a3.41,3.41,0,0,1-2,1c-.847.078-1.313-.289-2,0a2.183,2.183,0,0,0-1,1,33,33,0,0,0-2,4,18.781,18.781,0,0,1-2,4,2.909,2.909,0,0,1-1,1c-.908.5-1.735.177-3,0-.818-.115-3.914-.548-6,1a12.15,12.15,0,0,0-1,1,22.925,22.925,0,0,1-4,3c-2.866,1.84-4.3,2.759-6,4-1.741,1.27-2.652,2.059-4,2a5.5,5.5,0,0,0-2,0,11.188,11.188,0,0,0-2,1,11.277,11.277,0,0,1-2,1,4.562,4.562,0,0,1-2,0,4.024,4.024,0,0,1-2-1c-.181-.174-1.277-1.225-1-2C27.221,227.382,28.186,227.3,30,227Z"/><text class="cls-21" transform="translate(284.605 190.849)">О<tspan class="cls-22" x="8.724" y="0">Х</tspan><tspan class="cls-23" x="16.324" y="0">ОТС</tspan><tspan class="cls-24" x="41.777" y="0">К</tspan><tspan class="cls-23" x="49.949" y="0">ОЕ</tspan><tspan class="cls-23"><tspan x="15.755" y="9.6">МОРЕ</tspan></tspan></text><text class="cls-25" transform="translate(462.146 165.849)">БЕРИН<tspan class="cls-26" x="42.559" y="0">Г</tspan><tspan class="cls-27" x="50.116" y="0">О</tspan><tspan class="cls-28" x="59.336" y="0">В</tspan><tspan class="cls-27" x="66.977" y="0">О</tspan><tspan x="20.215" y="9.6">МОРЕ</tspan></text></g></svg>