<svg id="Слой_1" data-name="Слой 1" xmlns="http://www.w3.org/2000/svg" viewBox="0 0 550 350"><defs><style>.cls-1{fill:none;stroke:#000;stroke-miterlimit:10;}.cls-2{font-size:13.89px;}.cls-10,.cls-11,.cls-2,.cls-6,.cls-7,.cls-8,.cls-9{font-family:TimesNewRomanPSMT, Times New Roman;}.cls-3{letter-spacing:-0.015em;}.cls-4{letter-spacing:0.009em;}.cls-5{letter-spacing:0em;}.cls-6{font-size:11.575px;}.cls-7{font-size:11.575px;}.cls-8{font-size:11.575px;}.cls-9{font-size:11.575px;}.cls-10{font-size:11.575px;}.cls-11{font-size:11.575px;}</style></defs><title>skhema-verner</title><line class="cls-1" x1="272.922" y1="205.69" x2="272.922" y2="190.643"/><line class="cls-1" x1="272.922" y1="206.269" x2="272.922" y2="197.588"/><line class="cls-1" x1="294.519" y1="205.137" x2="293.611" y2="196.504"/><line class="cls-1" x1="315.879" y1="201.754" x2="314.074" y2="193.263"/><line class="cls-1" x1="336.768" y1="196.157" x2="334.085" y2="187.901"/><line class="cls-1" x1="356.958" y1="188.407" x2="353.427" y2="180.476"/><line class="cls-1" x1="376.227" y1="178.589" x2="371.886" y2="171.071"/><line class="cls-1" x1="394.364" y1="166.81" x2="389.261" y2="159.787"/><line class="cls-1" x1="411.17" y1="153.201" x2="405.362" y2="146.749"/><line class="cls-1" x1="426.462" y1="137.909" x2="420.011" y2="132.1"/><line class="cls-1" x1="119.382" y1="137.909" x2="125.834" y2="132.1"/><line class="cls-1" x1="134.674" y1="153.201" x2="140.483" y2="146.749"/><line class="cls-1" x1="151.481" y1="166.81" x2="156.583" y2="159.787"/><line class="cls-1" x1="169.618" y1="178.589" x2="173.959" y2="171.071"/><line class="cls-1" x1="188.887" y1="188.407" x2="192.418" y2="180.476"/><line class="cls-1" x1="209.077" y1="196.157" x2="211.759" y2="187.901"/><line class="cls-1" x1="229.966" y1="201.754" x2="231.771" y2="193.263"/><line class="cls-1" x1="251.326" y1="205.137" x2="252.233" y2="196.504"/><line class="cls-1" x1="272.922" y1="206.269" x2="272.922" y2="202.218"/><line class="cls-1" x1="283.735" y1="205.986" x2="283.523" y2="201.94"/><line class="cls-1" x1="294.519" y1="205.137" x2="294.095" y2="201.108"/><line class="cls-1" x1="305.243" y1="203.725" x2="304.609" y2="199.724"/><line class="cls-1" x1="315.879" y1="201.754" x2="315.036" y2="197.792"/><line class="cls-1" x1="326.397" y1="199.229" x2="325.348" y2="195.316"/><line class="cls-1" x1="336.768" y1="196.157" x2="335.516" y2="192.304"/><line class="cls-1" x1="346.964" y1="192.546" x2="345.512" y2="188.764"/><line class="cls-1" x1="356.958" y1="188.407" x2="355.31" y2="184.706"/><line class="cls-1" x1="366.721" y1="183.75" x2="364.881" y2="180.141"/><line class="cls-1" x1="376.227" y1="178.589" x2="374.201" y2="175.08"/><line class="cls-1" x1="385.449" y1="172.937" x2="383.243" y2="169.539"/><line class="cls-1" x1="394.364" y1="166.81" x2="391.983" y2="163.533"/><line class="cls-1" x1="402.945" y1="160.226" x2="400.396" y2="157.077"/><line class="cls-1" x1="411.17" y1="153.201" x2="408.46" y2="150.19"/><line class="cls-1" x1="419.017" y1="145.755" x2="416.152" y2="142.89"/><line class="cls-1" x1="119.382" y1="137.909" x2="122.393" y2="135.198"/><line class="cls-1" x1="126.828" y1="145.755" x2="129.693" y2="142.89"/><line class="cls-1" x1="134.674" y1="153.201" x2="137.385" y2="150.19"/><line class="cls-1" x1="142.899" y1="160.226" x2="145.449" y2="157.077"/><line class="cls-1" x1="151.481" y1="166.81" x2="153.862" y2="163.533"/><line class="cls-1" x1="160.395" y1="172.937" x2="162.602" y2="169.539"/><line class="cls-1" x1="169.618" y1="178.589" x2="171.644" y2="175.08"/><line class="cls-1" x1="179.124" y1="183.75" x2="180.963" y2="180.141"/><line class="cls-1" x1="188.887" y1="188.407" x2="190.535" y2="184.706"/><line class="cls-1" x1="198.88" y1="192.546" x2="200.332" y2="188.764"/><line class="cls-1" x1="209.077" y1="196.157" x2="210.329" y2="192.304"/><line class="cls-1" x1="219.448" y1="199.229" x2="220.497" y2="195.316"/><line class="cls-1" x1="229.966" y1="201.754" x2="230.808" y2="197.792"/><line class="cls-1" x1="240.602" y1="203.725" x2="241.235" y2="199.724"/><line class="cls-1" x1="251.326" y1="205.137" x2="251.749" y2="201.108"/><line class="cls-1" x1="262.109" y1="205.986" x2="262.321" y2="201.94"/><line class="cls-1" x1="375.937" y1="178.088" x2="368.414" y2="165.056"/><line class="cls-1" x1="169.907" y1="178.088" x2="177.431" y2="165.056"/><path class="cls-1" d="M431.924,130.7l-36.854-28.1a159.4,159.4,0,0,1-122.148,56.8,159.407,159.407,0,0,1-123.074-57.909l-34.226,31.264L84,161.637a248.253,248.253,0,0,0,188.922,86.88A248.354,248.354,0,0,0,466,156.671Z"/><path class="cls-1" d="M431.924,130.7a205.61,205.61,0,0,1-159,74.992,205.62,205.62,0,0,1-157.3-72.943l34.226-31.264a159.407,159.407,0,0,0,123.074,57.909,159.4,159.4,0,0,0,122.148-56.8Z"/><line class="cls-1" x1="226.876" y1="216.223" x2="230.075" y2="201.176"/><line class="cls-1" x1="228.247" y1="209.799" x2="230.093" y2="201.118"/><line class="cls-1" x1="229.202" y1="205.169" x2="230.063" y2="201.118"/><line class="cls-1" x1="240.018" y1="207.176" x2="240.666" y2="203.085"/><line class="cls-1" x1="250.923" y1="208.614" x2="251.356" y2="204.495"/><line class="cls-1" x1="261.889" y1="209.479" x2="262.106" y2="205.343"/><line class="cls-1" x1="272.885" y1="209.769" x2="272.885" y2="205.627"/><line class="cls-1" x1="283.882" y1="209.482" x2="283.665" y2="205.347"/><line class="cls-1" x1="294.848" y1="208.621" x2="294.415" y2="204.502"/><line class="cls-1" x1="305.754" y1="207.188" x2="305.106" y2="203.097"/><line class="cls-1" x1="316.57" y1="205.185" x2="315.709" y2="201.134"/><line class="cls-1" x1="327.267" y1="202.619" x2="326.195" y2="198.618"/><line class="cls-1" x1="337.814" y1="199.496" x2="336.534" y2="195.558"/><line class="cls-1" x1="348.184" y1="195.826" x2="346.7" y2="191.96"/><line class="cls-1" x1="358.347" y1="191.619" x2="356.663" y2="187.835"/><line class="cls-1" x1="368.276" y1="186.885" x2="366.396" y2="183.195"/><line class="cls-1" x1="377.944" y1="181.638" x2="375.874" y2="178.051"/><line class="cls-1" x1="387.324" y1="175.892" x2="385.069" y2="172.419"/><line class="cls-1" x1="396.391" y1="169.663" x2="393.956" y2="166.312"/><line class="cls-1" x1="405.119" y1="162.968" x2="402.512" y2="159.75"/><line class="cls-1" x1="413.485" y1="155.826" x2="410.713" y2="152.748"/><line class="cls-1" x1="421.465" y1="148.255" x2="418.536" y2="145.327"/><line class="cls-1" x1="429.038" y1="140.278" x2="425.96" y2="137.506"/><line class="cls-1" x1="116.757" y1="140.223" x2="119.835" y2="137.452"/><line class="cls-1" x1="124.328" y1="148.203" x2="127.256" y2="145.275"/><line class="cls-1" x1="132.305" y1="155.777" x2="135.077" y2="152.699"/><line class="cls-1" x1="140.668" y1="162.922" x2="143.275" y2="159.703"/><line class="cls-1" x1="149.394" y1="169.62" x2="151.829" y2="166.269"/><line class="cls-1" x1="158.458" y1="175.852" x2="160.714" y2="172.378"/><line class="cls-1" x1="167.836" y1="181.601" x2="169.907" y2="178.014"/><line class="cls-1" x1="177.502" y1="186.851" x2="179.383" y2="183.161"/><line class="cls-1" x1="187.43" y1="191.589" x2="189.115" y2="187.805"/><line class="cls-1" x1="197.592" y1="195.8" x2="199.076" y2="191.933"/><line class="cls-1" x1="207.96" y1="199.474" x2="209.24" y2="195.535"/><line class="cls-1" x1="218.507" y1="202.6" x2="219.579" y2="198.599"/><line class="cls-1" x1="229.202" y1="205.169" x2="230.063" y2="201.118"/><line class="cls-1" x1="240.018" y1="207.176" x2="240.666" y2="203.085"/><line class="cls-1" x1="250.923" y1="208.614" x2="251.356" y2="204.495"/><line class="cls-1" x1="261.889" y1="209.479" x2="262.106" y2="205.343"/><line class="cls-1" x1="250.458" y1="213.318" x2="251.385" y2="204.492"/><line class="cls-1" x1="272.914" y1="214.496" x2="272.914" y2="205.621"/><line class="cls-1" x1="295.37" y1="213.32" x2="294.443" y2="204.493"/><line class="cls-1" x1="317.581" y1="209.803" x2="315.736" y2="201.122"/><line class="cls-1" x1="339.302" y1="203.984" x2="336.56" y2="195.543"/><line class="cls-1" x1="360.296" y1="195.926" x2="356.686" y2="187.818"/><line class="cls-1" x1="380.333" y1="185.718" x2="375.895" y2="178.032"/><line class="cls-1" x1="399.192" y1="173.471" x2="393.976" y2="166.291"/><line class="cls-1" x1="416.669" y1="159.32" x2="410.73" y2="152.725"/><line class="cls-1" x1="432.57" y1="143.42" x2="425.975" y2="137.481"/><line class="cls-1" x1="113.263" y1="143.407" x2="119.858" y2="137.469"/><line class="cls-1" x1="129.163" y1="159.309" x2="135.102" y2="152.713"/><line class="cls-1" x1="146.639" y1="173.461" x2="151.855" y2="166.281"/><line class="cls-1" x1="165.497" y1="185.709" x2="169.935" y2="178.023"/><line class="cls-1" x1="185.533" y1="195.919" x2="189.143" y2="187.811"/><line class="cls-1" x1="206.527" y1="203.978" x2="209.269" y2="195.538"/><line class="cls-1" x1="341.327" y1="210.232" x2="336.573" y2="195.602"/><line class="cls-1" x1="437.448" y1="147.819" x2="426.016" y2="137.526"/><line class="cls-1" x1="124.764" y1="164.186" x2="135.057" y2="152.754"/><text class="cls-2" transform="translate(232.815 239.007)">Ш<tspan class="cls-3" x="14.012" y="0">к</tspan><tspan class="cls-4" x="20.55" y="0">а</tspan><tspan class="cls-5" x="26.836" y="0">ла лимба</tspan></text><text class="cls-2" transform="translate(247.862 175.346)">Верньер</text><text class="cls-6" transform="translate(218.468 224.934) rotate(10)">20</text><text class="cls-7" transform="translate(339.389 222.96) rotate(-17.722)">10</text><text class="cls-8" transform="translate(444.373 158.555) rotate(-45.486)">0</text><text class="cls-9" transform="translate(175.349 157.72) rotate(31.061)">20</text><text class="cls-10" transform="matrix(0.743, 0.669, -0.669, 0.743, 112.989, 169.157)">30</text><text class="cls-11" transform="translate(363.186 162.122) rotate(-29.794)">0</text></svg>