<svg xmlns="http://www.w3.org/2000/svg" viewBox="0 0 331.439 128.253"><defs><style>.cls-1{fill:none;stroke:#000;stroke-miterlimit:10;}.cls-2{font-size:12px;}.cls-2,.cls-5{font-family:TimesNewRomanPSMT, Times New Roman;}.cls-3{letter-spacing:-0.015em;}.cls-4{letter-spacing:0.009em;}.cls-5{font-size:10px;}</style></defs><title>verner</title><g id="verner"><line class="cls-1" x1="163.915" y1="90.753" x2="163.915" y2="77.753"/><line class="cls-1" x1="163.915" y1="91.253" x2="163.915" y2="83.753"/><line class="cls-1" x1="182.573" y1="90.275" x2="181.789" y2="82.816"/><line class="cls-1" x1="201.027" y1="87.353" x2="199.468" y2="80.016"/><line class="cls-1" x1="219.075" y1="82.517" x2="216.757" y2="75.384"/><line class="cls-1" x1="236.517" y1="75.821" x2="233.467" y2="68.969"/><line class="cls-1" x1="253.165" y1="67.339" x2="249.415" y2="60.844"/><line class="cls-1" x1="268.835" y1="57.163" x2="264.426" y2="51.095"/><line class="cls-1" x1="283.355" y1="45.405" x2="278.336" y2="39.831"/><line class="cls-1" x1="296.566" y1="32.193" x2="290.993" y2="27.175"/><line class="cls-1" x1="31.264" y1="32.193" x2="36.837" y2="27.175"/><line class="cls-1" x1="44.475" y1="45.405" x2="49.494" y2="39.831"/><line class="cls-1" x1="58.995" y1="57.163" x2="63.404" y2="51.095"/><line class="cls-1" x1="74.665" y1="67.339" x2="78.415" y2="60.844"/><line class="cls-1" x1="91.313" y1="75.821" x2="94.363" y2="68.969"/><line class="cls-1" x1="108.755" y1="82.517" x2="111.073" y2="75.384"/><line class="cls-1" x1="126.803" y1="87.353" x2="128.362" y2="80.016"/><line class="cls-1" x1="145.257" y1="90.275" x2="146.041" y2="82.816"/><line class="cls-1" x1="163.915" y1="91.253" x2="163.915" y2="87.753"/><line class="cls-1" x1="173.257" y1="91.009" x2="173.074" y2="87.513"/><line class="cls-1" x1="182.573" y1="90.275" x2="182.207" y2="86.795"/><line class="cls-1" x1="191.839" y1="89.056" x2="191.291" y2="85.599"/><line class="cls-1" x1="201.027" y1="87.353" x2="200.3" y2="83.929"/><line class="cls-1" x1="210.114" y1="85.171" x2="209.208" y2="81.79"/><line class="cls-1" x1="219.075" y1="82.517" x2="217.993" y2="79.188"/><line class="cls-1" x1="227.884" y1="79.397" x2="226.629" y2="76.13"/><line class="cls-1" x1="236.517" y1="75.821" x2="235.094" y2="72.624"/><line class="cls-1" x1="244.952" y1="71.798" x2="243.363" y2="68.679"/><line class="cls-1" x1="253.165" y1="67.339" x2="251.415" y2="64.308"/><line class="cls-1" x1="261.133" y1="62.456" x2="259.227" y2="59.521"/><line class="cls-1" x1="268.835" y1="57.163" x2="266.777" y2="54.331"/><line class="cls-1" x1="276.249" y1="51.474" x2="274.046" y2="48.754"/><line class="cls-1" x1="283.355" y1="45.405" x2="281.013" y2="42.804"/><line class="cls-1" x1="290.134" y1="38.972" x2="287.659" y2="36.497"/><line class="cls-1" x1="31.264" y1="32.193" x2="33.865" y2="29.851"/><line class="cls-1" x1="37.696" y1="38.972" x2="40.171" y2="36.497"/><line class="cls-1" x1="44.475" y1="45.405" x2="46.817" y2="42.804"/><line class="cls-1" x1="51.581" y1="51.474" x2="53.784" y2="48.754"/><line class="cls-1" x1="58.995" y1="57.163" x2="61.053" y2="54.331"/><line class="cls-1" x1="66.697" y1="62.456" x2="68.603" y2="59.521"/><line class="cls-1" x1="74.665" y1="67.339" x2="76.415" y2="64.308"/><line class="cls-1" x1="82.878" y1="71.798" x2="84.467" y2="68.679"/><line class="cls-1" x1="91.313" y1="75.821" x2="92.736" y2="72.624"/><line class="cls-1" x1="99.946" y1="79.397" x2="101.201" y2="76.13"/><line class="cls-1" x1="108.755" y1="82.517" x2="109.837" y2="79.188"/><line class="cls-1" x1="117.716" y1="85.171" x2="118.622" y2="81.79"/><line class="cls-1" x1="126.803" y1="87.353" x2="127.53" y2="83.929"/><line class="cls-1" x1="135.991" y1="89.056" x2="136.539" y2="85.599"/><line class="cls-1" x1="145.257" y1="90.275" x2="145.623" y2="86.795"/><line class="cls-1" x1="154.573" y1="91.009" x2="154.756" y2="87.513"/><line class="cls-1" x1="252.915" y1="66.906" x2="246.415" y2="55.647"/><line class="cls-1" x1="74.915" y1="66.906" x2="81.415" y2="55.647"/><path class="cls-1" d="M302.87,26.71,271.03,2.43A137.715,137.715,0,0,1,165.5,51.5,137.72,137.72,0,0,1,59.17,1.47L29.6,28.48,2.28,53.44A214.48,214.48,0,0,0,165.5,128.5,214.567,214.567,0,0,0,332.31,49.15Z" transform="translate(-1.585 -0.747)"/><path class="cls-1" d="M302.87,26.71A177.638,177.638,0,0,1,165.5,91.5,177.646,177.646,0,0,1,29.6,28.48L59.17,1.47A137.72,137.72,0,0,0,165.5,51.5,137.715,137.715,0,0,0,271.03,2.43Z" transform="translate(-1.585 -0.747)"/></g><g id="Слой_3" data-name="Слой 3"><line class="cls-1" x1="124.133" y1="99.853" x2="126.897" y2="86.853"/><line class="cls-1" x1="125.318" y1="94.303" x2="126.912" y2="86.803"/><line class="cls-1" x1="126.143" y1="90.303" x2="126.887" y2="86.803"/><line class="cls-1" x1="135.487" y1="92.037" x2="136.047" y2="88.503"/><line class="cls-1" x1="144.909" y1="93.279" x2="145.283" y2="89.72"/><line class="cls-1" x1="154.383" y1="94.026" x2="154.57" y2="90.453"/><line class="cls-1" x1="163.883" y1="94.277" x2="163.883" y2="90.698"/><line class="cls-1" x1="173.383" y1="94.029" x2="173.196" y2="90.456"/><line class="cls-1" x1="182.858" y1="93.285" x2="182.484" y2="89.727"/><line class="cls-1" x1="192.28" y1="92.047" x2="191.72" y2="88.513"/><line class="cls-1" x1="201.625" y1="90.316" x2="200.881" y2="86.816"/><line class="cls-1" x1="210.866" y1="88.099" x2="209.94" y2="84.643"/><line class="cls-1" x1="219.979" y1="85.402" x2="218.873" y2="81.999"/><line class="cls-1" x1="228.937" y1="82.231" x2="227.655" y2="78.891"/><line class="cls-1" x1="237.718" y1="78.596" x2="236.263" y2="75.327"/><line class="cls-1" x1="246.297" y1="74.506" x2="244.672" y2="71.318"/><line class="cls-1" x1="254.649" y1="69.973" x2="252.86" y2="66.874"/><line class="cls-1" x1="262.753" y1="65.009" x2="260.804" y2="62.008"/><line class="cls-1" x1="270.586" y1="59.627" x2="268.483" y2="56.733"/><line class="cls-1" x1="278.127" y1="53.843" x2="275.875" y2="51.063"/><line class="cls-1" x1="285.354" y1="47.673" x2="282.96" y2="45.013"/><line class="cls-1" x1="292.249" y1="41.132" x2="289.719" y2="38.602"/><line class="cls-1" x1="298.792" y1="34.24" x2="296.133" y2="31.845"/><line class="cls-1" x1="28.996" y1="34.192" x2="31.655" y2="31.798"/><line class="cls-1" x1="35.536" y1="41.087" x2="38.066" y2="38.557"/><line class="cls-1" x1="42.429" y1="47.63" x2="44.823" y2="44.971"/><line class="cls-1" x1="49.654" y1="53.803" x2="51.906" y2="51.022"/><line class="cls-1" x1="57.192" y1="59.59" x2="59.296" y2="56.695"/><line class="cls-1" x1="65.024" y1="64.974" x2="66.972" y2="61.973"/><line class="cls-1" x1="73.126" y1="69.941" x2="74.915" y2="66.842"/><line class="cls-1" x1="81.477" y1="74.477" x2="83.101" y2="71.289"/><line class="cls-1" x1="90.054" y1="78.57" x2="91.509" y2="75.301"/><line class="cls-1" x1="98.833" y1="82.208" x2="100.115" y2="78.868"/><line class="cls-1" x1="107.791" y1="85.382" x2="108.897" y2="81.979"/><line class="cls-1" x1="116.903" y1="88.083" x2="117.829" y2="84.627"/><line class="cls-1" x1="126.143" y1="90.303" x2="126.887" y2="86.803"/><line class="cls-1" x1="135.487" y1="92.037" x2="136.047" y2="88.503"/><line class="cls-1" x1="144.909" y1="93.279" x2="145.283" y2="89.72"/><line class="cls-1" x1="154.383" y1="94.026" x2="154.57" y2="90.453"/><line class="cls-1" x1="144.506" y1="97.343" x2="145.308" y2="89.718"/><line class="cls-1" x1="163.908" y1="98.361" x2="163.908" y2="90.693"/><line class="cls-1" x1="183.309" y1="97.345" x2="182.508" y2="89.719"/><line class="cls-1" x1="202.498" y1="94.306" x2="200.904" y2="86.806"/><line class="cls-1" x1="221.264" y1="89.279" x2="218.895" y2="81.986"/><line class="cls-1" x1="239.402" y1="82.317" x2="236.283" y2="75.312"/><line class="cls-1" x1="256.712" y1="73.498" x2="252.879" y2="66.857"/><line class="cls-1" x1="273.006" y1="62.917" x2="268.5" y2="56.714"/><line class="cls-1" x1="288.105" y1="50.691" x2="282.975" y2="44.993"/><line class="cls-1" x1="301.843" y1="36.954" x2="296.145" y2="31.824"/><line class="cls-1" x1="25.977" y1="36.943" x2="31.675" y2="31.813"/><line class="cls-1" x1="39.714" y1="50.682" x2="44.845" y2="44.983"/><line class="cls-1" x1="54.812" y1="62.908" x2="59.319" y2="56.705"/><line class="cls-1" x1="71.105" y1="73.49" x2="74.939" y2="66.85"/><line class="cls-1" x1="88.415" y1="82.311" x2="91.534" y2="75.306"/><line class="cls-1" x1="106.552" y1="89.274" x2="108.922" y2="81.982"/><line class="cls-1" x1="223.013" y1="94.677" x2="218.906" y2="82.037"/><line class="cls-1" x1="306.058" y1="40.755" x2="296.181" y2="31.862"/><line class="cls-1" x1="35.913" y1="54.896" x2="44.806" y2="45.019"/><text class="cls-2" transform="translate(129.264 119.536)">Ш<tspan class="cls-3" x="12.105" y="0">к</tspan><tspan class="cls-4" x="17.754" y="0">а</tspan><tspan x="23.186" y="0">ла лимба</tspan></text><text class="cls-2" transform="translate(142.264 64.536)">Верньер</text><text class="cls-5" transform="translate(116.869 107.378) rotate(10)">20</text><text class="cls-5" transform="matrix(0.953, -0.304, 0.304, 0.953, 221.34, 105.674)">10</text><text class="cls-5" transform="translate(312.04 50.03) rotate(-45.486)">0</text><text class="cls-5" transform="translate(79.616 49.309) rotate(31.061)">20</text><text class="cls-5" transform="translate(25.739 59.19) rotate(42)">30</text><text class="cls-5" transform="translate(241.898 53.111) rotate(-29.794)">0</text></g></svg>